<svg width="1476" height="1022" viewBox="0 0 1476 1022" fill="none" xmlns="http://www.w3.org/2000/svg">
<path d="M1475.01 0H0.00585938V996.321H1475.01V0Z" fill="#ADCCEA"/>
<path opacity="0.7" d="M1370.72 513.492C1395.46 522.339 1432.14 527.217 1475.01 529.349V616.36L1105.41 597.808L904.694 587.726L172.014 550.945L163.808 550.531L31.6299 569.266L0 573.749V312.916C29.7478 304.539 60.3098 297.29 90.9721 290.814C168.846 274.367 242.13 267.759 322.152 280.803C405.23 294.337 483.458 318.587 560.27 343.404C623.069 363.689 685.822 384.715 752.663 398.341C820.483 412.178 892.54 416.673 962.963 419.698C991.902 420.942 1019.79 427.493 1043.8 438.473L1065.94 448.619C1091.44 460.28 1121.38 466.665 1152.18 466.987C1202.99 467.522 1289 474.265 1359.68 508.889C1363.02 510.531 1366.71 512.061 1370.71 513.492H1370.72Z" fill="#CBE1F4"/>
<g style="mix-blend-mode:soft-light" opacity="0.3">
<path d="M1475.01 272.677V275.566L466.772 0H635.961L1475.01 272.677Z" fill="white"/>
</g>
<g style="mix-blend-mode:soft-light" opacity="0.3">
<path d="M1350.85 252.448L1350.81 253.859L0.00585938 42.1045V0H107.451L1350.85 252.448Z" fill="white"/>
</g>
<path d="M1374.53 522.773C1398.95 530.449 1434.1 534.076 1475.01 534.913V621.72L172.009 601.463L0.00585938 632.118V366.774C26.0485 358.62 52.7637 351.311 79.6028 344.607C156.126 325.482 228.826 316.36 309.715 326.618C393.719 337.263 473.687 358.787 552.269 380.909C616.515 398.999 680.783 417.829 748.568 429.131C817.345 440.609 889.649 442.601 960.201 443.191C989.194 443.438 1017.55 449.014 1042.36 459.152L1065.24 468.518C1091.58 479.282 1121.99 484.626 1152.75 483.885C1203.53 482.658 1289.96 486.424 1363.16 518.561C1366.63 520.083 1370.42 521.486 1374.52 522.777L1374.53 522.773Z" fill="#B7D0EA"/>
<g style="mix-blend-mode:multiply" opacity="0.2">
<path d="M1475.01 544.913V673.578L1122.56 669.684L138.084 658.808L0.00585938 657.278V592.417C8.07706 588.874 18.7325 584.355 31.6358 579.27C112.802 547.288 282.698 492.785 454.347 514.636C478.862 517.753 504.208 516.314 527.277 509.914C558.99 501.114 613.016 492.598 682.494 506.335C741.536 518.004 793.107 541.928 849.281 558.228C912.612 576.596 981.719 586.132 1050.66 585.579C1122.65 585.009 1179.03 567.489 1244.5 549.703C1284.44 538.855 1329.12 534.176 1374.53 532.774C1398.95 540.449 1434.1 544.076 1475.01 544.913Z" fill="#B4CCEF"/>
</g>
<path d="M1475.01 549.842V689.566L0.00585938 673.266V608.405C29.0988 595.62 91.9043 570.25 172.02 550.949C253.883 531.218 353.817 517.824 454.347 530.624C478.862 533.741 504.208 532.302 527.277 525.902C558.99 517.102 613.016 508.586 682.494 522.323C741.536 533.992 793.107 557.916 849.281 574.215C867.335 579.448 885.855 583.967 904.7 587.73C951.983 597.203 1001.37 601.965 1050.65 601.566C1069.86 601.411 1087.95 600.052 1105.41 597.812C1153.37 591.631 1196.49 578.735 1244.49 565.691C1313.99 546.809 1397.93 546.621 1475 549.842H1475.01Z" fill="#99BBDD"/>
<g style="mix-blend-mode:multiply" opacity="0.15">
<path d="M1475.01 831.634V1006.32H0.00585938V837.584C113.268 833.324 851.163 807.399 1475.01 831.634Z" fill="#CFD88D"/>
</g>
<path d="M1475 590.354V828L0 812.688V566.819C44.0199 562.25 90.2346 558.544 138.078 555.598C453.043 536.18 837.818 549.635 1122.56 565.878C1280.44 574.884 1407.57 584.757 1475 590.354Z" fill="#CFD88D"/>
<path d="M1475 664V1022H0V650C703 650 845 643.567 1475 664Z" fill="#FFDC83"/>
</svg>
