<svg width="1920" height="1500" viewBox="0 0 1920 1500" fill="none" xmlns="http://www.w3.org/2000/svg">
<g clip-path="url(#clip0_17_2)">
<path d="M1920 0H0V1437H1920V0Z" fill="#ADCCEA"/>
<path opacity="0.7" d="M1784.25 698.878C1816.46 710.394 1864.2 716.744 1920 719.519V832.78L1438.9 808.632L1177.63 795.507L223.91 747.631L213.227 747.091L41.1723 771.478L0 777.314V437.791C38.7224 426.887 78.5046 417.45 118.417 409.021C219.785 387.611 315.178 379.01 419.342 395.989C527.483 413.606 629.312 445.173 729.298 477.476C811.043 503.881 892.727 531.251 979.734 548.987C1068.01 566.999 1161.81 572.85 1253.48 576.788C1291.15 578.406 1327.45 586.935 1358.7 601.226L1387.52 614.434C1420.71 629.613 1459.69 637.924 1499.78 638.344C1565.91 639.039 1677.88 647.816 1769.88 692.886C1774.23 695.024 1779.03 697.016 1784.24 698.878H1784.25Z" fill="#CBE1F4"/>
<g style="mix-blend-mode:soft-light" opacity="0.3">
<path d="M2446 452.208V457L774 0H1054.57L2446 452.208Z" fill="white"/>
</g>
<g style="mix-blend-mode:soft-light" opacity="0.3">
<path d="M2240 418.66L2239.93 421L0 69.8263V0H178.168L2240 418.66Z" fill="white"/>
</g>
<g style="mix-blend-mode:soft-light" opacity="0.3">
<path d="M2240 418.66L2239.93 421L0 69.8263V0H178.168L2240 418.66Z" fill="white"/>
</g>
<path d="M1789.21 719.357C1821 729.348 1866.75 734.069 1920 735.158V848.155L223.902 821.786L0.00769043 861.689V516.293C33.9071 505.679 68.682 496.165 103.618 487.44C203.227 462.545 297.86 450.67 403.152 464.023C512.5 477.879 616.594 505.897 718.883 534.694C802.511 558.24 886.169 582.752 974.404 597.464C1063.93 612.404 1158.05 614.998 1249.88 615.766C1287.62 616.087 1324.53 623.345 1356.84 636.542L1386.61 648.733C1420.9 662.745 1460.48 669.701 1500.53 668.736C1566.62 667.138 1679.13 672.041 1774.41 713.873C1778.93 715.855 1783.86 717.681 1789.2 719.362L1789.21 719.357Z" fill="#B7D0EA"/>
<g style="mix-blend-mode:multiply" opacity="0.2">
<path d="M1920 739.622V907.103L1461.23 902.035L179.742 887.878L0.00769043 885.886V801.458C10.5139 796.846 24.3839 790.963 41.18 784.344C146.833 742.713 367.986 671.768 591.419 700.211C623.329 704.268 656.322 702.395 686.351 694.064C727.631 682.61 797.956 671.524 888.396 689.406C965.249 704.595 1032.38 735.736 1105.5 756.953C1187.94 780.863 1277.89 793.277 1367.63 792.556C1461.34 791.814 1534.73 769.009 1619.95 745.857C1671.94 731.736 1730.11 725.646 1789.21 723.82C1821 733.812 1866.75 738.532 1920 739.622Z" fill="#B4CCEF"/>
</g>
<path d="M1920 771.408V1057.31L0 1023.96V891.243C37.8701 865.082 119.624 813.169 223.91 773.675C330.47 733.301 460.554 705.893 591.414 732.086C623.324 738.463 656.317 735.519 686.346 722.423C727.626 704.417 797.952 686.99 888.392 715.1C965.245 738.977 1032.38 787.93 1105.5 821.283C1129 831.99 1153.11 841.238 1177.64 848.936C1239.18 868.32 1303.46 878.064 1367.62 877.249C1392.62 876.931 1416.18 874.15 1438.89 869.567C1501.33 856.919 1557.46 830.53 1619.94 803.84C1710.41 765.203 1819.68 764.819 1919.99 771.408H1920Z" fill="#99BBDD"/>
<g style="mix-blend-mode:multiply" opacity="0.15">
<path d="M1920 1104.45V1331.83H0.00769043V1112.19C147.44 1106.65 1107.95 1072.9 1920 1104.45Z" fill="#CFD88D"/>
</g>
<path d="M1919.99 1169.18V1478.52L0 1458.59V1138.55C57.3003 1132.6 117.457 1127.77 179.734 1123.94C589.722 1098.66 1090.58 1116.18 1461.22 1137.32C1666.73 1149.04 1832.23 1161.9 1919.99 1169.18Z" fill="#CFD88D"/>
<path d="M1919.99 1265.05V1731.05H0V1246.82C915.088 1246.82 1099.93 1238.45 1919.99 1265.05Z" fill="#FFDC83"/>
</g>
<defs>
<clipPath id="clip0_17_2">
<rect width="1920" height="1499.6" fill="white"/>
</clipPath>
</defs>
</svg>
