<svg width="1920" height="1495" viewBox="0 0 1920 1495" fill="none" xmlns="http://www.w3.org/2000/svg">
<g clip-path="url(#clip0_17_2)">
<path d="M1920 0H0V1432.59H1920V0Z" fill="#ADCCEA"/>
<path opacity="0.7" d="M1784.25 696.732C1816.46 708.213 1864.2 714.543 1920 717.31V830.223L1438.9 806.149L1177.63 793.065L223.91 745.335L213.227 744.798L41.1723 769.11L0 774.928V436.447C38.7224 425.576 78.5046 416.169 118.417 407.765C219.785 386.421 315.178 377.847 419.342 394.774C527.483 412.337 629.312 443.806 729.298 476.01C811.043 502.334 892.727 529.62 979.734 547.302C1068.01 565.258 1161.81 571.091 1253.48 575.017C1291.15 576.63 1327.45 585.133 1358.7 599.381L1387.52 612.548C1420.71 627.68 1459.69 635.965 1499.78 636.384C1565.91 637.077 1677.88 645.827 1769.88 690.759C1774.23 692.89 1779.03 694.875 1784.24 696.732H1784.25Z" fill="#CBE1F4"/>
<g style="mix-blend-mode:soft-light" opacity="0.3">
<path d="M2446 450.82V455.597L774 0H1054.57L2446 450.82Z" fill="white"/>
</g>
<g style="mix-blend-mode:soft-light" opacity="0.3">
<path d="M2240 417.375L2239.93 419.707L0 69.6119V0H178.168L2240 417.375Z" fill="white"/>
</g>
<path d="M1789.21 717.148C1821 727.109 1866.75 731.815 1920 732.901V845.551L223.902 819.263L0.00769043 859.043V514.708C33.9071 504.127 68.682 494.642 103.618 485.943C203.227 461.124 297.86 449.286 403.152 462.598C512.5 476.412 616.594 504.344 718.883 533.052C802.511 556.526 886.169 580.962 974.404 595.629C1063.93 610.524 1158.05 613.11 1249.88 613.875C1287.62 614.196 1324.53 621.431 1356.84 634.588L1386.61 646.741C1420.9 660.71 1460.48 667.645 1500.53 666.683C1566.62 665.09 1679.13 669.977 1774.41 711.682C1778.93 713.657 1783.86 715.478 1789.2 717.153L1789.21 717.148Z" fill="#B7D0EA"/>
<g style="mix-blend-mode:multiply" opacity="0.2">
<path d="M1920 737.351V904.318L1461.23 899.265L179.742 885.152L0.00769043 883.166V798.997C10.5139 794.399 24.3839 788.535 41.18 781.936C146.833 740.433 367.986 669.705 591.419 698.061C623.329 702.106 656.322 700.239 686.351 691.933C727.631 680.514 797.956 669.462 888.396 687.289C965.249 702.432 1032.38 733.477 1105.5 754.629C1187.94 778.465 1277.89 790.841 1367.63 790.122C1461.34 789.383 1534.73 766.648 1619.95 743.567C1671.94 729.49 1730.11 723.418 1789.21 721.598C1821 731.558 1866.75 736.265 1920 737.351Z" fill="#B4CCEF"/>
</g>
<path d="M1920 769.04V1063L1460 1049L924 1038L0 1048V888.506C37.8701 862.426 119.624 810.672 223.91 771.3C330.47 731.05 460.554 703.726 591.414 729.838C623.324 736.196 656.317 733.261 686.346 720.205C727.626 702.254 797.952 684.881 888.392 712.904C965.245 736.708 1032.38 785.511 1105.5 818.761C1129 829.436 1153.11 838.655 1177.64 846.329C1239.18 865.653 1303.46 875.368 1367.62 874.555C1392.62 874.238 1416.18 871.466 1438.89 866.897C1501.33 854.288 1557.46 827.98 1619.94 801.372C1710.41 762.853 1819.68 762.471 1919.99 769.04H1920Z" fill="#99BBDD"/>
<g style="mix-blend-mode:multiply" opacity="0.15">
<path d="M1919.99 1073.98V1280.73H0V1061.76C147.432 1056.23 1107.94 1042.53 1919.99 1073.98Z" fill="#CFD88D"/>
</g>
<path d="M1920 1126.01V1568L0 1541.27V1111.99C57.3005 1104.01 117.458 1097.54 179.735 1092.39C589.724 1058.49 1085 1079.06 1460.01 1093.82C1543.01 1093.82 1832.23 1116.23 1920 1126.01Z" fill="#CFD88D"/>
</g>
<defs>
<clipPath id="clip0_17_2">
<rect width="1920" height="1495" fill="white"/>
</clipPath>
</defs>
</svg>
