<svg width="1920" height="1495" viewBox="0 0 1920 1495" fill="none" xmlns="http://www.w3.org/2000/svg">
<g clip-path="url(#clip0_36_40)">
<rect width="1920" height="1495" fill="white"/>
<mask id="mask0_36_40" style="mask-type:luminance" maskUnits="userSpaceOnUse" x="-161" y="0" width="2243" height="1495">
<path d="M-161 1495L2081.5 1495V0L-161 0V1495Z" fill="white"/>
</mask>
<g mask="url(#mask0_36_40)">
<mask id="mask1_36_40" style="mask-type:luminance" maskUnits="userSpaceOnUse" x="-161" y="0" width="2243" height="1495">
<path d="M-161 1495L2081.5 1495V0L-161 0V1495Z" fill="white"/>
</mask>
<g mask="url(#mask1_36_40)">
<path opacity="0.58" d="M-161 1495L2081.5 1495V0L-161 0V1495Z" fill="#F6F6F7"/>
</g>
<path d="M2265.53 -40.1968H-220.202V1610.34H2265.53V-40.1968Z" fill="url(#paint0_linear_36_40)"/>
<path d="M713.257 193.247H703.932V169.01H680.517V160.526H611.691V169.01H584.351V174.896H571.008V169.271H506.817V174.896H479.253V180.671H458.678V168.767H394.486V175.588H342.554V184.913H297.816V193.808H297.554V194.387H257.488V200.704H241.099V210.589H233.362V225.67H221.664V242.676H231.251V257.962H243.192V273.847H255.488V300.289H292.77V322.658H331.92V335.702H348.702V352.484H365.483V369.265H380.396V383.636H499.977V370.592H511.171V363.939H543.295V356.483H574.989V333.834H613.429V313.558H625.632V296.776H634.957V281.864H657.326V259.495H670.37V240.845H694.607V220.344H713.257V193.229V193.247Z" fill="#C5D6FF"/>
<path d="M387.871 376.179V361.79H372.958V345.009H356.177V328.246H339.395V315.183H300.245V292.814H262.963V266.372H250.667V250.487H238.726V235.201H229.139V233.145H240.837V218.064H248.574V208.179H264.963V201.862H305.029V201.283H305.291V192.388H350.029V183.063H401.98V176.242H451.203V188.146H486.728V182.371H514.292V176.746H563.515V182.371H591.807V176.485H619.166V168.001H673.023V176.485H696.457V200.722H705.782V212.888H687.132V233.407H662.895V252.038H649.851V274.426H627.482V289.339H618.157V306.12H605.954V326.377H567.514V349.026H535.82V356.483H503.696V363.117H492.502V376.179H387.871Z" fill="#D6DFFC"/>
<path d="M-438.304 936.337H-428.979V960.575H-405.564V969.059H-336.738V960.575H-309.398V954.688H-296.055V960.313H-231.863V954.688H-204.299V948.914H-183.724V960.818H-119.533V953.997H-67.6003V944.672H-22.8624V935.777H-22.6007V935.197H17.4652V928.881H33.8542V918.995H41.5908V903.914H53.2892V886.909H43.7025V871.622H31.7612V855.738H19.4648V829.295H-17.8168V806.926H-56.9671V793.882H-73.7485V777.101H-90.5298V760.32H-105.442V745.93H-225.024V758.974H-236.218V765.627H-268.341V773.083H-300.035V795.732H-338.476V816.008H-350.679V832.79H-360.004V847.702H-382.373V870.071H-395.416V888.721H-419.654V909.222H-438.304V936.337Z" fill="#C5D6FF"/>
<path d="M-398.089 961.565V953.081H-421.504V928.843H-430.829V916.678H-412.179V896.178H-387.941V877.528H-374.897V855.159H-352.528V840.246H-343.203V823.465H-331V803.189H-292.56V780.558H-260.866V773.102H-228.742V766.449H-217.567V753.405H-112.936V767.776H-98.0234V784.557H-81.242V801.339H-64.4607V814.383H-25.3104V836.77H11.9712V863.213H24.2862V879.097H36.2089V894.384H45.8143V896.439H34.0972V911.52H26.3606V921.406H9.9903V927.704H-30.0756V928.302H-30.356V937.178H-75.0939V946.503H-127.026V953.343H-176.268V941.439H-211.774V947.213H-239.338V952.838H-288.58V947.213H-316.873V953.081H-344.213V961.565H-398.089Z" fill="#D6DFFC"/>
<path d="M2352.43 763.758H2333.8V733.933H2305.82V711.564H2287.19V681.739H2255.5V651.913H2069.67V679.459H2038.11V699.959H2006.41V716.74H1892.68V727.897H1801.34V768.916H1809.22V821.11H1822.14V839.611H1933.59V854.841H2049.17V882.797H2234.98V864.147H2251.76V851.103H2341.26V823.147H2352.43V763.758Z" fill="#C5D6FF"/>
<path d="M2056.65 875.322V847.366H1941.06V832.136H1829.63V813.635H1816.7V761.441H1808.81V735.372H1900.16V724.215H2013.89V707.434H2045.58V686.934H2077.15V659.388H2248.02V689.214H2279.72V719.039H2298.35V741.408H2326.33V771.233H2344.96V815.672H2333.78V843.628H2244.29V856.672H2227.52V875.322H2056.65Z" fill="#D6DFFC"/>
<path d="M1850.43 305.634H1826.75V286.591H1808.16V268.745H1795.11V248.45H1767.68V232.996H1734.81V219.896H1702.09V207.02H1653.86V199.62H1588.73V208.104H1536.8V227.053H1502.92V241.424H1461.82V233.855H1396.7V239.91H1373.56V253.533H1364.48V271.716H1352.37V292.927H1364.48V311.11H1356.91V329.292H1347.83V345.962H1337.23V367.172H1369.81V377.768H1406.28V389.429H1457.97V401.987H1512.6V409.574H1577.72V396.418H1616.95V384.308H1656.32V370.386H1702.76V359.118H1743.72V368.723H1808.85V347.513H1801.17V347.457H1841.25V326.844H1850.47V305.634H1850.43Z" fill="#C5D6FF"/>
<path d="M1520.02 402.08V394.493H1465.39V381.916H1413.7V370.274H1377.22V359.66H1344.65V353.399H1355.25V336.749H1364.35V318.566H1371.92V285.452H1359.81V279.191H1371.92V261.008H1381V247.385H1404.13V241.33H1454.31V248.899H1510.37V234.528H1544.23V215.579H1596.19V207.095H1646.36V214.495H1694.59V227.371H1727.32V240.489H1760.19V255.944H1787.62V276.239H1800.68V294.085H1819.28V313.109H1842.95V319.369H1833.74V339.982H1793.66V354.932L1801.34 354.969V361.229H1751.14V351.624H1695.23V362.874H1648.79V376.815H1609.42V388.924H1570.19V402.08H1520.02Z" fill="#D6DFFC"/>
<path d="M15.9519 113.62H-7.72512V94.5775H-26.3192V76.7309H-39.3631V56.4363H-66.7963V40.9817H-99.6676V27.8818H-132.389V15.0061H-180.622V7.60583H-245.748V16.09H-297.68V35.0391H-331.561V49.4098H-372.655V41.8413H-437.818V47.8961H-460.953V61.5193H-470.035V79.7022H-482.145V100.913H-470.035V119.095H-477.604V137.278H-486.686V153.948H-497.3V175.158H-464.728V185.754H-428.25V197.415H-376.56V209.973H-321.937V217.56H-256.811V204.404H-217.586V192.294H-178.211V178.372H-131.773V167.122H-90.8098V176.728H-25.6838V155.517H-33.3644V155.461H6.72028V134.849H15.9333V113.639L15.9519 113.62Z" fill="#C5D6FF"/>
<path d="M-314.462 210.048V202.46H-369.085V189.902H-420.775V178.241H-457.253V167.646H-489.825V161.385H-479.229V144.716H-470.129V126.552H-462.56V93.4188H-474.688V87.1585H-462.56V68.9943H-453.478V55.3524H-430.343V49.2976H-380.167V56.8848H-324.104V42.5141H-290.243V23.5649H-238.31V15.0621H-188.116V22.4811H-139.883V35.3568H-107.161V48.4567H-74.2899V63.9299H-46.8567V84.2246H-33.7941V102.052H-15.2188V121.095H8.47697V127.355H-0.735949V147.949H-40.8206V162.899L-33.1588 162.955V169.215H-83.3347V159.591H-139.248V170.86H-185.686V184.782H-225.061V196.91H-264.286V210.048H-314.462Z" fill="#D6DFFC"/>
<path d="M1260.75 974.796H1281.68V991.615H1298.1V1007.39H1309.63V1025.33H1333.87V1038.99H1362.93V1050.57H1391.86V1061.95H1434.48V1068.5H1492.04V1060.98H1537.94V1044.24H1567.87V1031.53H1604.2V1038.22H1661.76V1032.88H1682.2V1020.82H1690.24V1004.75H1700.95V986.008H1690.24V969.937H1696.93V953.866H1704.97V939.14H1714.33V920.397H1685.55V911.034H1653.29V900.737H1607.62V889.637H1559.35V882.928H1501.8V894.552H1467.13V905.26H1432.33V917.575H1391.3V927.517H1355.08V919.032H1297.52V937.776H1304.31V937.813H1268.87V956.034H1260.73V974.777L1260.75 974.796Z" fill="#C5D6FF"/>
<path d="M1441.96 1061.02V1054.48H1399.33V1043.1H1370.42V1031.51H1341.36V1017.85H1317.11V999.912H1305.58V984.14H1289.15V967.321H1268.22V963.546H1276.37V945.326H1311.78V930.376L1305 930.339V926.545H1347.6V935.029H1398.77V925.087H1439.81V912.772H1474.6V902.064H1509.27V890.441H1551.88V897.15H1600.17V908.25H1645.84V918.565H1678.07V927.928H1706.85V931.721H1697.49V946.447H1689.45V962.5H1682.76V993.521H1693.47V997.314H1682.76V1013.37H1674.73V1025.42H1654.28V1030.77H1611.68V1024.08H1560.4V1036.78H1530.46V1053.53H1484.56V1061.02H1441.96Z" fill="#D6DFFC"/>
<path d="M2391.08 1230.33H2367.4V1211.29H2348.81V1193.44H2335.76V1173.15H2308.33V1157.69H2275.46V1144.59H2242.74V1131.71H2194.5V1124.31H2129.38V1132.8H2077.44V1151.75H2043.56V1166.12H2002.47V1158.55H1937.34V1164.6H1914.21V1178.23H1905.13V1196.41H1893.02V1217.62H1905.13V1235.8H1897.56V1253.99H1888.48V1270.66H1877.88V1291.87H1910.45V1302.46H1946.93V1314.12H1998.62V1326.68H2053.24V1334.27H2118.37V1321.11H2157.6V1309H2196.97V1295.08H2243.41V1283.83H2284.37V1293.44H2349.5V1272.23H2341.82V1272.17H2381.9V1251.56H2391.11V1230.35L2391.08 1230.33Z" fill="#C5D6FF"/>
<path d="M2060.66 1326.78V1319.19H2006.04V1306.61H1954.35V1294.97H1917.87V1284.35H1885.3V1278.11H1895.91V1261.44H1905V1243.26H1912.57V1210.15H1900.46V1203.89H1912.57V1185.72H1921.65V1172.08H1944.78V1166.03H1994.96V1173.59H2051.02V1159.22H2084.88V1140.27H2136.83V1131.79H2187.01V1139.19H2235.24V1152.08H2267.96V1165.18H2300.84V1180.64H2328.27V1200.93H2341.33V1218.78H2359.92V1237.82H2383.6V1244.06H2374.39V1264.68H2334.3V1279.63L2341.98 1279.66V1285.92H2291.79V1276.32H2235.88V1287.57H2189.44V1301.51H2150.06V1313.62H2110.84V1326.78H2060.66Z" fill="#D6DFFC"/>
<path d="M192.493 602.205H207.574V614.333H219.403V625.695H227.719V638.627H245.192V648.475H266.122V656.828H286.959V665.032H317.662V669.741H359.13V664.341H392.206V652.268H413.772V643.112H439.953V647.933H481.421V644.083H496.146V635.412H501.94V623.845H509.657V610.334H501.94V598.766H506.761V587.199H512.554V576.584H519.3V563.073H498.557V556.327H475.328V548.908H442.42V540.91H407.642V536.07H366.175V544.442H341.19V552.159H316.111V561.036H286.547V568.212H260.46V562.101H218.992V575.612H223.888V575.65H198.361V588.768H192.493V602.279V602.205Z" fill="#C5D6FF"/>
<path d="M325.155 662.248V657.52H294.433V649.316H273.596V640.981H252.666V631.133H235.193V618.201H226.878V606.839H215.048V594.73H205.835V583.05H231.363V569.52H253.003V575.631H294.04V568.474H323.604V559.597H348.683V551.879H373.649V543.507H400.185V548.347H434.963V556.346H467.872V563.764H491.1V570.511H505.078V579.686H499.304V591.254H494.482V627.9H488.689V636.59H473.964V640.439H447.427V635.618H406.315V644.775H384.75V656.828H351.673V662.248H325.155Z" fill="#D6DFFC"/>
<path d="M571.924 1176.51H547.967V1147.17H530.569V1123.98H505.864V1108.49H462.378V1091.09H425.657V1077.56H371.538V1067.9H284.566V1085.31H242.762V1098.62H216.712V1112.84H199.314V1092.83H112.342V1110.07H84.0307V1144.53H54.8408V1159.99V1179.31V1181.74H38.9004V1216.52H52.7478V1250.89H91.9168V1263.03H160.668V1274.51H236.67V1287.79H323.642V1274.26H362.306V1258.81H418.35V1242.7H444.494V1253.03H531.466V1233.71H556.6V1211.29H571.924V1176.51Z" fill="#C5D6FF"/>
<path d="M244.145 1280.32V1267.03H168.143V1255.56H99.3919V1243.41H60.2229V1209.04H46.3755V1189.22H62.3159V1152.01H91.5058V1117.55H119.817V1100.3H191.839V1120.32H224.187V1106.09H250.237V1092.79H292.041V1075.37H364.063V1085.03H418.182V1098.56H454.903V1115.96H498.389V1131.45H523.094V1154.64H540.492V1183.98H564.449V1203.81H549.125V1226.24H523.991V1245.56H451.969V1235.23H410.875V1251.33H354.831V1266.79H316.167V1280.32H244.145Z" fill="#D6DFFC"/>
<path d="M993.85 1316.74H1010.41V1337H1022.4V1353.01H1039.47V1363.7H1069.5V1375.72H1094.87V1385.06H1132.25V1391.73H1192.31V1379.7H1221.18V1370.52H1239.18V1360.69H1251.2V1374.52H1311.26V1362.6H1330.8V1338.81H1350.97V1328.14V1314.8V1313.11H1361.98V1289.08H1352.41V1265.35H1325.37V1256.98H1277.88V1249.05H1225.39V1239.88H1165.33V1249.22H1138.62V1259.89H1099.92V1271.01H1081.85V1263.87H1021.79V1277.22H1004.45V1292.71H993.85V1316.74Z" fill="#C5D6FF"/>
<path d="M1139.72 1384.26V1377.59H1102.35V1368.24H1076.99V1356.23H1046.94V1345.54H1029.88V1329.52H1017.88V1309.26H1001.33V1300.18H1011.92V1284.69H1029.26V1271.35H1074.37V1278.49H1107.4V1267.37H1146.1V1256.7H1172.8V1247.35H1217.91V1256.53H1270.41V1264.45H1317.89V1272.82H1344.93V1296.58H1354.5V1305.64H1343.49V1331.33H1323.33V1355.12H1303.78V1367.05H1258.67V1353.22H1231.7V1363.05H1213.71V1372.22H1184.84V1384.26H1139.72Z" fill="#D6DFFC"/>
<path d="M469.348 1495.71H485.905V1515.97H497.921V1531.98H514.983V1542.67H545.014V1554.69H570.373V1564.03H607.748V1570.7H667.809V1558.67H696.7V1549.49H714.678V1539.66H726.694V1553.49H786.755V1541.59H806.321V1517.78H826.485V1507.11V1493.77V1492.08H837.492V1468.07H827.924V1444.34H800.864V1435.95H753.398V1428.02H700.905V1418.85H640.825V1428.19H614.139V1438.86H575.418V1449.98H557.366V1442.84H497.305V1456.2H479.944V1471.68H469.348V1495.71Z" fill="#C5D6FF"/>
<path d="M615.223 1563.23V1556.56H577.848V1547.21H552.489V1535.2H522.458V1524.51H505.396V1508.49H493.38V1488.24H476.823V1479.15H487.419V1463.68H504.78V1450.32H549.891V1457.46H582.894V1446.34H621.614V1435.67H648.3V1426.32H693.43V1435.5H745.923V1443.42H793.389V1451.81H820.449V1475.55H830.017V1484.61H819.01V1510.31H798.846V1534.11H779.28V1546.02H734.169V1532.19H707.203V1542.02H689.225V1551.19H660.334V1563.23H615.223Z" fill="#D6DFFC"/>
<path d="M993.85 19.1734H1010.41V39.4306H1022.4V55.4458H1039.47V66.1538H1069.5V78.1698H1094.87V87.5136H1132.25V94.185H1192.31V82.1503H1221.18V72.956H1239.18V63.1264H1251.2V76.9551H1311.26V65.0512H1330.8V41.262H1350.97V30.5728V17.2299V15.5667H1361.98V-8.46542H1352.41V-32.1985H1325.37V-40.5892H1277.88V-48.5127H1225.39V-57.6883H1165.33V-48.3445H1138.62V-37.674H1099.92V-26.5362H1081.85V-33.6749H1021.79V-20.332H1004.45V-4.85873H993.85V19.1734Z" fill="#C5D6FF"/>
<path d="M1139.72 86.71V80.0386H1102.35V70.6948H1076.99V58.6788H1046.94V47.9708H1029.88V31.9556H1017.88V11.6984H1001.33V2.61625H1011.92V-12.857H1029.26V-26.1999H1074.37V-19.0613H1107.4V-30.199H1146.1V-40.8696H1172.8V-50.2133H1217.91V-41.0378H1270.41V-33.1143H1317.89V-24.7236H1344.93V-0.99044H1354.5V8.09169H1343.49V33.787H1323.33V57.5762H1303.78V69.4801H1258.67V55.6514H1231.7V65.481H1213.71V74.6753H1184.84V86.71H1139.72Z" fill="#D6DFFC"/>
</g>
</g>
<defs>
<linearGradient id="paint0_linear_36_40" x1="1022.67" y1="1610.34" x2="1022.67" y2="-40.1968" gradientUnits="userSpaceOnUse">
<stop stop-color="#CCDBFF"/>
<stop offset="0.4" stop-color="#C9D9FF"/>
<stop offset="0.61" stop-color="#C1D3FF"/>
<stop offset="0.78" stop-color="#B4C8FF"/>
<stop offset="0.93" stop-color="#A0B9FF"/>
<stop offset="1" stop-color="#94B0FF"/>
</linearGradient>
<clipPath id="clip0_36_40">
<rect width="1920" height="1495" fill="white"/>
</clipPath>
</defs>
</svg>
