<svg width="60" height="60" viewBox="0 0 60 60" fill="none" xmlns="http://www.w3.org/2000/svg">
<g clip-path="url(#clip0_25_616)">
<path opacity="0.5" d="M19.8331 37.7488C19.8331 37.7488 30.3128 31.7903 41.2978 30.4531C52.2827 29.1208 59.7451 31.1659 59.9954 33.742C60.2456 36.323 37.3534 41.3917 19.8285 37.7438L19.8331 37.7488Z" fill="#8DD0FD"/>
<path opacity="0.5" d="M20.9177 37.9454C20.9177 37.9454 29.8957 29.6714 40.3244 25.7876C50.7578 21.9037 58.4612 22.1446 59.2445 24.6027C60.0278 27.0609 38.7671 37.385 20.9131 37.9454H20.9177Z" fill="#8DD0FD"/>
<path opacity="0.5" d="M17 40.003C17 40.003 21.2887 27.0426 29.02 17.4716C36.7464 7.90062 43.938 3.81183 45.8343 5.72173C47.7258 7.637 33.1287 29.4529 17.0049 40.003H17Z" fill="#8DD0FD"/>
<path opacity="0.5" d="M18 41.0557C18 41.0557 18.9194 27.5659 24.0832 16.2426C29.242 4.91931 35.2705 -1.07444 37.6213 0.159104C39.9671 1.39792 31.1703 26.3007 18.005 41.0505L18 41.0557Z" fill="#8DD0FD"/>
<path d="M16.4264 43.894C16.3476 43.9383 16.2874 43.9678 16.2271 43.9973L16.0417 44.0907L15.6709 44.2923C15.4253 44.4299 15.1796 44.5725 14.9386 44.7151C14.4519 45.01 13.9745 45.3198 13.5064 45.6491C13.0382 45.9785 12.584 46.3325 12.1391 46.7012C11.6941 47.0699 11.2723 47.4731 10.8598 47.886L10.8505 47.8959C10.6976 48.0483 10.4565 48.0434 10.3129 47.8811C10.1924 47.7435 10.1784 47.5419 10.2665 47.3895C10.5817 46.8536 10.9108 46.3178 11.2769 45.8114C11.6385 45.305 12.0185 44.8085 12.4218 44.3316C12.825 43.8547 13.2422 43.3926 13.6732 42.9403C13.8911 42.7142 14.1089 42.4929 14.336 42.2766C14.4473 42.1684 14.5632 42.0603 14.679 41.9521L14.8552 41.7899C14.9154 41.7358 14.9757 41.6817 15.0174 41.6424C15.5365 41.1311 16.3476 41.1655 16.8297 41.7162C17.3117 42.2668 17.2793 43.1271 16.7601 43.6384C16.6767 43.722 16.584 43.7908 16.482 43.8449L16.4218 43.8793L16.4264 43.894Z" fill="#252E4B"/>
<path d="M10.9849 47.7533C11.0776 48.0581 11.1842 48.3727 11.2954 48.6825C11.4067 48.9922 11.5272 49.297 11.6523 49.5969C11.9072 50.2016 12.19 50.7915 12.5191 51.3422C12.5886 51.4651 12.5561 51.6224 12.4449 51.6961C12.3383 51.7699 12.1946 51.7404 12.1205 51.6322C11.7311 51.0767 11.3974 50.4867 11.0915 49.882C10.9385 49.5821 10.7948 49.2724 10.6558 48.9627C10.5167 48.653 10.387 48.3432 10.2618 48.0139C10.183 47.8074 10.2757 47.5763 10.4704 47.4927C10.6651 47.4092 10.8829 47.5075 10.9617 47.714C10.9617 47.7238 10.9663 47.7336 10.971 47.7385L10.9849 47.7533Z" fill="#252E4B"/>
<path d="M47.6709 51.9813C46.3175 54.7737 43.8795 55.9683 38.2016 55.285C37.1912 55.1621 36.0741 54.9802 34.8412 54.7393C34.7068 54.7147 34.5724 54.6852 34.438 54.6557C32.0927 54.1444 29.9652 53.2595 28.19 52.1337C27.1842 51.4995 26.2943 50.7866 25.5342 50.0295C23.7404 48.2302 22.7068 46.1555 22.7439 44.1546C22.7578 43.4565 22.9015 42.7732 23.1842 42.1045C24.5654 38.8795 28.051 38.7762 31.6384 40.4429C32.1761 40.6936 32.7138 40.9787 33.2468 41.3032C33.6315 41.5392 34.0208 41.7604 34.4102 41.9718C35.7219 42.6797 37.0336 43.25 38.2943 43.7072C39.6292 44.1939 40.9038 44.5479 42.0579 44.8036C42.9154 44.9953 43.708 45.128 44.4032 45.2165C46.0857 45.4328 47.5179 46.6668 48.0278 48.3432C48.3569 49.4248 48.3012 50.6883 47.6755 51.9763L47.6709 51.9813Z" fill="#7688B6"/>
<path d="M35.5968 47.709C34.4148 51.1996 30.9571 52.4876 28.19 52.1337C27.1842 51.4995 26.2943 50.7866 25.5342 50.0295C27.8517 50.6834 30.7207 50.2606 32.3244 46.5537C33.5156 43.7957 32.5052 41.6326 31.6385 40.4429C32.1761 40.6936 32.7138 40.9787 33.2468 41.3032C33.6315 41.5392 34.0209 41.7604 34.4102 41.9718C35.6107 43.3139 36.4403 45.2116 35.5968 47.709Z" fill="#394872"/>
<path d="M43.1425 49.8476C42.7856 52.8809 40.7462 54.7294 38.2016 55.285C37.1912 55.1621 36.0741 54.9802 34.8412 54.7393C34.7068 54.7147 34.5724 54.6852 34.438 54.6557C36.5933 54.3804 39.0591 53.2742 39.8748 49.3117C40.38 46.8438 39.3974 44.9658 38.2943 43.7121C39.6292 44.1989 40.9038 44.5528 42.0579 44.8085C42.9988 46.0326 43.4021 47.6648 43.1425 49.8476Z" fill="#394872"/>
<g style="mix-blend-mode:multiply">
<path d="M47.6709 51.9813C46.3175 54.7737 43.8795 55.9683 38.2016 55.285C37.1912 55.1621 36.0741 54.9802 34.8412 54.7393C34.7068 54.7147 34.5724 54.6852 34.438 54.6557C32.0927 54.1444 29.9652 53.2595 28.19 52.1337C27.1842 51.4995 26.2943 50.7866 25.5342 50.0295C23.7404 48.2302 22.7068 46.1555 22.7439 44.1546L24.6952 42.2864C24.6952 42.2864 30.2294 51.8043 40.6257 53.1366C46.8551 53.9379 48.0602 50.9046 48.0231 48.3482C48.3522 49.4297 48.2966 50.6932 47.6709 51.9813Z" fill="#B09DC2"/>
</g>
<path d="M21.0335 47.709C16.8528 48.8349 12.6581 46.3866 11.6662 42.2422C11.4901 41.5048 11.4252 40.7624 11.4669 40.0348C11.6477 36.6819 14.0069 33.629 17.4461 32.7047C20.5422 31.8689 23.6477 32.9997 25.4553 35.3251C26.0857 36.1362 26.5538 37.0949 26.8134 38.1716C27.8053 42.3159 25.2143 46.5832 21.0335 47.709Z" fill="#394872"/>
<g style="mix-blend-mode:multiply">
<path d="M21.0335 47.709C16.8528 48.8349 12.6581 46.3866 11.6662 42.2422C11.4901 41.5048 11.4252 40.7624 11.4669 40.0348L13.7103 39.9709C13.7103 39.9709 15.3047 46.3767 21.7612 44.5086C26.4194 43.1615 26.7995 38.3436 25.4553 35.3251C26.0857 36.1362 26.5538 37.0949 26.8134 38.1716C27.8053 42.3159 25.2143 46.5832 21.0335 47.709Z" fill="#B09DC2"/>
</g>
<path d="M21.2561 34.6368C21.0383 39.0221 18.0626 42.0062 11.7822 41.9866C10.7996 41.9866 9.73814 41.9079 8.5933 41.7506C5.14023 41.2786 2.95251 39.8332 1.84011 38.2207C0.389356 36.1264 0.750886 33.7617 2.47974 32.9112C2.68368 32.8079 2.90152 32.7293 3.14254 32.6752C3.14254 32.6752 2.47047 21.3826 11.6107 21.9136C13.4461 22.0217 14.9432 22.3904 16.1622 22.9607C21.0151 25.2222 21.4554 30.5809 21.2561 34.6319V34.6368Z" fill="#7688B6"/>
<path opacity="0.5" d="M14.7809 40.7722C16.2733 40.7722 17.4831 39.489 17.4831 37.9061C17.4831 36.3231 16.2733 35.0399 14.7809 35.0399C13.2886 35.0399 12.0787 36.3231 12.0787 37.9061C12.0787 39.489 13.2886 40.7722 14.7809 40.7722Z" fill="#F783BD"/>
<path opacity="0.5" d="M3.89805 35.4381C3.89805 36.7852 3.02203 37.9159 1.84011 38.2207C0.389356 36.1264 0.750886 33.7617 2.47974 32.9112C3.32331 33.3979 3.89805 34.3418 3.89805 35.4332V35.4381Z" fill="#F783BD"/>
<path d="M7.38814 36.8393C7.32789 36.8393 7.26764 36.8393 7.20738 36.8245C6.12279 36.6721 6.10889 35.1677 6.10889 35.1038C6.10889 35.0006 6.18768 34.917 6.28502 34.917C6.38235 34.917 6.46115 35.0006 6.46115 35.1038C6.46115 35.1137 6.47505 36.3427 7.2491 36.4509C8.06022 36.5639 8.63959 35.5512 8.64423 35.5414C8.69521 35.4529 8.80645 35.4234 8.88988 35.4725C8.97331 35.5266 9.00112 35.6397 8.95477 35.7331C8.92696 35.7823 8.32905 36.8393 7.38814 36.8393Z" fill="#E28DAD"/>
<g style="mix-blend-mode:multiply">
<path d="M21.256 34.6368C21.0382 39.0221 18.0625 42.0062 11.7821 41.9865C16.9362 41.4949 19.7311 38.909 20.1668 32.8571C20.5422 27.641 17.8771 24.4503 16.1668 22.9656C21.0196 25.2271 21.46 30.5858 21.2607 34.6368H21.256Z" fill="#B09DC2"/>
</g>
<path d="M18.6975 30.4137C18.6975 33.6339 15.6245 36.2395 12.8667 36.2395C11.6801 36.2395 10.7439 35.7528 10.0625 34.9416C9.16797 33.8748 8.71375 32.2426 8.71375 30.4088C8.71375 27.1936 10.9478 24.5831 13.7056 24.5831C15.2908 24.5831 16.6998 25.4434 17.6129 26.7905C18.2896 27.7836 18.6929 29.0421 18.6929 30.4088L18.6975 30.4137Z" fill="#1F4382"/>
<path d="M7.42063 29.2093C7.42063 32.0115 6.38239 34.2779 4.33372 34.2779C3.34647 34.2779 2.30359 33.7519 1.48783 32.8915C0.611819 31.9673 0 30.6596 0 29.2093C0 26.4119 1.65933 24.1406 3.71263 24.1406C4.49594 24.1406 5.22364 24.4749 5.82155 25.0403C6.79027 25.9547 7.42063 27.4837 7.42063 29.2093Z" fill="#1F4382"/>
<path d="M11.0683 26.6331C13.2375 24.7207 15.0081 26.2349 14.7578 28.3243C14.5075 30.4137 11.9907 33.6584 10.6048 33.2602C9.21898 32.862 9.09383 28.3686 11.0683 26.6331Z" fill="white"/>
<path d="M1.38583 26.0088C2.65582 24.1357 4.13902 24.9469 4.48664 26.2743C4.90379 27.877 3.27227 31.3429 1.71955 31.4314C0.166829 31.5199 0.208544 27.7393 1.38583 26.0039V26.0088Z" fill="white"/>
<g style="mix-blend-mode:multiply">
<path d="M18.6976 30.4137C18.6976 33.6339 15.6246 36.2395 12.8668 36.2395C11.6802 36.2395 10.744 35.7528 10.0626 34.9416C11.226 35.5905 12.9178 35.8167 15.1287 34.2779C18.4288 31.9869 18.0812 28.5554 17.613 26.7905C18.2897 27.7835 18.693 29.0421 18.693 30.4088L18.6976 30.4137Z" fill="#B09DC2"/>
</g>
<g style="mix-blend-mode:multiply">
<path d="M7.42059 29.2093C7.42059 32.0115 6.38235 34.2779 4.33368 34.2779C3.34643 34.2779 2.30355 33.7519 1.48779 32.8915C2.85512 33.4913 5.23287 33.9436 6.33136 30.63C7.15176 28.1621 6.57238 26.2792 5.82151 25.0354C6.79023 25.9498 7.42059 27.4787 7.42059 29.2043V29.2093Z" fill="#B09DC2"/>
</g>
<path d="M13.752 23.4769C14.0069 23.4769 13.2931 18.4968 12.9131 16.8498C12.5376 15.2029 11.8238 13.5166 10.1877 14.2688C8.55152 15.0259 12.7879 18.4034 13.0799 20.1831C13.3719 21.9627 13.3302 23.472 13.752 23.472V23.4769Z" fill="#1F4382"/>
<path d="M8.2549 23.3983C8.50519 23.3442 6.84123 18.6246 6.15525 17.0957C5.46927 15.5667 4.44493 14.0673 2.98955 15.1636C1.53416 16.2599 6.33138 18.6443 6.96637 20.3256C7.59673 22.0021 7.84702 23.4917 8.25953 23.3983H8.2549Z" fill="#1F4382"/>
<path d="M33.0939 49.9902C33.1125 50.236 33.1449 50.5064 33.1773 50.7669C33.2098 51.0275 33.2422 51.293 33.2793 51.5585C33.3488 52.0845 33.4323 52.6105 33.5203 53.1317C33.613 53.6528 33.7104 54.1739 33.8355 54.6803C33.956 55.1866 34.0951 55.693 34.2758 56.165V56.1797C34.3593 56.3862 34.2666 56.6222 34.0719 56.7058C33.9189 56.7746 33.7428 56.7254 33.6408 56.5976C33.2793 56.1601 32.9734 55.693 32.6814 55.2211C32.3894 54.7491 32.1206 54.2624 31.861 53.7757C31.6014 53.289 31.3558 52.7924 31.1148 52.2959C30.9943 52.0452 30.8784 51.7944 30.7625 51.5437C30.6466 51.2881 30.5354 51.0423 30.4195 50.7719L30.4056 50.7374C30.0904 49.9853 30.4056 49.1003 31.1148 48.766C31.8239 48.4317 32.6582 48.766 32.9734 49.5182C33.0383 49.6706 33.0754 49.8378 33.0893 49.9951L33.0939 49.9902Z" fill="#252E4B"/>
<path d="M34.3685 56.3174C34.5585 56.6025 34.7578 56.8926 34.9618 57.1777C35.1611 57.4628 35.3696 57.7431 35.5782 58.0233C35.7868 58.3035 36 58.5739 36.2225 58.8345C36.4403 59.095 36.6721 59.3556 36.9131 59.5621H36.9177C37.0151 59.6506 37.0336 59.803 36.9502 59.9111C36.876 60.0095 36.737 60.0291 36.6396 59.9554C36.3384 59.7342 36.0881 59.4834 35.8378 59.2278C35.5921 58.9721 35.3511 58.7116 35.1193 58.4412C34.8876 58.1757 34.6605 57.9053 34.4334 57.63C34.2109 57.3547 33.9884 57.0794 33.7706 56.7992C33.6361 56.6271 33.664 56.3764 33.8215 56.2338C33.9838 56.0912 34.2202 56.1207 34.3546 56.2879C34.3592 56.2928 34.3638 56.3026 34.3685 56.3125V56.3174Z" fill="#252E4B"/>
<path d="M40.9224 50.7964C40.9641 51.0275 41.0243 51.293 41.08 51.5437C41.1402 51.7994 41.2005 52.055 41.2654 52.3057C41.3951 52.8121 41.5388 53.3185 41.6964 53.815C41.8586 54.3115 42.0255 54.8081 42.2294 55.28C42.4287 55.752 42.6512 56.219 42.9154 56.6418L42.9247 56.6566C43.0406 56.8434 42.9942 57.0941 42.8181 57.217C42.6744 57.3203 42.489 57.3006 42.3638 57.1875C41.9421 56.8139 41.5759 56.3911 41.2236 55.9585C40.876 55.5209 40.5608 55.0686 40.2503 54.6065C39.9444 54.1444 39.657 53.6675 39.3743 53.1906C39.2352 52.9497 39.0962 52.7089 38.9664 52.463C38.832 52.2123 38.7022 51.9763 38.5678 51.701L38.5492 51.6666C38.2294 51.0078 38.4705 50.1967 39.0915 49.8574C39.7126 49.5182 40.4774 49.7739 40.7972 50.4326C40.8528 50.5506 40.8946 50.6785 40.9177 50.7964H40.9224Z" fill="#252E4B"/>
<path d="M42.9663 56.6959C43.1888 56.9417 43.4206 57.1875 43.657 57.4235C43.8933 57.6644 44.1297 57.9004 44.3708 58.1265C44.6118 58.3527 44.8574 58.5788 45.1124 58.7902C45.3673 59.0016 45.6222 59.2032 45.891 59.3802C45.993 59.449 46.0254 59.5916 45.9652 59.6997C45.9049 59.803 45.7798 59.8374 45.6778 59.7833C45.3719 59.6162 45.0845 59.4293 44.8064 59.2327C44.5283 59.036 44.2595 58.8247 43.9907 58.6133C43.7219 58.4019 43.4623 58.1806 43.2074 57.9545C42.9478 57.7283 42.6975 57.5071 42.4426 57.2662C42.285 57.1187 42.2711 56.868 42.4101 56.7008C42.5492 56.5337 42.7856 56.5189 42.9432 56.6664C42.9524 56.6713 42.9571 56.6812 42.9663 56.6861V56.6959Z" fill="#252E4B"/>
<path d="M22.6373 44.5971C22.3128 45.0838 21.9837 45.6 21.6639 46.1113C21.3441 46.6226 21.0289 47.1388 20.723 47.6599C20.4171 48.181 20.1205 48.707 19.8424 49.238C19.5643 49.769 19.3001 50.3097 19.1147 50.8456L19.1054 50.8702C19.0312 51.0816 18.8134 51.1848 18.6187 51.1111C18.4611 51.0472 18.3638 50.8849 18.3684 50.7178C18.3916 50.0393 18.4982 49.4052 18.6187 48.771C18.7392 48.1417 18.8737 47.5173 19.022 46.9028C19.1703 46.2833 19.3233 45.6737 19.4855 45.0592C19.6523 44.4447 19.8146 43.8449 20 43.2205V43.2107C20.2503 42.3799 21.0892 41.9177 21.8725 42.1783C22.6558 42.4388 23.0915 43.3287 22.8458 44.1595C22.7995 44.3168 22.7253 44.4693 22.6419 44.5971H22.6373Z" fill="#252E4B"/>
<path d="M19.1472 50.8161C19.3326 51.4601 19.5319 52.1091 19.7451 52.7531C19.8517 53.0727 19.963 53.3922 20.0788 53.7069C20.1994 54.0215 20.3245 54.3312 20.4728 54.6114C20.5099 54.6852 20.4867 54.7737 20.4218 54.813C20.3616 54.8474 20.2874 54.8327 20.2457 54.7737C20.0418 54.4836 19.8795 54.1837 19.7173 53.8838C19.5597 53.579 19.4114 53.2742 19.2631 52.9645C18.9711 52.3451 18.6976 51.7256 18.4288 51.0963C18.3454 50.8948 18.4288 50.6588 18.6188 50.5654C18.8089 50.4769 19.0313 50.5654 19.1194 50.7669C19.124 50.7817 19.1287 50.7964 19.1333 50.8112L19.1472 50.8161Z" fill="#252E4B"/>
</g>
<defs>
<clipPath id="clip0_25_616">
<rect width="60" height="60" fill="white"/>
</clipPath>
</defs>
</svg>
