<svg width="60" height="60" viewBox="0 0 60 60" fill="none" xmlns="http://www.w3.org/2000/svg">
<g clip-path="url(#clip0_24_39)">
<g opacity="0.7">
<path d="M51.2898 53.1643C49.3979 54.4619 44.0831 56.1653 41.7508 50.6041C41.6333 50.3235 41.5159 50.0379 41.4026 49.7473C39.3891 44.6621 37.8873 38.4094 37.644 38.0036C37.9922 37.9585 41.0544 37.5927 44.4942 38.0837C48.1688 38.6098 52.284 40.1128 53.9955 44.0358C56.0761 48.7704 53.1817 51.8666 51.2898 53.1643Z" fill="#FFB0D6"/>
<path d="M51.2814 53.1693C49.3895 54.4669 44.0747 56.1603 41.7423 50.5941C41.6249 50.3135 41.5074 50.0279 41.3942 49.7373C44.8297 54.1663 47.2417 50.7895 45.891 46.12C47.6151 48.8906 51.3107 50.569 52.1413 47.8385C53.4627 42.0468 48.5086 39.3212 44.4941 38.0787C48.1688 38.6098 52.2797 40.1179 53.987 44.0408C56.0634 48.7804 53.1648 51.8716 51.273 53.1643L51.2814 53.1693Z" fill="#AA5BD8"/>
</g>
<g opacity="0.7">
<path d="M31.8594 54.3817C31.5196 55.8246 30.9617 57.1223 30.0976 58.1343C25.4833 63.5353 18.0333 56.015 19.9839 50.7193C21.0787 47.7483 24.2878 44.4817 26.9011 42.182C28.9482 40.3784 30.6261 39.1709 30.6261 39.1709C30.6261 39.1709 33.3234 48.1291 31.8552 54.3817H31.8594Z" fill="#FFB0D6"/>
<path d="M31.8594 54.3817C31.5196 55.8246 30.9617 57.1223 30.0976 58.1343C25.4833 63.5352 18.0333 56.015 19.9839 50.7193C21.0787 47.7483 24.2878 44.4817 26.9011 42.182C24.2374 45.2282 21.02 50.1081 22.7357 54.532C24.1535 57.3928 27.0815 54.1062 27.0815 54.1062C27.0815 54.1062 26.7291 57.0722 28.8559 57.3928C30.1186 57.5782 31.1924 55.8347 31.8594 54.3817Z" fill="#AA5BD8"/>
</g>
<g opacity="0.7">
<path d="M34.67 37.3021C34.67 37.3021 34.6449 22.7026 40.3414 13.7595C46.0338 4.81639 49.9727 3.26826 53.3538 4.79635C56.7348 6.32445 55.9462 16.7004 50.4845 20.7436C54.4235 19.7717 57.083 22.8429 54.7548 26.4001C52.4309 29.9573 44.7166 33.3391 44.4733 33.3391C44.23 33.3391 34.67 37.3021 34.67 37.3021Z" fill="#FFB0D6"/>
<path d="M36.5199 37.3923C36.5199 37.3923 42.7073 34.5917 47.8501 33.1387C52.993 31.6858 55.4092 32.7379 55.1743 36.0045C54.9394 39.2711 51.1682 44.657 36.5199 37.3923Z" fill="#FFB0D6"/>
<path d="M57.4688 15.9289C58.9118 12.7575 61.7097 4.00976 58.5678 1.13394C55.4259 -1.74188 49.7209 0.963594 43.0595 7.98781C36.3982 15.017 34.5734 29.807 34.5734 30.0976C34.5734 30.0976 34.2672 32.1016 34.779 34.4364C35.081 29.7368 36.201 20.2577 40.3371 13.7595C46.0295 4.81639 49.9684 3.26826 53.3494 4.79635C56.7305 6.32445 55.9418 16.7005 50.4802 20.7436C54.4191 19.7717 57.0786 22.8429 54.7505 26.4001C52.4224 29.9573 44.7123 33.3391 44.469 33.3391C44.276 33.3391 38.0887 35.8843 35.6473 36.8963C36.1549 37.8833 36.8722 38.8252 37.8873 39.5968C59.4529 47.613 59.2641 33.2089 58.8572 29.7519C58.4503 26.2949 56.0257 19.1003 57.4688 15.9239V15.9289ZM55.17 36.0045C54.9351 39.2711 51.1639 44.657 36.5156 37.3923C36.5156 37.3923 42.703 34.5917 47.8458 33.1387C52.9887 31.6858 55.4049 32.7379 55.17 36.0045Z" fill="#AA5BD8"/>
</g>
<g opacity="0.7">
<path d="M32.6732 38.6298C32.6732 38.6298 25.4707 26.5153 17.2866 21.6254C9.1067 16.7355 5.85991 17.6975 4.4085 21.2897C2.95709 24.887 11.6823 30.5785 11.6823 30.5785C11.6823 30.5785 8.86759 29.6016 9.34161 34.276C9.81562 38.9505 24.2206 39.8924 32.6732 38.6298Z" fill="#FFB0D6"/>
<path d="M32.0608 39.6018C31.7923 39.672 12.7856 39.1058 11.9299 42.8835C11.0741 46.6561 21.0368 55.3337 32.0608 39.6018Z" fill="#FFB0D6"/>
<path d="M11.9298 42.8835C12.7017 39.4615 28.3819 39.6068 31.5196 39.6118C31.7378 39.2711 31.9265 38.9655 32.0776 38.715C23.5621 39.8473 9.80306 38.8453 9.33744 34.281C8.86342 29.6066 11.6781 30.5836 11.6781 30.5836C11.6781 30.5836 2.95292 24.892 4.40433 21.2948C5.85574 17.6975 9.10253 16.7355 17.2824 21.6304C24.5227 25.9592 30.9995 35.9444 32.3922 38.1839C32.5012 37.9936 32.56 37.8884 32.56 37.8884C32.56 37.8884 22.9412 19.1855 8.59076 14.5812C0.0459096 11.8406 -0.906314 16.7556 0.574458 20.924C2.05523 25.0924 3.85481 28.6697 6.20391 30.9543C8.55301 33.2389 8.86762 38.7301 8.97249 41.5758C9.07736 44.4216 10.5497 51.7364 18.4738 50.5089C21.8967 49.9828 24.9925 47.5529 27.4045 44.9627C18.4024 52.9388 11.2041 46.115 11.934 42.8835H11.9298Z" fill="#AA5BD8"/>
</g>
<path d="M39.5737 54.8677C38.3404 55.5641 36.4905 55.3136 34.5357 54.2515C32.4425 53.1142 30.2193 51.055 28.4952 48.2493C25.1561 42.8183 28.1386 38.8302 28.1386 38.8302L33.68 36.5406C33.68 36.5406 34.7329 36.3602 36.1507 37.1218C36.9142 37.5326 37.7825 38.214 38.6508 39.3363C41.1384 42.5628 42.1325 53.4198 39.5737 54.8627V54.8677Z" fill="#7688BA"/>
<g style="mix-blend-mode:multiply">
<path d="M39.5737 54.8677C38.3404 55.5641 36.4905 55.3136 34.5357 54.2515C38.3069 55.3637 39.8002 54.0461 39.3639 47.9086C38.869 40.9495 34.3218 39.2561 34.3218 39.2561L36.1549 37.1218C36.9184 37.5326 37.7867 38.214 38.655 39.3363C41.1426 42.5628 42.1367 53.4198 39.5779 54.8627L39.5737 54.8677Z" fill="#C9B2DE"/>
</g>
<path d="M33.2479 43.9606C30.7101 45.138 28.0547 44.7222 26.3936 43.1139C25.7853 42.5277 25.3113 41.7812 25.0219 40.8994C23.9438 37.5977 25.8818 33.6147 29.3467 32.0014C31.1547 31.1597 33.0214 31.1347 34.5483 31.7659C35.9452 32.3471 37.0568 33.4844 37.5686 35.0626C38.6467 38.3643 36.7087 42.3474 33.2437 43.9556L33.2479 43.9606Z" fill="#334471"/>
<g style="mix-blend-mode:multiply">
<path d="M33.2479 43.9606C30.71 45.138 28.0547 44.7222 26.3936 43.1139C29.8585 44.9075 34.2505 43.2141 35.0978 40.0176C36.0207 36.5406 34.3176 32.297 34.2463 32.0415L34.5525 31.7659C35.9494 32.3471 37.061 33.4844 37.5728 35.0626C38.6508 38.3643 36.7128 42.3474 33.2479 43.9556V43.9606Z" fill="#C9B2DE"/>
</g>
<path d="M36.8764 30.9393C36.9477 36.0296 34.3175 39.9325 29.5606 40.3583C28.0295 40.4936 26.532 40.1479 25.2945 39.4966C24.6695 39.1659 24.1115 38.7551 23.6543 38.2891C22.3371 36.9514 21.8547 35.1528 22.958 33.4494C23.0586 33.289 23.1761 33.1287 23.3103 32.9734C23.3103 32.9734 21.1794 24.7467 27.501 22.7928C29.1076 22.2968 30.4961 22.2517 31.679 22.5423C35.1523 23.389 36.826 27.1416 36.8806 30.9393H36.8764Z" fill="#7688BA"/>
<path d="M29.8417 25.0223C29.7788 25.0223 29.7158 24.9772 29.6907 24.9021C29.6655 24.8219 27.1444 16.8508 30.1227 9.64617C30.1605 9.55098 30.257 9.5109 30.3367 9.561C30.4164 9.60609 30.4499 9.72133 30.408 9.81652C27.4926 16.8658 29.9633 24.6866 29.9885 24.7668C30.0221 24.867 29.9801 24.9772 29.8962 25.0123C29.8752 25.0223 29.8585 25.0273 29.8375 25.0273L29.8417 25.0223Z" fill="#173E82"/>
<path d="M29.632 11.7655C30.7982 12.3366 33.5374 6.8455 32.4719 5.57292C31.4064 4.30035 28.0674 11.0039 29.632 11.7655Z" fill="#173E82"/>
<path d="M24.5647 26.0995C24.5227 26.0995 24.4808 26.0794 24.4514 26.0444C24.4011 25.9842 19.4302 19.8719 19.7616 11.8456C19.7658 11.7404 19.8413 11.6552 19.9294 11.6652C20.0175 11.6703 20.0846 11.7604 20.0804 11.8657C19.7574 19.7266 24.6318 25.7187 24.6779 25.7788C24.7408 25.854 24.7408 25.9742 24.6779 26.0494C24.6486 26.0844 24.6066 26.1045 24.5647 26.1045V26.0995Z" fill="#173E82"/>
<path d="M20.009 14.025C21.2675 13.995 21.9512 7.65214 20.5502 6.9908C19.1491 6.32946 18.3227 14.0651 20.009 14.025Z" fill="#173E82"/>
<path opacity="0.5" d="M34.5315 34.9273C34.5315 36.3803 33.5457 37.5577 32.3292 37.5577C31.1127 37.5577 30.127 36.3803 30.127 34.9273C30.127 33.4744 31.1127 32.297 32.3292 32.297C33.5457 32.297 34.5315 33.4744 34.5315 34.9273Z" fill="#FF84C2"/>
<path opacity="0.5" d="M24.7282 36.0296C24.7282 36.9915 24.2961 37.8332 23.6543 38.2892C22.3371 36.9514 21.8547 35.1528 22.958 33.4494C23.9689 33.6898 24.7282 34.752 24.7282 36.0296Z" fill="#FF84C2"/>
<path d="M27.2703 35.263C27.1444 35.263 27.0228 35.2229 26.9053 35.1478C26.4523 34.8422 26.2929 34.0305 26.2845 33.9955C26.2677 33.9003 26.318 33.8001 26.3977 33.78C26.4774 33.76 26.5613 33.8201 26.5781 33.9153C26.5781 33.9203 26.7165 34.6117 27.0521 34.8372C27.1696 34.9173 27.2996 34.9273 27.4506 34.8672C28.1218 34.6017 27.9918 33.5496 27.9876 33.5395C27.975 33.4393 28.0295 33.3491 28.1134 33.3341C28.1973 33.3191 28.2728 33.3842 28.2854 33.4844C28.3483 33.9554 28.2728 34.9223 27.5429 35.2129C27.4464 35.253 27.3542 35.268 27.2661 35.268L27.2703 35.263Z" fill="#EA8EB1"/>
<path d="M33.42 28.9853C33.7178 30.819 32.4048 32.6728 31.0079 32.9984C30.4039 33.1387 29.8879 32.9734 29.4684 32.5926C28.9147 32.0866 28.533 31.2098 28.3652 30.1677C28.0674 28.334 28.9567 26.5804 30.3494 26.2548C31.1506 26.0694 31.9476 26.3951 32.5349 27.0514C32.9711 27.5374 33.2899 28.2087 33.42 28.9903V28.9853Z" fill="#173E82"/>
<path d="M29.1999 27.7278C30.1228 26.38 31.1589 27.0364 31.226 28.2589C31.2931 29.4813 30.3199 31.6307 29.5816 31.5655C28.8433 31.5004 28.3609 28.9553 29.1999 27.7328V27.7278Z" fill="white"/>
<g style="mix-blend-mode:multiply">
<path d="M33.4199 28.9853C33.7177 30.819 32.4048 32.6728 31.0079 32.9984C30.4038 33.1387 29.8879 32.9734 29.4684 32.5926C30.1186 32.8281 30.9953 32.7529 31.9727 31.6156C33.4325 29.9172 32.9333 28.0033 32.5348 27.0514C32.9711 27.5374 33.2899 28.2087 33.4199 28.9903V28.9853Z" fill="#C9B2DE"/>
</g>
<path d="M26.2886 30.5986C26.6913 32.3622 26.4396 33.9754 25.2944 34.3512C24.7449 34.5315 24.0863 34.3913 23.5074 34.0005C22.8866 33.5796 22.3538 32.8682 22.1441 31.9563C21.7414 30.1978 22.3413 28.4643 23.4864 28.0885C23.9227 27.9432 24.3799 28.0234 24.7952 28.2689C25.4664 28.6697 26.0411 29.5114 26.2886 30.5986Z" fill="#173E82"/>
<path d="M22.4546 29.6867C22.8951 28.2789 23.8389 28.5144 24.2248 29.2909C24.6904 30.2228 24.2752 32.7028 23.4194 33.0385C22.5637 33.3792 22.0435 30.9894 22.4504 29.6867H22.4546Z" fill="white"/>
<g style="mix-blend-mode:multiply">
<path d="M26.2886 30.5986C26.6913 32.3621 26.4396 33.9754 25.2944 34.3512C24.7449 34.5315 24.0863 34.3913 23.5074 34.0005C24.359 34.1307 25.7517 33.9804 25.8859 31.6958C25.9866 29.9923 25.3951 28.9152 24.7953 28.2689C25.4664 28.6697 26.0411 29.5114 26.2886 30.5986Z" fill="#C9B2DE"/>
</g>
<g style="mix-blend-mode:multiply">
<path d="M36.8765 30.9393C36.9478 36.0296 34.3176 39.9325 29.5607 40.3583C28.0296 40.4936 26.532 40.1479 25.2946 39.4966C31.7126 40.3884 36.134 38.0487 35.6683 30.7689C35.3495 25.7588 33.185 23.5092 31.6749 22.5423C35.1482 23.389 36.8219 27.1416 36.8765 30.9393Z" fill="#C9B2DE"/>
</g>
<path d="M38.3783 43.144L36.2221 46.3154C35.983 46.6661 35.551 46.7212 35.2573 46.4356C34.9931 46.1801 34.9301 45.7342 35.0937 45.3935L36.7843 41.8413C37.0485 41.2852 37.64 41.0898 38.1056 41.4055C38.5712 41.7211 38.7348 42.4275 38.4706 42.9837C38.4454 43.0388 38.4118 43.0939 38.3825 43.139L38.3783 43.144Z" fill="#334471"/>
<path d="M39.7456 47.2573L37.5433 50.1281C37.3168 50.4237 36.9351 50.4438 36.6876 50.1732C36.4653 49.9327 36.4317 49.5419 36.5869 49.2463L38.3446 45.9697C38.6088 45.4787 39.1583 45.3334 39.5694 45.649C39.9805 45.9647 40.1022 46.621 39.8379 47.112C39.8127 47.1621 39.7792 47.2122 39.7456 47.2573Z" fill="#334471"/>
<path d="M27.6562 44.9526L30.6932 46.3705C30.9952 46.5108 31.1421 46.9166 31.0246 47.2723C30.9239 47.583 30.6597 47.7533 30.3954 47.7082L27.1696 47.132C26.6494 47.0419 26.2929 46.4607 26.3684 45.8444C26.4439 45.2232 26.9305 44.7973 27.4464 44.8875C27.5177 44.8975 27.5891 44.9226 27.652 44.9526H27.6562Z" fill="#334471"/>
<path d="M29.3844 48.9908L32.5011 50.1381C32.8074 50.2534 32.9836 50.6392 32.8871 51.0099C32.8074 51.3255 32.5515 51.5259 32.2872 51.5009L29.0362 51.2103C28.5119 51.1652 28.1218 50.6191 28.1595 49.9928C28.1973 49.3666 28.6545 48.9006 29.1788 48.9457C29.2502 48.9507 29.3215 48.9708 29.3886 48.9908H29.3844Z" fill="#334471"/>
<path d="M39.8421 52.0971L41.067 57.5431C41.1299 57.8287 40.9915 58.1193 40.7524 58.1944C40.5553 58.2596 40.3497 58.1494 40.2532 57.9489L37.8538 53.0891C37.5476 52.4729 37.7196 51.6762 38.2397 51.3105C38.7557 50.9448 39.4227 51.1502 39.7289 51.7714C39.7792 51.8716 39.817 51.9869 39.8421 52.0921V52.0971Z" fill="#334471"/>
<path d="M35.3705 52.7685L36.9184 58.0993C36.9981 58.3798 36.8764 58.6804 36.6415 58.7756C36.4486 58.8558 36.2388 58.7656 36.1297 58.5752L33.4493 53.9308C33.1095 53.3396 33.2311 52.533 33.7261 52.1222C34.2211 51.7163 34.8965 51.8616 35.2404 52.4528C35.295 52.548 35.3411 52.6582 35.3747 52.7634L35.3705 52.7685Z" fill="#334471"/>
</g>
<defs>
<clipPath id="clip0_24_39">
<rect width="60" height="60" fill="white"/>
</clipPath>
</defs>
</svg>
