<svg width="60" height="60" viewBox="0 0 60 60" fill="none" xmlns="http://www.w3.org/2000/svg">
<g clip-path="url(#clip0_24_191)">
<g clip-path="url(#clip1_24_191)">
<path d="M11.7271 47.5625C10.5549 45.7104 7.75379 47.1063 6.89621 49.0245C6.03863 50.9426 6.064 52.8827 6.82517 53.3058C7.58633 53.729 7.70812 52.2121 9.14418 51.5361C10.5802 50.8601 12.6963 49.0959 11.7271 47.5625Z" fill="#926047"/>
<path d="M59.8783 54.1248C58.493 56.8508 53.9768 57.4169 51.81 56.2847C49.6432 55.158 47.2988 55.2514 45.3046 56.7519C43.3103 58.2578 39.5806 59.7582 37.495 58.2578C35.4145 56.7519 32.8113 55.6252 30.7257 57.1311C28.6452 58.6315 23.9565 62.9569 14.5891 56.7573C10.2251 53.8719 9.23048 49.7829 9.41316 46.238C9.62121 42.1654 11.382 38.8129 11.382 38.8129L22.3123 35.9C22.3123 35.9 27.0823 43.6054 27.2599 43.9791C27.4324 44.3528 43.224 50.4644 47.8215 49.8983C52.0028 49.3872 54.2457 52.4485 55.9253 53.4323C56.0928 53.5312 56.2552 53.6081 56.4074 53.6576C58.1429 54.2237 60.5735 52.9046 59.8783 54.1248Z" fill="#ECB484"/>
<path d="M59.1881 35.3284C59.1881 35.3888 59.1881 35.4493 59.1881 35.5098C59.1526 38.8733 58.158 42.0115 56.4682 44.6551C55.1844 46.6667 53.4946 48.3979 51.5156 49.7334C51.3786 49.8269 51.2415 49.9148 51.0995 50.0082C49.1661 51.2339 46.974 52.0912 44.6245 52.476C43.6908 52.6298 42.7317 52.7123 41.7524 52.7123C40.2199 52.7123 38.728 52.5144 37.3123 52.1407C29.8326 50.1841 24.3167 43.3965 24.3167 35.3284C24.3167 31.1404 25.8035 27.2932 28.2798 24.2924C30.2436 21.9126 32.8315 20.0605 35.795 18.9832C37.6522 18.3127 39.6617 17.9445 41.7524 17.9445C43.3356 17.9445 44.8731 18.1533 46.3295 18.549C49.5061 19.4119 52.3224 21.1432 54.5044 23.4735C57.4121 26.5787 59.1881 30.7447 59.1881 35.3284Z" fill="#8F4C4A"/>
<path d="M36.8049 51.9648C29.2592 47.2657 32.2937 40.687 27.5238 37.7741C22.7538 34.8612 21.3634 39.3735 22.3174 41.8137C23.2714 44.2594 27.3512 50.9261 36.8049 51.9648Z" fill="#FDC78D"/>
<g style="mix-blend-mode:multiply">
<path d="M56.4124 53.6521C56.2551 53.6026 56.0927 53.5257 55.9303 53.4268C55.6106 54.2292 54.5399 54.3336 52.9161 54.2072C53.114 53.3608 52.6878 52.3166 51.6424 52.3166C50.7138 52.3166 50.2723 53.1465 50.3282 53.9269C49.8968 53.8774 49.4503 53.8225 48.9834 53.773C49.1103 53.2839 48.8718 52.6683 48.2629 52.6683C47.7097 52.6683 47.4611 53.1794 47.5169 53.6411C45.8271 53.5422 44.8579 53.9489 44.1576 54.5315C43.8989 53.9874 43.4066 53.5807 42.6658 53.5807C40.8288 53.5807 40.4838 56.0923 41.6306 57.0321C41.4327 57.1421 41.2196 57.2355 40.976 57.3124C40.7781 57.3729 40.5954 57.4169 40.4229 57.4498C40.4838 57.3234 40.5193 57.1805 40.5193 57.0321V56.8893C40.5193 56.6529 40.4229 56.4056 40.2706 56.2407C40.1184 56.0758 39.885 55.9604 39.6719 55.9714C39.4537 55.9824 39.2253 56.0594 39.0731 56.2407C38.9208 56.4221 38.8244 56.6419 38.8244 56.8893V57.0321C38.8244 57.1311 38.8397 57.23 38.8701 57.3234C38.3576 57.1421 37.8451 56.8343 37.1905 56.4606C38.4083 56.3287 38.3677 54.2127 37.0687 54.2127C36.1604 54.2127 35.866 55.2459 36.1908 55.9165C35.4855 55.5537 34.633 55.1635 33.542 54.7898C33.5724 54.7678 33.6028 54.7403 33.6282 54.7128C33.7449 54.5754 33.821 54.4051 33.821 54.2127V54.0698C33.821 53.8884 33.75 53.7016 33.6282 53.5697C33.5064 53.4378 33.3288 53.3553 33.1664 53.3608C32.999 53.3663 32.8214 53.4268 32.7047 53.5697C32.588 53.7071 32.5118 53.8774 32.5118 54.0698V54.2127C32.5118 54.3006 32.5321 54.3941 32.5626 54.4765C32.4763 54.449 32.385 54.427 32.2936 54.3996C31.0859 54.0588 30.1116 53.9983 29.2794 54.1083C29.0765 52.9486 28.1986 52.0253 27.0467 52.0253C25.8948 52.0253 24.7125 53.1575 24.7683 54.493C24.7936 55.1085 25.0068 55.6746 25.3569 56.1143C24.9307 56.4166 24.4993 56.6914 24.0223 56.8947C23.9767 56.5925 23.7686 56.3287 23.4033 56.3287C22.9161 56.3287 22.7131 56.8068 22.7943 57.208C22.6421 57.219 22.4848 57.2245 22.3224 57.2245C20.7849 57.175 19.4249 56.9607 18.2273 56.6309C18.7652 55.8615 18.4557 54.4325 17.2886 54.4325C16.4665 54.4325 16.0656 55.1525 16.0961 55.845C11.4124 53.6191 9.89513 49.2113 9.42321 46.238C9.24053 49.7829 10.2402 53.8719 14.5991 56.7573C23.9716 62.9569 28.6553 58.637 30.7358 57.1311C32.8163 55.6252 35.4195 56.7574 37.5051 58.2578C39.5856 59.7582 43.3204 58.2578 45.3146 56.7519C47.3089 55.2459 49.6533 55.1525 51.82 56.2847C53.9919 57.4114 58.503 56.8508 59.8884 54.1248C60.5836 52.9046 58.1529 54.2182 56.4175 53.6576L56.4124 53.6521Z" fill="#E9D5FB"/>
</g>
<path d="M18.5826 47.2382C20.2318 45.8807 22.4849 48.1561 22.7487 50.2666C23.0075 52.3825 22.424 54.2127 21.5766 54.3556C20.7291 54.4985 21.0539 53.0146 19.8868 51.8879C18.7146 50.7612 17.2176 48.3649 18.5877 47.2382H18.5826Z" fill="#926047"/>
<path d="M24.5704 36.6474C23.18 40.1264 17.456 42.6601 8.77874 40.3133C7.89579 40.0769 7.07881 39.7802 6.32272 39.4449C4.3031 38.5381 2.7554 37.3179 1.69484 35.9879C-0.674912 33.0201 -0.60387 29.5246 2.18199 27.8703C2.26825 27.8208 2.35452 27.7714 2.44078 27.7274C2.44078 27.7274 4.17624 14.1028 15.6292 15.7021C16.3143 15.7955 16.9536 15.9439 17.5524 16.1418C26.9452 19.1591 25.8694 33.3938 24.5653 36.6584L24.5704 36.6474Z" fill="#ECB484"/>
<path opacity="0.5" d="M18.2638 39.0824C20.3559 38.1438 21.3493 35.5461 20.4828 33.2802C19.6162 31.0143 17.2177 29.9383 15.1257 30.8769C13.0336 31.8154 12.0401 34.4131 12.9067 36.679C13.7733 38.9449 16.1717 40.0209 18.2638 39.0824Z" fill="#B46E6F"/>
<path opacity="0.5" d="M4.39969 31.8054C4.39969 33.729 3.27316 35.3614 1.70009 35.9824C-0.669663 33.0146 -0.598621 29.5191 2.18724 27.8648C3.50151 28.6013 4.39969 30.0907 4.39969 31.8054Z" fill="#B46E6F"/>
<path d="M8.76871 32.8112C8.58096 32.8112 8.38813 32.7837 8.18515 32.7178C6.29239 32.1132 6.54611 29.5576 6.55119 29.5301C6.56134 29.4147 6.65775 29.3322 6.76939 29.3432C6.87595 29.3542 6.95207 29.4641 6.94192 29.5796C6.93177 29.6675 6.72372 31.8054 8.30186 32.3111C9.87494 32.8167 10.9253 30.6073 10.9355 30.5853C10.9862 30.4809 11.1029 30.4369 11.1994 30.4919C11.2958 30.5468 11.3364 30.6733 11.2856 30.7777C11.2755 30.7997 10.3266 32.8112 8.77886 32.8112H8.76871Z" fill="#C17762"/>
<path d="M15.9083 28.1616C15.614 29.5521 14.6499 30.4919 13.7466 30.2721C12.8484 30.0467 12.3562 28.7442 12.6455 27.3537C12.9398 25.9632 13.9039 25.0234 14.8072 25.2432C15.7053 25.4685 16.1976 26.7711 15.9083 28.1616Z" fill="#3E1D10"/>
<path d="M14.5078 27.0019C14.3809 27.612 14.0003 28.0352 13.6604 27.9527C13.3204 27.8703 13.1478 27.3042 13.2747 26.6996C13.4016 26.0896 13.7821 25.6664 14.1221 25.7488C14.4621 25.8313 14.6346 26.3974 14.5078 27.0019Z" fill="white"/>
<path d="M7.31738 26.1885C7.02307 27.579 6.05892 28.5188 5.15568 28.299C4.2575 28.0736 3.76528 26.7711 4.05453 25.3806C4.34377 23.9901 5.31298 23.0503 6.21623 23.2701C7.11948 23.49 7.60662 24.798 7.31738 26.1885Z" fill="#3E1D10"/>
<path d="M5.92197 25.0289C5.79511 25.6389 5.41453 26.0621 5.07454 25.9797C4.73455 25.8972 4.56202 25.3311 4.68888 24.7266C4.81575 24.1165 5.19633 23.6933 5.53631 23.7758C5.8763 23.8582 6.04883 24.4243 5.92197 25.0289Z" fill="white"/>
<g style="mix-blend-mode:multiply">
<path d="M17.5576 16.1308C18.9277 17.1311 20.5667 18.7304 21.8455 21.2146C20.9372 21.8192 21.1503 23.7043 22.4899 23.7043C22.6269 23.7043 22.7538 23.6823 22.8654 23.6439C23.4388 25.3586 23.8346 27.3812 23.9412 29.7609C23.6418 29.5411 23.2815 29.4092 22.8807 29.4092C21.8607 29.4092 20.8813 30.382 20.927 31.5251C20.9727 32.6683 21.7846 33.6411 22.8807 33.6411C23.1851 33.6411 23.4845 33.5532 23.7535 33.4048C22.2717 41.7642 13.361 41.7587 6.32788 39.4449C7.0789 39.7857 7.90095 40.0769 8.7839 40.3133C17.4612 42.6656 23.1851 40.1264 24.5755 36.6474C25.8796 33.3828 26.9554 19.1481 17.5627 16.1308H17.5576Z" fill="#E9D5FB"/>
</g>
<path d="M20.4043 19.967C21.201 20.6155 23.4642 11.6515 22.6827 6.36438C21.9013 1.07721 19.1053 -0.192366 18.4507 0.0219787C17.8011 0.230827 18.8414 4.53421 19.8817 8.76064C20.9219 12.9871 21.0539 15.1745 20.9879 16.2297C20.9219 17.285 19.8817 19.5438 20.4043 19.967Z" fill="#926047"/>
<path d="M10.6158 17.7851C11.5952 17.9775 9.91553 8.86507 7.03326 4.51772C4.14591 0.170375 1.12155 0.390215 0.624258 0.895849C0.126965 1.40148 2.83671 4.73756 5.516 8.01868C8.1953 11.2943 9.21526 13.1849 9.59077 14.1632C9.97135 15.1415 9.97135 17.6642 10.6107 17.7851H10.6158Z" fill="#926047"/>
<g style="mix-blend-mode:multiply">
<path d="M20.6632 26.238C19.0698 26.238 19.0698 28.9145 20.6632 28.9145C22.2565 28.9145 22.2565 26.238 20.6632 26.238Z" fill="#E9D5FB"/>
</g>
<g style="mix-blend-mode:multiply">
<path d="M19.2321 23.1382C18.3085 23.1382 18.3085 24.6881 19.2321 24.6881C20.1556 24.6881 20.1556 23.1382 19.2321 23.1382Z" fill="#E9D5FB"/>
</g>
<g style="mix-blend-mode:multiply">
<path d="M14.1577 16.4441C12.818 16.4441 12.818 18.6974 14.1577 18.6974C15.4973 18.6974 15.4973 16.4441 14.1577 16.4441Z" fill="#E9D5FB"/>
</g>
<g style="mix-blend-mode:multiply">
<path d="M17.5423 17.219C16.9537 17.219 16.9537 18.2083 17.5423 18.2083C18.1309 18.2083 18.1309 17.219 17.5423 17.219Z" fill="#E9D5FB"/>
</g>
<g style="mix-blend-mode:multiply">
<path d="M16.1113 19.2635C14.9391 19.2635 14.9391 21.2366 16.1113 21.2366C17.2835 21.2366 17.2835 19.2635 16.1113 19.2635Z" fill="#E9D5FB"/>
</g>
<g style="mix-blend-mode:multiply">
<path d="M8.043 19.1206C7.20572 19.1206 7.20572 20.5276 8.043 20.5276C8.88028 20.5276 8.88028 19.1206 8.043 19.1206Z" fill="#E9D5FB"/>
</g>
<g style="mix-blend-mode:multiply">
<path d="M9.47403 38.0104C8.63675 38.0104 8.63675 39.4174 9.47403 39.4174C10.3113 39.4174 10.3113 38.0104 9.47403 38.0104Z" fill="#E9D5FB"/>
</g>
<g style="mix-blend-mode:multiply">
<path d="M11.9453 37.7246C11.4429 37.7246 11.4429 38.571 11.9453 38.571C12.4476 38.571 12.4476 37.7246 11.9453 37.7246Z" fill="#E9D5FB"/>
</g>
<g style="mix-blend-mode:multiply">
<path d="M5.04909 34.9766C3.95808 34.9766 3.95808 36.8068 5.04909 36.8068C6.14009 36.8068 6.14009 34.9766 5.04909 34.9766Z" fill="#E9D5FB"/>
</g>
<g style="mix-blend-mode:multiply">
<path d="M30.5583 51.4702C29.6347 51.4702 29.6347 53.0201 30.5583 53.0201C31.4818 53.0201 31.4818 51.4702 30.5583 51.4702Z" fill="#E9D5FB"/>
</g>
<g style="mix-blend-mode:multiply">
<path d="M14.9392 52.1737C13.8482 52.1737 13.8482 54.0038 14.9392 54.0038C16.0302 54.0038 16.0302 52.1737 14.9392 52.1737Z" fill="#E9D5FB"/>
</g>
<g style="mix-blend-mode:multiply">
<path d="M11.9453 48.8596C11.4429 48.8596 11.4429 49.706 11.9453 49.706C12.4476 49.706 12.4476 48.8596 11.9453 48.8596Z" fill="#E9D5FB"/>
</g>
<g style="mix-blend-mode:multiply">
<path d="M20.2775 54.7843C19.4402 54.7843 19.4402 56.1913 20.2775 56.1913C21.1148 56.1913 21.1148 54.7843 20.2775 54.7843Z" fill="#E9D5FB"/>
</g>
<g style="mix-blend-mode:multiply">
<path d="M24.9003 49.7719C24.7734 49.6455 24.6161 49.5631 24.4385 49.5631H24.3065C24.1391 49.5631 23.9666 49.64 23.8448 49.7719C23.7331 49.8928 23.6469 50.0962 23.6519 50.2721C23.657 50.4534 23.7128 50.6458 23.8448 50.7722C23.9716 50.8986 24.1289 50.981 24.3065 50.981H24.4385C24.6059 50.981 24.7785 50.9041 24.9003 50.7722C25.0119 50.6513 25.0982 50.4479 25.0931 50.2721C25.088 50.0907 25.0322 49.8983 24.9003 49.7719Z" fill="#E9D5FB"/>
</g>
<g style="mix-blend-mode:multiply">
<path d="M39.6668 53.7236C39.0782 53.7236 39.0782 54.7128 39.6668 54.7128C40.2555 54.7128 40.2555 53.7236 39.6668 53.7236Z" fill="#E9D5FB"/>
</g>
<g style="mix-blend-mode:multiply">
<path d="M27.5643 49.8489C27.0619 49.8489 27.0619 50.6952 27.5643 50.6952C28.0666 50.6952 28.0666 49.8489 27.5643 49.8489Z" fill="#E9D5FB"/>
</g>
<g style="mix-blend-mode:multiply">
<path d="M23.0075 44.9134C22.5051 44.9134 22.5051 45.7598 23.0075 45.7598C23.5099 45.7598 23.5099 44.9134 23.0075 44.9134Z" fill="#E9D5FB"/>
</g>
<g style="mix-blend-mode:multiply">
<path d="M17.4105 51.1184C16.9081 51.1184 16.9081 51.9648 17.4105 51.9648C17.9128 51.9648 17.9128 51.1184 17.4105 51.1184Z" fill="#E9D5FB"/>
</g>
<g style="mix-blend-mode:multiply">
<path d="M14.2896 49.1454C13.7872 49.1454 13.7872 49.9918 14.2896 49.9918C14.792 49.9918 14.792 49.1454 14.2896 49.1454Z" fill="#E9D5FB"/>
</g>
<g style="mix-blend-mode:multiply">
<path d="M10.905 45.0563C10.4026 45.0563 10.4026 45.9027 10.905 45.9027C11.4073 45.9027 11.4073 45.0563 10.905 45.0563Z" fill="#E9D5FB"/>
</g>
<path d="M39.5349 30.9591C39.5349 30.9591 39.0123 30.9591 35.3688 34.2017C33.5978 27.3976 30.4263 25.0728 28.2748 24.2924C30.2386 21.9126 32.8265 20.0605 35.79 18.9832C41.2044 23.3581 39.5349 30.9591 39.5349 30.9591Z" fill="#C17762"/>
<path d="M51.0945 50.0082C49.1611 51.2339 46.969 52.0912 44.6195 52.476C42.9754 47.2547 44.8732 45.1937 44.8732 45.1937L47.9991 45.6169C48.197 47.7769 49.6888 49.1674 51.0995 50.0082H51.0945Z" fill="#C17762"/>
<path d="M45.132 29.9753C47.314 25.2487 46.8623 20.9013 46.3295 18.5546C49.5061 19.4174 52.3224 21.1487 54.5044 23.479C53.8092 28.3485 49.43 32.377 49.43 32.377C49.43 32.377 49.0393 32.2341 45.137 29.9808L45.132 29.9753Z" fill="#C17762"/>
<path d="M59.1831 35.5153C59.1476 38.8788 58.153 42.017 56.4632 44.6606C53.4693 44.3583 51.1147 42.3798 51.1147 42.3798L52.155 38.5765C55.8695 38.0544 57.9804 36.8013 59.1831 35.5153Z" fill="#C17762"/>
<path d="M42.7876 44.2099C42.7876 44.2099 39.7937 45.0563 37.8401 50.4095L33.1564 42.6546C33.1564 42.6546 37.5813 39.1316 41.8742 41.1047L42.6557 39.4119C42.6557 39.4119 41.7423 33.6301 36.4091 34.0533C38.3627 30.6678 42.3969 29.684 42.3969 29.684C42.3969 29.684 46.8218 32.6463 44.8681 38.8458C43.3052 38.9887 42.4629 39.4119 42.3309 40.676C42.199 41.9456 42.3309 43.0008 42.3309 43.0008L42.7876 44.199V44.2099Z" fill="#C17762"/>
<path d="M42.4628 41.8137C42.5288 44.7046 47.928 46.8151 50.2724 43.0118C52.6168 39.2086 51.5714 32.3001 44.6093 30.8217C37.6472 29.3432 32.9635 38.3622 36.3431 44.9189C39.7886 51.8439 47.2835 50.9316 51.5055 49.7389C48.7196 51.6186 45.3603 52.7178 41.7423 52.7178C40.2098 52.7178 38.7179 52.5199 37.3021 52.1462C31.1113 47.8153 28.5589 33.9159 38.8143 29.6235C46.2991 26.8041 53.3272 32.7947 52.5457 39.28C51.7643 45.7653 47.5981 47.5955 43.7619 45.551C39.9205 43.5065 41.8082 38.7139 43.6959 38.5051C45.5278 38.3017 45.949 39.357 45.9743 39.4174C45.3857 38.4336 42.3969 38.9283 42.4628 41.8137Z" fill="#753A3C"/>
</g>
</g>
<defs>
<clipPath id="clip0_24_191">
<rect width="60" height="60" fill="white"/>
</clipPath>
<clipPath id="clip1_24_191">
<rect width="60" height="60" fill="white"/>
</clipPath>
</defs>
</svg>
