<svg width="60" height="60" viewBox="0 0 60 60" fill="none" xmlns="http://www.w3.org/2000/svg">
<g clip-path="url(#clip0_25_617)">
<path d="M61.9007 42.4297C61.4444 46.77 59.5024 45.9686 59.5024 45.9686L57.923 44.7168L54.5888 42.0845C52.9919 40.5988 53.22 39.3411 54.0155 38.0835C54.8169 36.8258 55.7294 34.5445 55.6125 32.0292C55.5247 30.0814 55.6417 28.268 56.2325 27.3438C56.4021 27.0747 56.6127 26.8758 56.8701 26.7764C58.0107 26.3201 57.6715 29.5198 58.8121 31.4618C59.9528 33.4039 62.3511 38.0893 61.8948 42.4297H61.9007Z" fill="#FFA7AD"/>
<g style="mix-blend-mode:multiply">
<path d="M61.9008 42.4297C61.4446 46.77 59.5025 45.9686 59.5025 45.9686L57.9232 44.7168C60.2805 43.155 60.7894 39.8032 59.7307 36.9428C58.59 33.8601 57.2154 30.3153 57.1042 28.9465C57.0458 28.268 56.6889 27.5953 56.2385 27.3438C56.4082 27.0747 56.6187 26.8758 56.8761 26.7764C58.0168 26.3201 57.6775 29.5198 58.8182 31.4618C59.9588 33.4039 62.3571 38.0893 61.9008 42.4297Z" fill="#E0C8D9"/>
</g>
<path d="M58.8124 50.888C55.9579 55.0002 51.6117 57.9718 47.9557 56.0297C47.207 55.1699 46.8151 54.2398 46.6513 53.3156C46.1365 50.4376 47.8387 47.6883 47.8387 47.6883C47.4936 45.6293 48.1839 44.8338 49.3245 44.2605C50.4652 43.6873 51.3835 42.5466 52.0679 41.406C52.0679 41.4001 52.0738 41.3943 52.0796 41.3884C52.7816 40.2653 55.3963 40.16 57.6659 42.3185C59.9531 44.4887 61.667 46.7758 58.8066 50.888H58.8124Z" fill="#FF8D94"/>
<g style="mix-blend-mode:multiply">
<path d="M58.8122 50.8881C55.9577 55.0003 51.6115 57.9718 47.9556 56.0298C47.2068 55.1699 46.8149 54.2398 46.6511 53.3156L46.8149 52.7131C46.8149 52.7131 48.9851 55.7958 53.8987 53.6256C58.8122 51.4555 59.3855 46.653 58.0109 44.828C56.8585 43.2896 55.0627 40.7918 52.0795 41.3826C52.7814 40.2595 55.3961 40.1542 57.6657 42.3127C59.9529 44.4828 61.6668 46.77 58.8064 50.8822L58.8122 50.8881Z" fill="#E0C8D9"/>
</g>
<path d="M47.049 57.8548C44.0774 59.2236 38.3625 57.6267 36.6486 57.0534C34.9347 56.4802 34.7065 54.0877 35.1628 52.0345C35.1628 52.0345 35.1628 52.0345 35.1628 52.0287C35.6191 49.9697 38.4736 45.5182 38.4736 45.5182C39.5031 43.4592 42.0184 44.6057 43.8435 44.9449C44.8671 45.138 45.961 44.8982 46.9671 45.2725C47.7626 45.565 48.4997 46.2377 49.1022 47.7995C50.4709 51.3443 50.0147 56.486 47.0431 57.8548H47.049Z" fill="#FFA7AD"/>
<g style="mix-blend-mode:multiply">
<path d="M47.049 57.8548C44.0774 59.2236 38.3625 57.6267 36.6486 57.0534C34.9347 56.4801 34.7065 54.0877 35.1628 52.0345C35.7828 53.4092 37.0639 54.93 39.7313 55.4565C44.99 56.486 47.7275 55.2284 48.3008 52.1398C48.7336 49.7883 48.3768 46.8402 46.9671 45.2667C47.7626 45.5591 48.4997 46.2318 49.1022 47.7936C50.4709 51.3384 50.0147 56.4801 47.0431 57.8489L47.049 57.8548Z" fill="#E0C8D9"/>
</g>
<path d="M40.0763 46.9981C39.5031 50.5429 37.9061 54.1989 32.9926 54.9944C28.079 55.7958 25.9088 52.0229 25.9088 52.0229L26.3417 50.1978L29.2255 37.9724C32.4252 37.8554 34.0221 38.6568 36.1981 40.4876C36.9585 41.1311 37.7307 41.6868 38.3917 42.2893C39.62 43.4124 40.4507 44.6993 40.0822 46.9981H40.0763Z" fill="#FF8D94"/>
<g style="mix-blend-mode:multiply">
<path d="M40.0763 46.9981C39.5031 50.5429 37.9061 54.1989 32.9926 54.9944C28.079 55.7958 25.9088 52.0228 25.9088 52.0228L26.3417 50.1978C28.2077 51.2449 31.1909 52.1925 34.9346 50.8822C39.2515 49.3672 39.8014 45.2959 38.3858 42.2834C39.6142 43.4065 40.4448 44.6934 40.0763 46.9923V46.9981Z" fill="#E0C8D9"/>
</g>
<path d="M20.0827 50.4259L15.8828 52.4674L11.8583 54.427C11.8583 54.427 2.71554 54.6551 3.1718 45.6293C3.35898 41.8974 5.18988 39.0253 7.72856 37.2119C11.3319 34.6264 16.3741 34.1643 20.1938 36.3754C25.6807 41.8623 20.0827 50.4259 20.0827 50.4259Z" fill="#F96C79"/>
<g style="mix-blend-mode:multiply">
<path d="M17.6844 48.946L15.8828 52.4732L11.8583 54.4328C11.8583 54.4328 2.71554 54.661 3.1718 45.6352C3.35898 41.9032 5.18988 39.0311 7.72856 37.2177C5.99126 39.8091 4.3534 43.5177 6.25449 46.6647C9.54191 52.1047 17.544 49.0045 17.6786 48.9518L17.6844 48.946Z" fill="#E0C8D9"/>
</g>
<path d="M15.1691 59.7968C11.4313 59.0832 8.24919 55.9479 8.1556 51.8942C8.1322 50.7418 8.35448 49.5193 8.88678 48.2558C11.2851 42.5408 17.2282 43.9154 20.4279 45.0561C20.4279 45.0561 23.4462 44.553 26.8623 45.3837C28.3305 45.7405 29.8748 46.343 31.2845 47.3374C31.8578 58.8785 19.9716 60.7035 15.175 59.791L15.1691 59.7968Z" fill="#FF8D94"/>
<g style="mix-blend-mode:multiply">
<path d="M15.1691 59.7968C11.4312 59.0832 8.24911 55.9479 8.15552 51.8942C9.38391 55.6846 14.2098 60.8088 21.5684 57.3985C29.0909 53.9122 27.6987 47.7001 26.8622 45.3895C28.3305 45.7463 29.8747 46.3488 31.2845 47.3432C31.8577 58.8843 19.9715 60.7094 15.1749 59.7968H15.1691Z" fill="#E0C8D9"/>
</g>
<path d="M30.8224 48.946C27.0495 52.4849 20.0828 51.2331 18.2577 48.946C17.392 47.8638 17.0644 47.0098 17.0469 46.1558C17.0235 45.214 17.3803 44.2664 17.8015 43.0029C18.6028 40.6046 17.9184 39.23 19.5154 38.2063C19.5154 38.2063 26.3183 37.2236 29.6467 37.0598C30.2492 37.0306 30.7405 37.0306 31.0564 37.0598C33.1154 37.2879 34.5954 45.4012 30.8283 48.946H30.8224Z" fill="#FFA7AD"/>
<g style="mix-blend-mode:multiply">
<path d="M30.8225 48.946C27.0495 52.4849 20.0828 51.2331 18.2577 48.946C17.392 47.8638 17.0644 47.0098 17.0469 46.1558C18.2694 48.8992 22.6624 50.7125 26.371 48.6067C31.4016 45.7522 28.7693 39.1247 28.7693 38.7796L29.6467 37.0598C30.2492 37.0306 30.7406 37.0306 31.0564 37.0598C33.1155 37.2879 34.5954 45.4012 30.8283 48.946H30.8225Z" fill="#E0C8D9"/>
</g>
<path d="M31.7351 37.8612C28.4184 42.7748 21.3347 42.2015 18.9364 40.3765C18.2929 39.891 17.7255 39.113 17.2576 38.1888C15.9648 35.6676 15.3799 32.0468 15.9707 30.2042C15.9707 30.2042 23.0954 28.3148 27.1374 27.724C28.161 27.5719 28.9858 27.5076 29.4538 27.5778C31.7409 27.9229 33.7941 34.7785 31.7409 37.8612H31.7351Z" fill="#FF8D94"/>
<g style="mix-blend-mode:multiply">
<path d="M31.735 37.8612C28.4183 42.7748 21.3345 42.2015 18.9363 40.3765C18.2928 39.891 17.7254 39.113 17.2574 38.1888C21.1415 41.1545 28.7049 40.1308 28.8804 36.2584C29.1085 31.2279 26.8214 27.9171 26.8214 27.9171L27.1314 27.724C28.1551 27.5719 28.9798 27.5076 29.4478 27.5778C31.735 27.9229 33.7881 34.7785 31.735 37.8612Z" fill="#E0C8D9"/>
</g>
<path d="M35.0516 24.8344C34.1391 27.6889 31.3957 34.3164 12.8879 31.807C8.58265 31.1752 5.45902 29.5842 3.3649 27.6187C2.7273 27.0221 2.1833 26.3903 1.73288 25.741C-1.07488 21.6932 -0.33199 16.9434 2.96128 15.4869C3.3415 15.3172 3.75681 15.1944 4.20722 15.1242C4.20722 15.1242 5.46487 -1.78671 22.1476 0.15532C22.3524 0.178718 22.563 0.207965 22.7618 0.237213C38.7544 2.58871 35.9583 22.0149 35.0575 24.8344H35.0516Z" fill="#FFA7AD"/>
<path opacity="0.5" d="M28.0397 25.0638C28.7761 21.9315 26.8339 18.7954 23.7016 18.059C20.5693 17.3226 17.4332 19.2648 16.6968 22.3971C15.9604 25.5293 17.9026 28.6655 21.0349 29.4019C24.1672 30.1383 27.3033 28.1961 28.0397 25.0638Z" fill="#FF5A64"/>
<path opacity="0.5" d="M5.48826 20.2951C5.48826 22.787 3.92645 24.9104 1.73288 25.741C-1.07488 21.6932 -0.33199 16.9434 2.96128 15.4869C4.488 16.5398 5.48826 18.3005 5.48826 20.2951Z" fill="#FF5A64"/>
<path d="M15.7131 16.493C15.6371 16.493 15.5611 16.4754 15.4909 16.4403C15.2335 16.3175 15.1282 16.0074 15.251 15.7559C15.3154 15.6272 16.7895 12.6498 19.5855 12.7259C21.8844 12.8078 22.7618 14.4456 22.9022 15.2997C22.949 15.5804 22.7618 15.8437 22.481 15.8905C22.2002 15.9373 21.937 15.7501 21.8902 15.4693C21.861 15.3055 21.5334 13.8256 19.5504 13.7554C17.427 13.6793 16.187 16.1829 16.1753 16.2063C16.0875 16.3877 15.9003 16.4988 15.7131 16.4988V16.493Z" fill="#461D01"/>
<path d="M8.99807 15.2997C8.76994 15.2997 8.5652 15.1359 8.51841 14.9019C8.32537 13.8548 7.75212 12.2462 7.13208 12.1175C6.38919 11.9655 6.02067 13.3752 6.01482 13.3869C5.95048 13.6501 5.68725 13.808 5.42402 13.7437C5.16079 13.6794 5.00286 13.4161 5.0672 13.1588C5.27778 12.2872 5.99727 10.895 7.33096 11.1699C8.80503 11.4799 9.37828 14.1883 9.47773 14.7264C9.52452 14.9896 9.34904 15.247 9.08581 15.2938C9.05656 15.2938 9.02732 15.2997 8.99807 15.2997Z" fill="#461D01"/>
<path d="M11.0161 20.8859C10.8991 20.8859 10.7763 20.8742 10.6535 20.8567C10.1387 20.7748 9.74093 20.535 9.466 20.1372C8.84011 19.2305 9.11503 17.8442 9.12673 17.7857C9.15598 17.6453 9.29052 17.5576 9.43091 17.5868C9.57129 17.6161 9.65904 17.7506 9.62979 17.891C9.62979 17.9027 9.38411 19.1252 9.88717 19.8506C10.0802 20.1314 10.3551 20.2951 10.7295 20.3536C12.344 20.6052 13.432 18.4759 13.4437 18.4525C13.508 18.3239 13.6601 18.2771 13.7888 18.3356C13.9175 18.3999 13.9643 18.552 13.9058 18.6807C13.859 18.7743 12.7827 20.8859 11.0103 20.8859H11.0161Z" fill="#E53B54"/>
<g style="mix-blend-mode:multiply">
<path d="M35.0515 24.8344C34.139 27.6889 31.3956 34.3164 12.8877 31.807C8.5825 31.1752 5.45887 29.5842 3.36475 27.6187C14.3384 33.6905 31.9688 33.0646 31.9688 18.3239C31.9688 7.5374 26.5463 2.46587 22.7558 0.237213C38.7484 2.58871 35.9523 22.0149 35.0515 24.8344Z" fill="#E0C8D9"/>
</g>
<path d="M17.7314 2.44831C17.6495 2.19093 17.5091 1.97451 17.3044 1.78733C17.1172 1.58844 16.8949 1.44221 16.6434 1.36031C16.3977 1.23163 16.1345 1.17313 15.8537 1.18483L15.3097 1.26086C14.9587 1.36031 14.6604 1.5358 14.403 1.78733C14.2977 1.92771 14.1866 2.06225 14.0813 2.20263C13.8941 2.52436 13.8005 2.86948 13.8005 3.238V3.40764C13.7888 3.68842 13.8473 3.95749 13.976 4.19732C14.0579 4.4547 14.1983 4.67113 14.403 4.85831C14.5902 5.0572 14.8125 5.20343 15.064 5.28533C15.3097 5.41401 15.5729 5.47251 15.8537 5.46081L16.3977 5.38477C16.7487 5.28532 17.047 5.10984 17.3044 4.85831C17.4097 4.71793 17.5208 4.58338 17.6261 4.443C17.8133 4.12127 17.9069 3.77616 17.9069 3.40764V3.238C17.9186 2.95722 17.8601 2.68814 17.7314 2.44831Z" fill="#FFCDD3"/>
<path d="M11.3962 3.84052C9.74081 3.84052 9.74081 6.40845 11.3962 6.40845C13.0516 6.40845 13.0516 3.84052 11.3962 3.84052Z" fill="#FFCDD3"/>
<path d="M13.9701 45.1438C11.876 45.1438 11.8702 48.402 13.9701 48.402C16.0701 48.402 16.0701 45.1438 13.9701 45.1438Z" fill="#FFA7AD"/>
<path d="M10.5422 48.0569C9.33132 48.0569 9.32547 49.9404 10.5422 49.9404C11.7589 49.9404 11.7589 48.0569 10.5422 48.0569Z" fill="#FFA7AD"/>
<path d="M8.65869 39.8325C6.34228 39.8325 6.33643 43.4299 8.65869 43.4299C10.9809 43.4299 10.9809 39.8325 8.65869 39.8325Z" fill="#FF8D94"/>
<path d="M10.5423 37.0013C9.43675 37.0013 9.43675 38.7152 10.5423 38.7152C11.6479 38.7152 11.6479 37.0013 10.5423 37.0013Z" fill="#FF8D94"/>
<path d="M51.9449 44.787C51.7519 44.594 51.436 44.4477 51.1552 44.4594C50.8686 44.4711 50.5703 44.5647 50.3655 44.787C50.1667 45.0034 50.038 45.2725 50.038 45.5767V45.7463C50.038 46.033 50.1608 46.3313 50.3655 46.536C50.5586 46.729 50.8744 46.8753 51.1552 46.8636C51.4418 46.8519 51.7402 46.7583 51.9449 46.536C52.1438 46.3196 52.2725 46.0505 52.2725 45.7463V45.5767C52.2725 45.2901 52.1496 44.9917 51.9449 44.787Z" fill="#FFA7AD"/>
</g>
<defs>
<clipPath id="clip0_25_617">
<rect width="60" height="60" fill="white"/>
</clipPath>
</defs>
</svg>
