<svg width="60" height="60" viewBox="0 0 60 60" fill="none" xmlns="http://www.w3.org/2000/svg">
<g clip-path="url(#clip0_24_144)">
<path d="M36.8399 49.8685C36.9271 50.3807 37.0246 50.9077 37.1221 51.4248C37.2196 51.942 37.3222 52.464 37.4299 52.9812C37.5377 53.4983 37.6557 54.0154 37.7788 54.5227C37.902 55.03 38.0405 55.5422 38.2047 56.015V56.0248C38.333 56.3844 38.0559 56.7587 37.5787 56.8522C37.1426 56.9409 36.6911 56.7636 36.5269 56.4533C36.2447 55.9263 36.0241 55.4141 35.8086 54.9019C35.5931 54.3897 35.393 53.8775 35.198 53.3604C35.0031 52.8482 34.8132 52.331 34.6285 51.8188C34.4438 51.3017 34.2642 50.7895 34.0898 50.2675C33.8948 49.6962 34.3463 49.1101 35.1006 48.9672C35.8548 48.8244 36.6141 49.1642 36.8091 49.7355C36.8245 49.7749 36.8348 49.8193 36.8399 49.8587V49.8685Z" fill="#431E0F"/>
<path d="M38.0457 56.5518C38.1945 56.7685 38.3536 56.9852 38.5126 57.197C38.6768 57.4088 38.841 57.6205 39.0206 57.8225C39.195 58.0244 39.3746 58.2263 39.5644 58.4135C39.7543 58.6006 39.9493 58.7779 40.1442 58.9257C40.4675 59.167 40.4777 59.5659 40.1596 59.8122C39.8415 60.0584 39.3182 60.0634 38.9949 59.822C38.9539 59.7876 38.9128 59.7531 38.882 59.7186L38.8718 59.7038C38.6614 59.4576 38.4972 59.2113 38.3484 58.97C38.1996 58.7287 38.0714 58.4824 37.9482 58.2362C37.8251 57.9899 37.7174 57.7486 37.6147 57.5023C37.5121 57.2561 37.4146 57.0148 37.3274 56.7587C37.271 56.6011 37.3941 56.4336 37.6045 56.3942C37.784 56.3548 37.9688 56.4238 38.056 56.542L38.0457 56.5518Z" fill="#431E0F"/>
<path d="M29.236 47.7655C29.236 47.7655 29.2207 47.8099 29.2104 47.8394L29.1796 47.9281C29.1591 47.9872 29.1386 48.0512 29.1232 48.1152C29.0821 48.2383 29.0513 48.3713 29.0206 48.4994C28.959 48.7604 28.9025 49.0214 28.8615 49.2874C28.7794 49.8193 28.7281 50.361 28.723 50.9028C28.723 51.4445 28.7384 51.9863 28.8102 52.528C28.8358 52.7989 28.8923 53.0698 28.9333 53.3407C28.9795 53.6116 29.0513 53.8775 29.1129 54.1484L29.1232 54.1927C29.2053 54.5621 28.8769 54.9118 28.3895 54.9709C27.9277 55.03 27.4864 54.8034 27.3787 54.4587C27.2915 54.173 27.1889 53.8824 27.1068 53.5919C27.0298 53.3013 26.9477 53.0107 26.8913 52.7152C26.7579 52.1291 26.686 51.5332 26.6399 50.9422C26.5937 50.3463 26.5937 49.7454 26.6399 49.1445C26.6604 48.8441 26.6963 48.5437 26.7373 48.2383C26.763 48.0857 26.7887 47.9379 26.8194 47.7803C26.8348 47.7015 26.8502 47.6276 26.8707 47.5488L26.9015 47.4306C26.9118 47.3863 26.9221 47.3518 26.9426 47.2977L26.9631 47.2336C27.117 46.746 27.7635 46.4456 28.4049 46.5638C29.0462 46.682 29.4361 47.1745 29.2822 47.6621C29.272 47.6966 29.2566 47.736 29.236 47.7705V47.7655Z" fill="#431E0F"/>
<path d="M29.0512 54.9512C29.1589 55.1728 29.2872 55.3994 29.4206 55.621C29.554 55.8426 29.6925 56.0593 29.8413 56.2711C30.1389 56.6947 30.4673 57.0985 30.8316 57.4531C31.1394 57.7486 31.0727 58.1771 30.6828 58.4135C30.2929 58.645 29.7336 58.5957 29.4257 58.3002C29.3796 58.2559 29.3437 58.2116 29.3129 58.1623V58.1525C29.005 57.6452 28.7895 57.1379 28.6202 56.6306C28.5381 56.3745 28.4612 56.1233 28.3996 55.8672C28.338 55.6111 28.2816 55.36 28.2405 55.094C28.2097 54.9216 28.3739 54.7591 28.6048 54.7394C28.7998 54.7197 28.9794 54.8084 29.0461 54.9413V54.9512H29.0512Z" fill="#431E0F"/>
<path d="M25.1979 42.8208C25.1979 42.8208 25.1415 42.8553 25.1107 42.875C25.0799 42.8947 25.044 42.9193 25.0081 42.9439C24.9414 42.9932 24.8695 43.0375 24.8028 43.0867C24.6643 43.1852 24.5258 43.2887 24.3924 43.3921C24.2538 43.4955 24.1256 43.6039 23.987 43.7122L23.5971 44.0471C23.084 44.4953 22.6068 44.978 22.1707 45.4754C21.945 45.7216 21.75 45.9827 21.5448 46.2388C21.4473 46.3668 21.3601 46.5047 21.2626 46.6328L21.124 46.8298L21.0009 47.0317L20.7495 47.4405L20.534 47.8591C20.4981 47.9281 20.4622 47.997 20.4263 48.0709L20.3339 48.2876L20.1543 48.721L20.1389 48.7604C20.0158 49.0461 19.6156 49.2037 19.241 49.1101C18.8973 49.0264 18.6972 48.7653 18.7536 48.4994L18.8614 48.0069L18.9178 47.7606C18.9383 47.6769 18.9691 47.5981 18.9896 47.5144L19.1435 47.0219L19.3334 46.5392L19.4309 46.2979L19.5438 46.0615C19.6207 45.9039 19.6925 45.7463 19.7695 45.5887C19.9388 45.2784 20.103 44.9681 20.298 44.6677C20.6777 44.0619 21.1035 43.4709 21.5858 42.9045L21.9552 42.481C22.0835 42.3431 22.2118 42.2052 22.3452 42.0673C22.4786 41.9294 22.612 41.7915 22.7556 41.6585C22.8223 41.5895 22.8993 41.5206 22.9711 41.4566C23.007 41.4221 23.043 41.3876 23.084 41.3531C23.1251 41.3187 23.161 41.2842 23.2174 41.2399L23.3252 41.1512C23.8742 40.708 24.7874 40.6883 25.3723 41.1069C25.9521 41.5255 25.9778 42.2249 25.4288 42.6681C25.3621 42.7223 25.28 42.7765 25.1979 42.8159V42.8208Z" fill="#431E0F"/>
<path d="M19.9235 49.0756C20.0364 49.2677 20.1698 49.4745 20.3032 49.6666C20.4418 49.8636 20.5854 50.0557 20.7342 50.2428C20.883 50.43 21.0421 50.6122 21.2114 50.7895C21.3756 50.9668 21.55 51.1343 21.7296 51.2968C22.022 51.5726 21.9707 51.9715 21.6167 52.1981C21.2627 52.4197 20.7342 52.3803 20.4418 52.1094C20.4007 52.07 20.3648 52.0306 20.3391 51.9863C20.1955 51.7647 20.0569 51.543 19.9389 51.3165C19.8158 51.0899 19.708 50.8634 19.6106 50.6368C19.5131 50.4103 19.4207 50.1788 19.3438 49.9523C19.2617 49.7208 19.195 49.4942 19.1334 49.248C19.0923 49.0756 19.2411 48.9131 19.4669 48.8786C19.6619 48.849 19.8466 48.9278 19.9235 49.0608L19.9338 49.0756H19.9235Z" fill="#431E0F"/>
<path opacity="0.5" d="M22.7507 28.6514C22.7507 28.6514 32.6891 32.5078 39.7696 37.0733C46.8501 41.6388 55.4135 49.7553 52.2426 55.0349C49.0718 60.3096 28.0355 51.1786 24.018 45.702C20.0006 40.2204 21.0576 33.02 22.7507 28.6564V28.6514Z" fill="#88D3FF"/>
<path opacity="0.5" d="M22.7507 28.2427C22.7507 28.2427 33.9564 33.1135 40.4058 37.1718C46.8553 41.23 56.4755 49.0411 59.5386 45.0863C62.6017 41.1315 49.708 27.2281 41.6732 25.3024C33.6383 23.3767 26.1319 23.5787 22.7507 28.2427Z" fill="#88D3FF"/>
<path d="M52.2373 43.0867C51.9397 44.2441 51.5498 45.1848 51.1906 45.7955C50.97 46.1747 50.6416 46.5983 50.2209 47.0465C50.1747 47.0957 50.1286 47.145 50.0824 47.1942C47.009 50.3266 39.3692 54.3011 29.5284 49.7503C24.7824 47.5587 22.5761 44.1703 21.786 40.6932C21.3191 38.6296 21.3447 36.5315 21.6372 34.6354C22.0374 32.035 22.9301 29.8088 23.7152 28.5431C24.5156 27.169 26.9014 25.2039 30.7751 24.475C32.0476 24.2337 33.4791 24.1303 35.0696 24.2238C36.6448 24.3174 38.379 24.6031 40.2671 25.1497C41.3908 25.4748 42.5657 25.8934 43.8023 26.4106C46.106 27.3857 47.8607 28.612 49.1742 29.9664C50.4364 31.2666 51.2932 32.6851 51.8576 34.133C53.0993 37.3392 52.8684 40.6735 52.2527 43.0769L52.2373 43.0867Z" fill="#FF5430"/>
<path d="M52.2374 43.0867C51.9398 44.2441 51.5499 45.1848 51.1907 45.7955C50.9444 46.2141 50.5699 46.6968 50.0773 47.1942C46.419 40.9493 35.4032 33.5174 30.2621 33.5174C26.2191 33.5174 22.7814 37.0043 21.7758 40.6981C20.6624 35.8075 22.3453 30.7397 23.705 28.548C24.5054 27.1739 26.8912 25.2088 30.7649 24.4799C30.2775 26.8834 30.0723 30.0009 31.8424 31.2863C34.5823 33.281 46.1728 41.0232 52.2322 43.0867H52.2374Z" fill="#431E0F"/>
<path d="M30.3647 42.9587C30.3647 44.3574 29.1795 45.4951 27.7223 45.4951C26.2652 45.4951 25.08 44.3574 25.08 42.9587C25.08 41.56 26.2652 40.4223 27.7223 40.4223C29.1795 40.4223 30.3647 41.56 30.3647 42.9587Z" fill="#431E0F"/>
<path d="M37.7634 39.7082C37.7634 41.1069 36.5782 42.2446 35.121 42.2446C33.6639 42.2446 32.4786 41.1069 32.4786 39.7082C32.4786 38.3095 33.6639 37.1718 35.121 37.1718C36.5782 37.1718 37.7634 38.3095 37.7634 39.7082Z" fill="#431E0F"/>
<path d="M43.6843 31.5917C43.6843 32.9904 42.4991 34.1281 41.0419 34.1281C39.5848 34.1281 38.3995 32.9904 38.3995 31.5917C38.3995 30.193 39.5848 29.0553 41.0419 29.0553C42.4991 29.0553 43.6843 30.193 43.6843 31.5917Z" fill="#431E0F"/>
<path d="M40.257 25.1547C40.0312 26.3367 38.9538 27.233 37.6608 27.233C36.2037 27.233 35.0184 26.0953 35.0184 24.6966C35.0184 24.539 35.0338 24.3814 35.0646 24.2337C36.6398 24.3273 38.374 24.6129 40.2621 25.1596L40.257 25.1547Z" fill="#431E0F"/>
<path d="M51.8423 34.1429C51.36 34.6354 50.6776 34.9407 49.9182 34.9407C48.456 34.9407 47.2759 33.8031 47.2759 32.4043C47.2759 31.2568 48.0712 30.2866 49.1589 29.9714C50.4211 31.2716 51.2779 32.69 51.8423 34.1379V34.1429Z" fill="#431E0F"/>
<path d="M41.6729 46.7116C41.6729 48.1103 40.4877 49.248 39.0305 49.248C37.5734 49.248 36.3882 48.1103 36.3882 46.7116C36.3882 45.3129 37.5734 44.1752 39.0305 44.1752C40.4877 44.1752 41.6729 45.3129 41.6729 46.7116Z" fill="#431E0F"/>
<g style="mix-blend-mode:multiply">
<path d="M50.2159 47.0514C50.1697 47.1007 50.1235 47.1499 50.0774 47.1992C47.004 50.3315 39.3642 54.306 29.5234 49.7553C24.7774 47.5636 22.5711 44.1752 21.781 40.6981C21.3141 38.6345 21.3397 36.5364 21.6322 34.6403L22.6532 34.33C22.6532 34.33 25.5059 48.2334 38.8255 50.361C43.9922 51.1885 47.6608 49.4647 50.221 47.0465L50.2159 47.0514Z" fill="#D3B8ED"/>
</g>
<path d="M30.6777 34.0247C29.8722 36.2262 28.1995 38.9448 24.2078 40.2943C21.3858 41.2448 17.4095 41.5107 11.7604 40.4174C6.00367 39.3043 2.5455 36.236 0.985739 33.0643C-0.958837 29.1046 0.0621937 24.9774 3.26895 24.2879C3.5768 24.2189 3.90517 24.1844 4.25406 24.1844C4.25406 24.1844 4.85437 19.5943 8.19965 16.2157L8.21505 16.2009C10.6727 13.7286 14.6029 11.9112 20.8522 13.0243C35.6546 15.6641 32.0579 30.2767 30.6829 34.0296L30.6777 34.0247Z" fill="#431E0F"/>
<path d="M24.2078 40.2943C21.3858 41.2448 17.4095 41.5107 11.7604 40.4174C6.00367 39.3043 2.5455 36.236 0.985739 33.0643C-0.958837 29.1046 0.0621938 24.9774 3.26895 24.2879C3.5768 24.2189 3.90517 24.1844 4.25406 24.1844C4.25406 24.1844 4.85437 19.5943 8.19966 16.2157L8.21505 16.2009C9.25147 15.2553 10.488 14.5314 11.7604 14.6446C15.1416 14.95 15.2494 17.9937 15.2494 17.9937C15.2494 17.9937 19.1591 14.0388 24.2334 16.3684C29.3078 18.7029 29.8363 25.8048 26.768 29.7596C30.9086 33.803 28.846 38.1223 24.2078 40.2893V40.2943Z" fill="#FCF1EE"/>
<path d="M18.6409 27.3266C18.1792 28.5431 17.0863 29.272 16.1935 28.9617C15.3059 28.6514 14.957 27.4153 15.4188 26.1988C15.8806 24.9823 16.9734 24.2534 17.8662 24.5637C18.7538 24.8739 19.1027 26.1101 18.6409 27.3266Z" fill="#431E0F"/>
<path d="M17.3581 26.1101C17.158 26.642 16.7168 26.9769 16.3833 26.8637C16.0446 26.7455 15.9369 26.2185 16.1421 25.6866C16.3422 25.1547 16.7835 24.8198 17.117 24.933C17.4556 25.0513 17.5634 25.5782 17.3581 26.1101Z" fill="white"/>
<path d="M8.96917 24.0515C8.5074 25.2679 7.41454 25.9969 6.52178 25.6866C5.63415 25.3763 5.28525 24.1401 5.74703 22.9236C6.2088 21.7071 7.30166 20.9782 8.19442 21.2885C9.08205 21.5988 9.43095 22.835 8.96917 24.0515Z" fill="#431E0F"/>
<path d="M7.68661 22.8399C7.48651 23.3718 7.04526 23.7067 6.71176 23.5934C6.37312 23.4752 6.26538 22.9483 6.47061 22.4163C6.67071 21.8844 7.11196 21.5495 7.44546 21.6628C7.7841 21.781 7.89184 22.308 7.68661 22.8399Z" fill="white"/>
<path d="M28.9076 3.99178C28.9178 3.59777 28.2867 3.59777 28.2713 3.99178C28.2611 4.29713 28.1995 4.5877 28.0918 4.85858C27.6505 3.77507 26.8963 3.09048 25.7829 3.20868C25.6803 2.99198 25.5571 2.78021 25.3981 2.58321C25.1569 2.27293 24.6028 2.57828 24.8491 2.88856C24.962 3.03138 25.0595 3.18407 25.1416 3.34167C25.0595 3.36629 24.9774 3.39584 24.9055 3.42539C24.7362 3.23331 24.531 3.06587 24.3001 2.94274C23.9461 2.74574 23.6228 3.27272 23.982 3.46972C24.1205 3.5436 24.2385 3.63717 24.3463 3.7406C23.551 4.34638 23.3817 5.40527 23.474 6.82368C23.3612 6.77443 23.238 6.73502 23.1098 6.7104C22.7147 6.62175 22.5454 7.20783 22.9404 7.29648C23.1559 7.34573 23.3612 7.42945 23.5356 7.5575C23.5459 7.64615 23.5561 7.73481 23.5664 7.82346C23.4381 7.79884 23.3047 7.7939 23.1713 7.79883C22.766 7.82345 22.7609 8.43417 23.1713 8.40954C23.3458 8.39969 23.5048 8.42431 23.6485 8.48341C23.6895 8.76414 23.7306 9.04978 23.7768 9.35021C23.6331 9.32559 23.4792 9.31082 23.3304 9.31575C22.925 9.3256 22.9199 9.93137 23.3304 9.92645C23.5202 9.92645 23.7049 9.95108 23.8794 10.0053C23.9615 10.5421 24.0436 11.1035 24.1257 11.6847C24.7619 16.4029 21.4268 19.683 22.7763 19.9785C23.8075 20.205 26.5012 15.3341 27.8506 11.9112C28.5741 10.0643 28.7947 7.5378 28.3483 5.68106C28.6921 5.17871 28.887 4.61232 28.9024 3.99669L28.9076 3.99178Z" fill="#431E0F"/>
<path d="M13.3868 4.30204C13.3612 4.53352 13.2996 4.75516 13.2175 4.96201C13.1354 4.58278 13.0379 4.21339 12.9199 3.85879C13.2175 3.39583 13.3663 2.86393 13.3458 2.31725C13.3304 1.92817 12.6993 1.92324 12.7096 2.31725C12.7198 2.57335 12.6839 2.81468 12.6121 3.04616C11.8373 1.24852 10.6008 0.0615819 9.06668 0.721538C9.04102 0.731388 9.0205 0.741241 8.99485 0.756017C8.81527 0.509764 8.61004 0.28814 8.36889 0.081288C8.06617 -0.179739 7.61466 0.248737 7.92251 0.509764C8.11748 0.677216 8.29192 0.859435 8.44585 1.05644C8.2714 1.17956 8.12261 1.30762 7.99947 1.45045C7.80963 1.25345 7.59414 1.07614 7.34273 0.938241C6.9887 0.741239 6.66546 1.26822 7.02462 1.46522C7.27602 1.60313 7.49665 1.78535 7.66597 2.00205C7.29655 2.94273 7.65057 4.20847 8.29192 5.79926C8.10208 5.77956 7.90711 5.79925 7.71214 5.84358C7.31707 5.947 7.48639 6.53309 7.88146 6.42966C8.12774 6.36563 8.36376 6.39026 8.58951 6.50846C8.66134 6.67591 8.73317 6.84829 8.81014 7.02067C8.65621 7.02067 8.50229 7.03052 8.34836 7.05022C7.94816 7.1044 8.11748 7.69048 8.51768 7.6363C8.70239 7.61168 8.89223 7.60674 9.07181 7.62644C9.29756 8.14357 9.52845 8.69025 9.76447 9.26156C9.903 9.60139 10.0159 9.94121 10.1082 10.2761C9.97996 10.2121 9.84656 10.1481 9.71829 10.084C9.354 9.90675 9.03589 10.4288 9.40018 10.611C9.69777 10.7588 9.99535 10.9065 10.2929 11.0494C10.9907 14.6988 9.37452 17.644 10.57 17.6243C11.6269 17.6046 13.002 12.2461 13.433 8.61145C13.5305 7.78404 13.51 6.85814 13.3817 5.93716C13.7254 5.46435 13.9461 4.90782 14.0179 4.30204C14.0641 3.91296 13.4279 3.91788 13.3817 4.30204H13.3868Z" fill="#431E0F"/>
<path opacity="0.5" d="M21.037 38.3144C23.882 38.3144 26.1883 36.1006 26.1883 33.3696C26.1883 30.6387 23.882 28.4249 21.037 28.4249C18.1919 28.4249 15.8856 30.6387 15.8856 33.3696C15.8856 36.1006 18.1919 38.3144 21.037 38.3144Z" fill="#FF5430"/>
<path opacity="0.5" d="M5.2597 28.1934C5.2597 30.6362 3.41261 32.6654 0.985739 33.0692C-0.958837 29.1095 0.0621937 24.9823 3.26895 24.2928C4.47982 25.199 5.2597 26.6125 5.2597 28.1983V28.1934Z" fill="#FF5430"/>
<path d="M10.8677 29.5724C10.6932 29.5724 10.5137 29.5429 10.3238 29.4739C8.95389 28.9716 9.33357 27.1591 9.34897 27.0803C9.37462 26.9572 9.50289 26.8784 9.63116 26.9031C9.75943 26.9277 9.84152 27.0508 9.81587 27.1739C9.81587 27.1887 9.50289 28.681 10.4931 29.0455C11.4988 29.4148 12.3402 28.1195 12.3454 28.1048C12.4121 27.9964 12.5609 27.9619 12.6737 28.0309C12.7866 28.0949 12.8225 28.2377 12.7507 28.3461C12.7148 28.4052 11.9503 29.5724 10.8677 29.5724Z" fill="#EC7856"/>
</g>
<defs>
<clipPath id="clip0_24_144">
<rect width="60" height="60" fill="white"/>
</clipPath>
</defs>
</svg>
