<svg width="60" height="60" viewBox="0 0 60 60" fill="none" xmlns="http://www.w3.org/2000/svg">
<path opacity="0.5" d="M33.3729 28.9146C33.3729 28.9146 26.3541 15.8745 29.1977 7.45186C32.0412 -0.970725 38.1036 -1.92199 41.4304 2.93205C44.7573 7.7861 45.9503 16.872 33.3729 28.9146Z" fill="#BBD1DC"/>
<path d="M25.5726 41.2348C25.5726 41.2348 25.5212 41.2708 25.4903 41.2965C25.4594 41.317 25.4235 41.3479 25.3926 41.3736C25.3258 41.425 25.2589 41.4867 25.1921 41.5433C25.0584 41.6564 24.9247 41.7798 24.7961 41.9084C24.6676 42.0369 24.5339 42.1603 24.4105 42.294L24.2202 42.4945L24.0351 42.7002C23.5466 43.2504 23.089 43.8417 22.6673 44.4588C22.5645 44.613 22.4617 44.7724 22.364 44.9318L22.2097 45.1684L22.0657 45.4101L21.7829 45.8985L21.5207 46.3973L21.387 46.6493C21.3459 46.7316 21.3047 46.819 21.2636 46.9064L21.0219 47.4206C20.8676 47.7651 20.734 48.1199 20.5848 48.4695L20.5643 48.5158C20.41 48.886 19.9832 49.0609 19.6079 48.9066C19.2531 48.7575 19.0782 48.3564 19.2016 48.0016C19.3302 47.616 19.4485 47.2303 19.5924 46.8498L19.8135 46.2791C19.8495 46.1865 19.8855 46.0888 19.9267 45.9962L20.0501 45.7186L20.2969 45.1581L20.5694 44.6079L20.7083 44.3354L20.8574 44.068C20.9551 43.888 21.0528 43.7081 21.1556 43.5281C21.5721 42.8185 22.0297 42.1346 22.5388 41.4764L22.7291 41.2296L22.9296 40.9879C23.0633 40.8285 23.2021 40.6691 23.3409 40.5149C23.4849 40.3606 23.6289 40.2064 23.7832 40.0521C23.8603 39.975 23.9374 39.903 24.0197 39.8258C24.0608 39.7899 24.0968 39.7487 24.1431 39.7127C24.1894 39.6716 24.2254 39.6407 24.2922 39.5842L24.3693 39.5173C24.8218 39.1522 25.4852 39.2191 25.8502 39.6767C26.2153 40.1292 26.1485 40.7925 25.6908 41.1576C25.6497 41.1885 25.6034 41.2193 25.5623 41.245L25.5726 41.2348Z" fill="#0E0E3D"/>
<path d="M20.41 48.6958C20.2763 49.4928 20.1529 50.3001 20.0346 51.1022C19.9164 51.9044 19.8032 52.7117 19.6952 53.5138C19.5924 54.3211 19.4896 55.1233 19.4073 55.9306C19.325 56.7378 19.253 57.5451 19.217 58.3576C19.217 58.4347 19.1502 58.4913 19.0731 58.4913C19.0011 58.4913 18.9445 58.4296 18.9445 58.3576C18.9137 57.54 18.924 56.7224 18.9445 55.9049C18.9651 55.0873 19.0011 54.2697 19.0422 53.4573C19.0834 52.6397 19.1348 51.8272 19.1913 51.0097C19.2479 50.1921 19.3096 49.3797 19.3816 48.5672C19.4073 48.2844 19.6541 48.0736 19.9369 48.0993C20.2197 48.125 20.4306 48.3718 20.4048 48.6546C20.4048 48.6701 20.4048 48.6803 20.4048 48.6906L20.41 48.6958Z" fill="#0E0E3D"/>
<path d="M28.3132 40.4275C28.1589 40.7463 27.9995 41.1011 27.8452 41.4456C27.691 41.7952 27.5419 42.1449 27.3979 42.4945C27.1099 43.199 26.8374 43.9086 26.5803 44.6233C26.3232 45.3381 26.097 46.0631 25.881 46.7881C25.6702 47.5131 25.4953 48.2484 25.3514 48.9837V48.9992C25.264 49.4105 24.8629 49.6779 24.4515 49.5956C24.0607 49.5185 23.8036 49.1534 23.8448 48.7626C23.9373 47.9605 24.0556 47.1686 24.2098 46.387C24.3692 45.6054 24.5441 44.829 24.7497 44.0577C24.9503 43.2915 25.1714 42.5254 25.4131 41.7695C25.5313 41.389 25.6547 41.0136 25.7833 40.6383C25.9118 40.2578 26.0404 39.8927 26.1946 39.5019C26.4209 38.9054 27.0894 38.6072 27.6858 38.8334C28.2823 39.0597 28.5805 39.7281 28.3543 40.3246C28.344 40.3555 28.3286 40.3812 28.3183 40.412V40.4223L28.3132 40.4275Z" fill="#0E0E3D"/>
<path d="M25.0789 49.1277C25.0994 49.9145 25.1508 50.7166 25.2074 51.5136C25.2691 52.3106 25.3411 53.1025 25.4388 53.8944C25.5416 54.6862 25.6496 55.4781 25.8039 56.2597C25.9581 57.0413 26.1381 57.8177 26.3901 58.5736C26.4055 58.625 26.3798 58.6816 26.3284 58.697C26.2821 58.7124 26.2255 58.6867 26.2101 58.6404C25.9016 57.8897 25.6702 57.1133 25.4594 56.3368C25.2537 55.5552 25.0891 54.7634 24.9349 53.9715C24.7806 53.1796 24.6572 52.3826 24.5441 51.5805C24.431 50.7783 24.3333 49.9813 24.2561 49.1689C24.2356 48.9426 24.4001 48.7472 24.6264 48.7215C24.8526 48.7009 25.048 48.8655 25.0737 49.0917C25.0737 49.102 25.0737 49.1072 25.0737 49.1174L25.0789 49.1277Z" fill="#0E0E3D"/>
<path d="M31.1978 40.7308C31.1464 40.8851 31.0899 41.0754 31.0384 41.2502C30.987 41.4302 30.9356 41.6101 30.8842 41.7901C30.7865 42.1552 30.6939 42.5203 30.6065 42.8905C30.4317 43.6258 30.2826 44.3714 30.1592 45.1221C30.0306 45.8677 29.9483 46.6236 29.8866 47.3743C29.8249 48.1302 29.8198 48.8809 29.8404 49.6368V49.6522C29.8506 49.9556 29.6141 50.2075 29.3107 50.2178C29.0331 50.2281 28.7914 50.0224 28.7502 49.755C28.6268 48.958 28.5394 48.161 28.5034 47.3589C28.4726 46.5567 28.4623 45.7546 28.4983 44.9576C28.5291 44.1606 28.5908 43.3584 28.6783 42.5665C28.7245 42.1706 28.7708 41.7695 28.8274 41.3736C28.8582 41.1731 28.8839 40.9777 28.9199 40.7771C28.9508 40.5766 28.9868 40.3812 29.0279 40.1652C29.1513 39.5533 29.7427 39.1574 30.3494 39.2808C30.9562 39.4042 31.3521 39.9955 31.2338 40.6023C31.2235 40.6486 31.2133 40.6949 31.1978 40.736V40.7308Z" fill="#0E0E3D"/>
<path d="M29.825 49.9967C30.0359 50.8349 30.2672 51.6833 30.5089 52.5214C30.7506 53.3596 31.0077 54.1926 31.2802 55.0204C31.5527 55.8483 31.8407 56.671 32.1698 57.4783C32.4937 58.2856 32.8434 59.0878 33.265 59.8436C33.2959 59.8951 33.2753 59.9619 33.2239 59.9876C33.1725 60.0133 33.1108 59.9979 33.0851 59.9516C32.6069 59.206 32.2109 58.4142 31.8355 57.6171C31.4602 56.8201 31.1208 56.0077 30.7969 55.1901C30.4729 54.3725 30.1695 53.5447 29.8764 52.7168C29.5833 51.8838 29.3057 51.056 29.0383 50.2075C28.9715 49.9916 29.0897 49.7653 29.3057 49.6985C29.5217 49.6316 29.7479 49.7499 29.8147 49.9659C29.8147 49.971 29.8147 49.9813 29.8199 49.9864L29.825 49.9967Z" fill="#0E0E3D"/>
<path d="M33.594 42.0986C33.6558 42.8699 33.7329 43.6618 33.81 44.4382C33.8923 45.2198 33.9797 46.0014 34.0774 46.7778C34.1751 47.5543 34.2831 48.3307 34.4116 49.0969C34.5402 49.863 34.6841 50.6292 34.8795 51.3388V51.3491C34.9927 51.7398 34.7664 52.1409 34.3756 52.254C34.0105 52.3569 33.6352 52.1615 33.4963 51.8221C33.1775 51.0302 32.9513 50.2538 32.7302 49.4722C32.5091 48.6906 32.3137 47.9142 32.1286 47.1326C31.9435 46.351 31.7635 45.5694 31.5989 44.7879C31.4293 44.0011 31.2699 43.2247 31.1156 42.4277C30.9871 41.7489 31.4293 41.0908 32.108 40.9622C32.7867 40.8337 33.4449 41.2759 33.5735 41.9546C33.5838 42.0009 33.5889 42.042 33.594 42.0883V42.0986Z" fill="#0E0E3D"/>
<path d="M34.6996 51.7604C34.9927 52.4597 35.3218 53.1642 35.6663 53.8481C36.0159 54.5371 36.3862 55.2107 36.7769 55.874C37.1729 56.5373 37.5945 57.1801 38.0419 57.8074C38.4995 58.4245 38.988 59.0209 39.5228 59.5711C39.5793 59.6328 39.5793 59.7254 39.5228 59.7768C39.4662 59.8282 39.3788 59.8334 39.3222 59.7768C38.7412 59.242 38.2064 58.6661 37.7076 58.0594C37.214 57.4475 36.7461 56.815 36.3039 56.1671C35.8668 55.5141 35.4503 54.8456 35.0595 54.1669C34.6687 53.483 34.2934 52.7991 33.9437 52.0792C33.846 51.8787 33.9283 51.6319 34.1339 51.5342C34.3345 51.4365 34.5813 51.5188 34.679 51.7244C34.679 51.7296 34.6842 51.7399 34.6893 51.745V51.7553L34.6996 51.7604Z" fill="#0E0E3D"/>
<path d="M58.219 40.2578C58.147 41.9855 57.602 43.5641 56.6867 44.9164C56.6456 44.9781 56.6044 45.0347 56.5582 45.0964C56.409 45.3072 56.2496 45.5129 56.08 45.7134C55.9771 45.842 55.8691 45.9602 55.756 46.0836C55.6943 46.1505 55.6275 46.2225 55.5606 46.2893C55.5452 46.3047 55.5298 46.3202 55.5143 46.3356C55.4424 46.4076 55.3704 46.4796 55.2932 46.5464C55.2932 46.5464 55.2932 46.5464 55.2881 46.5516C55.211 46.6287 55.1287 46.7007 55.0464 46.7727C54.9641 46.8447 54.8767 46.9166 54.7945 46.9886C54.6711 47.0915 54.5476 47.1892 54.4191 47.2869C54.3214 47.3589 54.2237 47.4308 54.126 47.5028C54.0232 47.5748 53.9255 47.6417 53.8226 47.7085C53.7198 47.7754 53.6221 47.8371 53.5141 47.9039C53.509 47.9039 53.5038 47.9091 53.4987 47.9142C53.293 48.0427 53.077 48.161 52.8611 48.2741C52.7634 48.3256 52.6657 48.377 52.5628 48.4284C52.532 48.4438 52.5011 48.4592 52.4703 48.4695C52.3983 48.5055 52.3314 48.5364 52.2594 48.5724C52.2132 48.5929 52.1669 48.6135 52.1258 48.6341C52.0126 48.6855 51.8995 48.7369 51.7812 48.7832C51.6784 48.8243 51.5704 48.8706 51.4624 48.9117C51.4573 48.9117 51.4522 48.9117 51.447 48.9169C51.3493 48.9529 51.2516 48.9889 51.1488 49.0249C51.1128 49.0352 51.0768 49.0506 51.0408 49.0609C50.9431 49.0969 50.8403 49.1277 50.7426 49.1637C50.7323 49.1637 50.722 49.1688 50.7117 49.174C50.6037 49.21 50.4906 49.2408 50.3775 49.2768C50.3518 49.282 50.3312 49.2922 50.3055 49.2974C50.2078 49.3282 50.105 49.354 50.0073 49.3797C49.9713 49.3899 49.9353 49.4002 49.9044 49.4054C49.8016 49.4311 49.6987 49.4568 49.5959 49.4774C49.565 49.4825 49.5393 49.4928 49.5085 49.4979C49.3902 49.5236 49.2771 49.5493 49.1588 49.5699C49.1485 49.5699 49.1383 49.5699 49.128 49.5699C48.9994 49.5956 48.8709 49.6213 48.7372 49.6419C48.6446 49.6573 48.5469 49.6728 48.4544 49.6882C48.3567 49.7036 48.2641 49.719 48.1664 49.7293C48.0687 49.7396 47.9762 49.755 47.8785 49.7653C47.7808 49.7756 47.6831 49.7859 47.5854 49.7962C47.4054 49.8116 47.2203 49.827 47.0352 49.8373C46.9529 49.8373 46.8706 49.8476 46.7884 49.8476C46.7061 49.8476 46.6238 49.8527 46.5416 49.8579C46.2433 49.8682 45.9451 49.8682 45.6417 49.8579C45.6211 49.8579 45.6006 49.8579 45.5749 49.8579C45.4412 49.8579 45.3075 49.8527 45.1738 49.8424C45.0092 49.8322 44.8498 49.8219 44.6853 49.8116C44.6802 49.8116 44.675 49.8116 44.6699 49.8116C44.531 49.8013 44.3922 49.791 44.2534 49.7756H44.2482C44.1248 49.7653 43.9963 49.7499 43.8729 49.7345C43.8214 49.7293 43.7649 49.719 43.7135 49.7139C43.5849 49.6985 43.4615 49.683 43.333 49.6625C43.2044 49.6419 43.0759 49.6213 42.9473 49.6008C42.8547 49.5853 42.7571 49.5699 42.6645 49.5494C42.5771 49.5339 42.4897 49.5185 42.4023 49.4979C42.2891 49.4774 42.1709 49.4517 42.0526 49.4259C41.9035 49.3951 41.7544 49.3591 41.6104 49.3231C41.6104 49.3231 41.6052 49.3231 41.6001 49.3231C41.451 49.2871 41.3019 49.2511 41.1528 49.21C40.402 49.0094 39.6461 48.7575 38.8851 48.4541C36.6638 47.5748 34.8332 46.5053 33.3266 45.3226C28.9919 41.9083 27.3825 37.5325 27.0894 34.0154C26.9146 31.9174 27.2025 30.1229 27.6653 29.0174C27.8967 28.6111 28.1384 28.2255 28.4006 27.8656C31.131 24.045 35.4297 22.6516 39.9341 23.0578C42.6336 23.2995 45.4155 24.189 47.9813 25.5928C50.3518 26.8937 52.5423 28.6266 54.3162 30.6988C54.8356 31.3107 55.3241 31.9483 55.7663 32.6116C56.0748 33.0693 56.3576 33.5423 56.625 34.0257C56.6661 34.1028 56.7073 34.1799 56.7484 34.2571C56.7587 34.2776 56.769 34.2931 56.7741 34.3085C56.8255 34.401 56.8718 34.4936 56.9181 34.5913C56.9335 34.6221 56.949 34.653 56.9644 34.6838C56.9747 34.7044 56.9849 34.7198 56.9901 34.7404C57.0569 34.8844 57.1289 35.0284 57.1906 35.1723C57.2266 35.2495 57.2575 35.3214 57.2883 35.3986C57.2883 35.4089 57.2986 35.4191 57.2986 35.4294C57.3295 35.4963 57.3552 35.558 57.3809 35.6248C57.3912 35.6505 57.4015 35.6814 57.4117 35.7071C57.4323 35.7534 57.4477 35.7997 57.4683 35.8459C57.4837 35.8871 57.4991 35.9282 57.5146 35.9693C57.5146 35.9745 57.5146 35.9796 57.5197 35.9899C57.5506 36.0773 57.5866 36.1647 57.6123 36.2522C57.6277 36.2933 57.638 36.3293 57.6534 36.3653C57.6843 36.4527 57.71 36.5401 57.7357 36.6224C57.7408 36.6429 57.746 36.6584 57.7511 36.6789C57.7922 36.8178 57.8334 36.9515 57.8694 37.0852C57.8745 37.1006 57.8797 37.116 57.8848 37.1314C57.9002 37.1828 57.9105 37.2343 57.9259 37.2857C57.9362 37.3165 57.9414 37.3525 57.9516 37.3834C57.9568 37.4194 57.9671 37.4554 57.9722 37.4862C57.9876 37.5376 57.9979 37.5839 58.0082 37.6353C58.0082 37.6559 58.0185 37.6713 58.0185 37.6868C58.0339 37.7536 58.0493 37.8205 58.0596 37.8873C58.0699 37.9541 58.0853 38.021 58.0956 38.0878C58.1059 38.1393 58.1162 38.1907 58.1213 38.2472C58.1213 38.2678 58.1265 38.2935 58.1316 38.3141C58.1316 38.3398 58.1368 38.3604 58.1419 38.3809C58.1419 38.4066 58.147 38.4375 58.1522 38.4581C58.1522 38.4632 58.1522 38.4735 58.1522 38.4786C58.1522 38.4838 58.1522 38.4889 58.1522 38.4992C58.1573 38.5403 58.1625 38.5866 58.1727 38.6278C58.1779 38.6946 58.1882 38.7563 58.1933 38.818C58.1933 38.8386 58.1933 38.854 58.1985 38.8694C58.1985 38.9054 58.2036 38.9363 58.2087 38.9723C58.2087 39.0031 58.2087 39.034 58.2139 39.0648C58.2139 39.0803 58.2139 39.0957 58.2139 39.1162C58.2139 39.1625 58.219 39.2088 58.2242 39.2551V39.2654C58.2242 39.2654 58.2242 39.3065 58.2242 39.3219C58.2242 39.3322 58.2242 39.3476 58.2242 39.3579C58.2242 39.3888 58.2242 39.4196 58.2242 39.4505C58.2242 39.4916 58.2242 39.5327 58.2242 39.5739C58.2242 39.5893 58.2242 39.5996 58.2242 39.615C58.2242 39.6253 58.2242 39.6304 58.2242 39.6407C58.2242 39.6459 58.2242 39.6561 58.2242 39.6613C58.2242 39.8618 58.2242 40.0572 58.2139 40.2475L58.219 40.2578Z" fill="#383854"/>
<path d="M48.7321 49.6522C46.4234 50.043 43.8318 49.935 41.1425 49.21C40.3918 49.0095 39.6359 48.7575 38.8749 48.4541C36.6536 47.5749 34.823 46.5053 33.3164 45.3227C36.1702 44.865 39.2348 42.8442 40.978 37.0338C43.3124 29.2591 41.6413 25.1249 39.9239 23.0527C42.6234 23.2943 45.4052 24.1839 47.9711 25.5877C50.3416 26.8886 52.532 28.6215 54.306 30.6937C55.1905 31.7221 55.9669 32.8379 56.6148 34.0257C60.8621 41.7953 56.2703 48.377 48.7424 49.6522H48.7321Z" fill="#56567D"/>
<path d="M58.219 40.2578C58.147 41.9855 57.6019 43.5641 56.6867 44.9164C56.6455 44.973 56.6044 45.0347 56.5633 45.0912C56.5633 45.0912 56.5633 45.0912 56.5633 45.0964C56.4141 45.3072 56.2547 45.5129 56.085 45.7134C55.9822 45.842 55.8742 45.9602 55.7611 46.0836C55.6994 46.1505 55.6326 46.2225 55.5657 46.2893C55.5503 46.3047 55.5349 46.3202 55.5194 46.3356C55.4475 46.4076 55.3755 46.4796 55.2983 46.5464C55.2983 46.5464 55.2983 46.5464 55.2932 46.5516C55.2161 46.6287 55.1338 46.7007 55.0515 46.7727C54.9692 46.8447 54.8818 46.9166 54.7995 46.9886C54.6761 47.0915 54.5527 47.1892 54.4242 47.2869C54.3265 47.3589 54.2288 47.4308 54.1311 47.5028C54.0283 47.5748 53.9306 47.6417 53.8277 47.7085C53.7249 47.7754 53.6272 47.8371 53.5192 47.9039C53.5141 47.9039 53.5089 47.909 53.5038 47.9142C53.2981 48.0427 53.0821 48.161 52.8662 48.2741C52.7685 48.3255 52.6708 48.377 52.5679 48.4284C52.5371 48.4438 52.5062 48.4592 52.4754 48.4695C52.4034 48.5055 52.3365 48.5364 52.2645 48.5724C52.2183 48.5929 52.172 48.6135 52.1309 48.6341C52.0177 48.6855 51.9046 48.7369 51.7863 48.7832C51.6835 48.8243 51.5755 48.8706 51.4675 48.9117C51.4624 48.9117 51.4573 48.9117 51.4521 48.9169C51.3544 48.9529 51.2567 48.9889 51.1539 49.0249C51.1179 49.0351 51.0819 49.0506 51.0459 49.0608C50.9482 49.0968 50.8454 49.1277 50.7477 49.1637C50.7374 49.1637 50.7271 49.1688 50.7168 49.174C50.6088 49.21 50.4957 49.2408 50.3826 49.2768C50.3569 49.282 50.3363 49.2922 50.3106 49.2974C50.2129 49.3282 50.1101 49.3539 50.0124 49.3797C49.9764 49.3899 49.9404 49.4002 49.9095 49.4054C49.8067 49.4311 49.7038 49.4568 49.601 49.4774C49.5701 49.4825 49.5444 49.4928 49.5136 49.4979C49.3953 49.5236 49.2822 49.5493 49.1639 49.5699C49.1536 49.5699 49.1434 49.5699 49.1331 49.5699C49.0045 49.5956 48.876 49.6213 48.7423 49.6419C48.6497 49.6573 48.552 49.6727 48.4595 49.6882C48.3618 49.7036 48.2692 49.719 48.1715 49.7293C48.0738 49.7396 47.9813 49.755 47.8836 49.7653C47.7859 49.7756 47.6882 49.7859 47.5905 49.7962C47.647 49.8527 47.7036 49.899 47.7705 49.9504C48.0018 50.1201 47.7756 50.5109 47.5442 50.3412C47.3488 50.1972 47.1791 50.0327 47.0403 49.8424C46.958 49.8424 46.8757 49.8527 46.7935 49.8527C46.7112 49.8527 46.6289 49.8579 46.5467 49.863C46.2484 49.8733 45.9502 49.8733 45.6468 49.863C45.6262 49.863 45.6057 49.863 45.58 49.863C45.4463 49.863 45.3126 49.8579 45.1789 49.8476C45.2663 50.0635 45.3897 50.2641 45.5491 50.4492C45.7394 50.6703 45.4206 50.9891 45.2303 50.768C44.9835 50.48 44.8035 50.1612 44.6904 49.8167C44.6852 49.8167 44.6801 49.8167 44.675 49.8167C44.5361 49.8064 44.3973 49.7962 44.2585 49.7807H44.2533C44.1299 49.7704 44.0014 49.755 43.878 49.7396C43.8265 49.7345 43.77 49.7242 43.7186 49.719C43.59 49.7036 43.4666 49.6882 43.3381 49.6676C43.2095 49.647 43.081 49.6265 42.9524 49.6059C42.8598 49.5905 42.7621 49.5751 42.6696 49.5545C42.5822 49.5391 42.4948 49.5236 42.4074 49.5031C42.2942 49.4825 42.176 49.4568 42.0577 49.4311C41.9086 49.4002 41.7595 49.3642 41.6155 49.3282C41.6155 49.3282 41.6103 49.3282 41.6052 49.3282C41.4561 49.2922 41.307 49.2562 41.1578 49.2151C42.7004 48.1867 44.5156 46.5258 46.1764 43.8623C46.8912 42.7156 47.5802 41.389 48.2075 39.8413C50.9122 33.1772 49.3593 28.2101 47.9813 25.5928C50.3517 26.8937 52.5422 28.6266 54.3162 30.6988C54.8355 31.3107 55.324 31.9483 55.7662 32.6116C56.0748 33.0693 56.3576 33.5423 56.625 34.0257C56.6661 34.1028 56.7072 34.1799 56.7484 34.257C56.7587 34.2776 56.7689 34.293 56.7741 34.3085C56.8255 34.401 56.8718 34.4936 56.918 34.5913C56.9335 34.6221 56.9489 34.653 56.9643 34.6838C56.9746 34.7044 56.9849 34.7198 56.99 34.7404C57.0569 34.8844 57.1289 35.0283 57.1906 35.1723C57.2266 35.2495 57.2574 35.3214 57.2883 35.3986C57.3191 35.4757 57.35 35.5477 57.3808 35.6248C57.4117 35.702 57.4425 35.7739 57.4682 35.8511C57.4837 35.8922 57.4991 35.9333 57.5145 35.9745C57.5505 36.067 57.5865 36.1647 57.6174 36.2573C57.6328 36.2933 57.6431 36.3344 57.6534 36.3704C57.6842 36.4578 57.7099 36.5452 57.7356 36.6275C57.7408 36.6481 57.7459 36.6635 57.7511 36.6841C57.7922 36.8126 57.8282 36.9412 57.859 37.0697C57.859 37.0749 57.859 37.0851 57.8642 37.0903C57.8693 37.1057 57.8745 37.1211 57.8796 37.1366C57.9053 37.2188 57.9259 37.3063 57.9464 37.3885C57.967 37.4759 57.9876 37.5582 58.003 37.6405C58.003 37.6611 58.0133 37.6765 58.0133 37.6919C58.0287 37.7587 58.0442 37.8256 58.0544 37.8924C58.0647 37.9593 58.0802 38.0261 58.0904 38.093C58.1007 38.1444 58.111 38.1958 58.1161 38.2524C58.1213 38.2987 58.1316 38.3449 58.1367 38.3912C58.1367 38.4221 58.147 38.4581 58.1521 38.4889C58.1573 38.5352 58.1676 38.5866 58.1727 38.638C58.1778 38.7049 58.1881 38.7666 58.1933 38.8283C58.1933 38.8489 58.1933 38.8643 58.1933 38.8797C58.1933 38.9157 58.1984 38.9466 58.2035 38.9825C58.2035 39.0288 58.2087 39.0751 58.2138 39.1214C58.2138 39.1677 58.219 39.2139 58.2241 39.2602C58.2241 39.2911 58.2241 39.3116 58.2241 39.3271C58.2241 39.3373 58.2241 39.3528 58.2241 39.363C58.2241 39.435 58.2293 39.5122 58.2293 39.5842C58.2293 39.5996 58.2293 39.6099 58.2293 39.6253C58.2293 39.6407 58.2293 39.6561 58.2293 39.6716C58.2293 39.8721 58.2293 40.0675 58.219 40.2578Z" fill="#383854"/>
<path d="M58.759 36.5555C58.4042 36.5298 58.0648 36.571 57.7357 36.6789C57.7769 36.8178 57.818 36.9515 57.854 37.0852C57.8694 37.152 57.89 37.2189 57.9054 37.2857C57.9208 37.3525 57.9362 37.4194 57.9517 37.4862C57.9671 37.5531 57.9825 37.6199 57.9979 37.6868C58.0134 37.7536 58.0237 37.8205 58.0391 37.8873C58.0494 37.9542 58.0648 38.021 58.0751 38.0878C58.0854 38.1393 58.0957 38.1907 58.1008 38.2472C58.1008 38.2678 58.1059 38.2935 58.1111 38.3141C58.1162 38.3655 58.1265 38.4118 58.1316 38.4632C58.1316 38.4684 58.1316 38.4786 58.1316 38.4838C58.1316 38.4889 58.1316 38.4941 58.1316 38.5043C58.1471 38.6329 58.1625 38.7563 58.1728 38.8797C58.1779 38.9466 58.1831 39.0083 58.1882 39.0751C58.1882 39.1368 58.1985 39.1985 58.2036 39.2602V39.2705C58.2036 39.3322 58.2088 39.3991 58.2139 39.4608C58.2139 39.5019 58.2139 39.543 58.2139 39.5842C58.2139 39.6047 58.2139 39.6253 58.2139 39.651C58.2139 39.8567 58.2139 40.0572 58.2088 40.2578C58.1316 42.0626 57.5403 43.7029 56.5531 45.0912C56.3988 45.3021 56.2394 45.5129 56.0697 45.7134C56.2857 45.7957 56.4862 45.9088 56.6713 46.0631C56.8976 46.243 56.5736 46.5619 56.3525 46.3819C56.1726 46.2328 55.9669 46.1351 55.7406 46.0837C55.6738 46.1505 55.6121 46.2225 55.5452 46.2893C55.5298 46.3048 55.5144 46.3202 55.4989 46.3356C55.427 46.4076 55.355 46.4796 55.2778 46.5464C55.2778 46.5464 55.2778 46.5464 55.2727 46.5516C55.1956 46.6287 55.1133 46.7007 55.031 46.7727C54.9488 46.8447 54.8613 46.9167 54.7791 46.9886C55.0105 47.1223 55.2316 47.2766 55.4475 47.4411C55.6738 47.6211 55.355 47.9348 55.1287 47.7599C54.8973 47.58 54.6557 47.4257 54.4037 47.2869C54.306 47.3589 54.2083 47.4309 54.1106 47.5028C54.0078 47.5748 53.9101 47.6417 53.8072 47.7085C53.7044 47.7754 53.6067 47.8371 53.4987 47.9039C53.4936 47.9039 53.4884 47.9091 53.4833 47.9142C53.2776 48.0428 53.0616 48.161 52.8457 48.2741C52.748 48.3256 52.6503 48.377 52.5474 48.4284C52.5166 48.4438 52.4857 48.4593 52.4549 48.4695C52.3829 48.5055 52.316 48.5364 52.2441 48.5724C52.1978 48.5929 52.1515 48.6135 52.1104 48.6341C51.9973 48.6855 51.8841 48.7369 51.7659 48.7832C51.663 48.8243 51.555 48.8706 51.4471 48.9117C51.4419 48.9117 51.4368 48.9117 51.4316 48.9169C51.3339 48.9529 51.2362 48.9889 51.1334 49.0249C51.0974 49.0352 51.0614 49.0506 51.0254 49.0609C50.9277 49.0969 50.8249 49.1277 50.7272 49.1637C50.7169 49.1637 50.7066 49.1688 50.6963 49.174C50.5883 49.21 50.4752 49.2408 50.3621 49.2768C50.3364 49.282 50.3158 49.2923 50.2901 49.2974C50.1924 49.3283 50.0896 49.354 49.9919 49.3797C49.9559 49.39 49.9199 49.4002 49.889 49.4054C49.7862 49.4311 49.6833 49.4568 49.5805 49.4774C49.5497 49.4825 49.524 49.4928 49.4931 49.4979C49.3748 49.5236 49.2617 49.5494 49.1434 49.5699C49.1331 49.5699 49.1229 49.5699 49.1126 49.5699C48.984 49.5956 48.8555 49.6213 48.7218 49.6419C50.3467 48.2176 52.0435 45.9448 53.3445 42.3351C53.3907 42.2014 53.4421 42.0678 53.4884 41.9289C55.2521 36.7869 54.9847 33.0898 54.2854 30.6834C54.8048 31.2953 55.2933 31.9329 55.7355 32.5962C56.044 33.0538 56.3268 33.5269 56.5942 34.0102C56.6353 34.0874 56.6765 34.1645 56.7176 34.2416C56.7279 34.2622 56.7382 34.2776 56.7433 34.2931C56.7947 34.3856 56.841 34.4833 56.8873 34.5759C56.9027 34.6067 56.9181 34.6376 56.9336 34.6684C56.9439 34.689 56.9541 34.7044 56.9593 34.725C57.0261 34.869 57.0981 35.0129 57.1598 35.1569C57.1958 35.2443 57.2369 35.3266 57.2678 35.414C57.3089 35.5066 57.3449 35.5991 57.3809 35.6917C57.4169 35.7791 57.4478 35.8665 57.4837 35.9591C57.4837 35.9642 57.4838 35.9693 57.4889 35.9796C57.5197 36.067 57.5557 36.1545 57.5814 36.2419C57.9517 36.1185 58.3425 36.067 58.7435 36.0927C59.0315 36.1133 59.0315 36.5658 58.7435 36.5452L58.759 36.5555Z" fill="#56567D"/>
<g style="mix-blend-mode:multiply">
<path d="M58.7589 36.5556C58.4041 36.5298 58.0648 36.571 57.7357 36.679C57.7768 36.8075 57.8128 36.9361 57.8437 37.0646C57.8437 37.0698 57.8437 37.08 57.8488 37.0852C57.854 37.1006 57.8591 37.116 57.8642 37.1315C57.89 37.2137 57.9105 37.3011 57.9311 37.3834C57.9516 37.4708 57.9722 37.5531 57.9876 37.6354C57.9876 37.6559 57.9979 37.6714 57.9979 37.6868C58.0134 37.7536 58.0288 37.8205 58.0391 37.8873C58.0494 37.9542 58.0648 38.021 58.0751 38.0879C58.0853 38.1393 58.0956 38.1907 58.1008 38.2473C58.1059 38.2936 58.1162 38.3398 58.1213 38.3861C58.1213 38.417 58.1316 38.453 58.1368 38.4838C58.1419 38.5301 58.1522 38.5815 58.1573 38.6329C58.1625 38.6998 58.1728 38.7615 58.1779 38.8232C58.1779 38.8437 58.1779 38.8592 58.183 38.8746C58.183 38.9106 58.1882 38.9414 58.1933 38.9774C58.1933 39.0237 58.1985 39.07 58.2036 39.1163C58.2036 39.1625 58.2088 39.2088 58.2139 39.2551C58.2139 39.286 58.2139 39.3065 58.2139 39.322C58.2139 39.3322 58.2139 39.3477 58.2139 39.3579C58.2139 39.4299 58.219 39.5071 58.219 39.5791C58.219 39.5945 58.219 39.6048 58.219 39.6202C58.219 39.6356 58.219 39.651 58.219 39.6665C58.219 39.867 58.219 40.0624 58.2087 40.2527C58.1368 41.9804 57.5917 43.559 56.6764 44.9113C56.6353 44.973 56.5942 45.0296 56.5479 45.0913C56.3988 45.3021 56.2394 45.5078 56.0697 45.7083C56.2856 45.7906 56.4862 45.9037 56.6713 46.058C56.8975 46.2379 56.5736 46.5567 56.3525 46.3768C56.1725 46.2276 55.9668 46.13 55.7406 46.0785C55.6789 46.1454 55.612 46.2174 55.5452 46.2842C55.5298 46.2996 55.5143 46.3151 55.4989 46.3305C55.4269 46.4025 55.3549 46.4745 55.2778 46.5413C55.2778 46.5413 55.2778 46.5413 55.2727 46.5465C55.1955 46.6236 55.1133 46.6956 55.031 46.7676C54.9487 46.8396 54.8613 46.9115 54.779 46.9835C55.0104 47.1172 55.2315 47.2715 55.4475 47.436C55.6737 47.616 55.3549 47.9297 55.1287 47.7548C54.8973 47.5749 54.6556 47.4206 54.4037 47.2818C54.306 47.3537 54.2083 47.4257 54.1106 47.4977C54.0077 47.5697 53.91 47.6366 53.8072 47.7034C53.7044 47.7702 53.6067 47.832 53.4987 47.8988C53.4935 47.8988 53.4884 47.9039 53.4833 47.9091C53.2776 48.0376 53.0616 48.1559 52.8457 48.269C52.748 48.3204 52.6502 48.3719 52.5474 48.4233C52.5166 48.4387 52.4857 48.4541 52.4549 48.4644C52.3829 48.5004 52.316 48.5313 52.244 48.5673C52.1978 48.5878 52.1515 48.6084 52.1103 48.629C51.9972 48.6804 51.8841 48.7318 51.7658 48.7781C51.663 48.8192 51.555 48.8655 51.447 48.9066C51.4419 48.9066 51.4367 48.9066 51.4316 48.9118C51.3339 48.9478 51.2362 48.9838 51.1334 49.0198C51.0974 49.03 51.0614 49.0455 51.0254 49.0557C50.9277 49.0917 50.8248 49.1226 50.7272 49.1586C50.7169 49.1586 50.7066 49.1637 50.6963 49.1689C50.5883 49.2049 50.4752 49.2357 50.3621 49.2717C50.3363 49.2769 50.3158 49.2871 50.2901 49.2923C50.1924 49.3231 50.0895 49.3488 49.9918 49.3746C49.9559 49.3848 49.9199 49.3951 49.889 49.4003C49.7862 49.426 49.6833 49.4517 49.5805 49.4722C49.5496 49.4774 49.5239 49.4877 49.4931 49.4928C49.3748 49.5185 49.2617 49.5442 49.1434 49.5648C49.1331 49.5648 49.1228 49.5648 49.1126 49.5648C48.984 49.5905 48.8555 49.6162 48.7218 49.6368C48.6292 49.6522 48.5315 49.6676 48.439 49.6831C48.3413 49.6985 48.2487 49.7139 48.151 49.7242C48.0533 49.7345 47.9608 49.7499 47.8631 49.7602C47.7654 49.7705 47.6677 49.7808 47.57 49.7911C47.6265 49.8476 47.6831 49.8939 47.7499 49.9453C47.9813 50.115 47.7551 50.5058 47.5237 50.3361C47.3283 50.1921 47.1586 50.0276 47.0198 49.8373C46.9375 49.8373 46.8552 49.8476 46.773 49.8476C46.6907 49.8476 46.6084 49.8528 46.5261 49.8579C46.2279 49.8682 45.9297 49.8682 45.6263 49.8579C45.6057 49.8579 45.5851 49.8579 45.5594 49.8579C45.4257 49.8579 45.2921 49.8528 45.1584 49.8425C45.2458 50.0584 45.3692 50.259 45.5286 50.4441C45.7188 50.6652 45.4 50.984 45.2098 50.7629C44.963 50.4749 44.783 50.1561 44.6699 49.8116C44.6647 49.8116 44.6596 49.8116 44.6545 49.8116C44.5156 49.8013 44.3768 49.7911 44.238 49.7756H44.2328C44.1094 49.7653 43.9808 49.7499 43.8574 49.7345C43.806 49.7294 43.7495 49.7191 43.698 49.7139C43.5695 49.6985 43.4461 49.6831 43.3175 49.6625C43.189 49.6419 43.0604 49.6214 42.9319 49.6008C42.8393 49.5854 42.7416 49.57 42.6491 49.5494C42.5617 49.534 42.4742 49.5185 42.3868 49.498C42.2737 49.4774 42.1554 49.4517 42.0372 49.426C41.8881 49.3951 41.7389 49.3591 41.595 49.3231C41.595 49.3231 41.5898 49.3231 41.5847 49.3231C41.4356 49.2871 41.2865 49.2511 41.1373 49.21C40.3866 49.0095 39.6307 48.7575 38.8697 48.4541C36.6484 47.5749 34.8178 46.5053 33.3112 45.3227C28.9765 41.9084 27.3671 37.5325 27.074 34.0154L28.4006 32.1232C28.4006 32.1232 34.4116 42.9419 45.9811 43.8469C46.0376 43.8469 46.0993 43.8572 46.1559 43.8572C49.3182 44.0783 51.6938 43.4767 53.3547 42.3454C56.3833 40.2886 57.0312 36.463 55.7457 32.6116C56.0542 33.0693 56.3371 33.5424 56.6044 34.0257C56.6456 34.1028 56.6867 34.18 56.7279 34.2571C56.7381 34.2777 56.7484 34.2931 56.7536 34.3085C56.805 34.4011 56.8513 34.4936 56.8975 34.5913C56.913 34.6222 56.9284 34.653 56.9438 34.6839C56.9541 34.7044 56.9644 34.7199 56.9695 34.7404C57.0364 34.8844 57.1084 35.0284 57.1701 35.1724C57.2061 35.2495 57.2369 35.3215 57.2678 35.3986C57.2986 35.4757 57.3295 35.5477 57.3603 35.6249C57.3912 35.702 57.422 35.774 57.4477 35.8511C57.4632 35.8922 57.4786 35.9334 57.494 35.9745C57.53 36.0671 57.566 36.1648 57.5968 36.2573C57.9671 36.1339 58.3579 36.0825 58.7589 36.1082C59.0469 36.1288 59.0469 36.5813 58.7589 36.5607V36.5556Z" fill="#BD91E5"/>
</g>
<path opacity="0.5" d="M31.8612 25.9579C31.8612 25.9579 36.9723 12.0591 45.1584 8.59851C53.3496 5.14309 58.0802 9.05101 56.6559 14.7586C55.2264 20.4714 49.2154 27.3822 31.8612 25.9527V25.9579Z" fill="#BBD1DC"/>
<path d="M33.7636 36.0259C32.6581 40.9365 26.4517 42.3351 16.831 41.6358C9.07176 41.0702 5.5495 38.3501 4.47997 35.9539C4.22287 35.378 4.10974 34.8278 4.10974 34.3239C4.10974 31.7169 6.5162 29.7167 8.51644 30.1177C8.51644 30.1177 8.11535 16.2909 21.6388 16.0904C23.3922 16.0647 24.9142 16.2961 26.2306 16.7331C35.0748 19.6589 34.7252 31.7529 33.7636 36.0259Z" fill="#383854"/>
<g style="mix-blend-mode:multiply">
<path d="M33.7638 36.0259C32.6582 40.9365 26.4518 42.3351 16.8312 41.6358C9.0719 41.0702 5.54964 38.3501 4.4801 35.9539C10.2186 42.4534 32.18 43.4047 32.3086 31.3673C32.3909 23.5206 29.1411 19.1087 26.2307 16.7331C35.075 19.6589 34.7253 31.7529 33.7638 36.0259Z" fill="#BD91E5"/>
</g>
<path d="M12.625 34.8278C12.625 34.8278 11.1235 40.7411 7.91489 41.8415C4.40805 40.0367 2.10444 41.0394 2.0016 43.343C1.9039 45.6466 6.31059 45.5489 8.11029 45.3483C9.21068 48.4541 12.7175 50.3566 13.823 48.1559C14.9286 45.9551 11.4166 43.3481 11.4166 43.3481C11.4166 43.3481 13.823 38.1393 16.9288 37.7382C16.8311 34.4319 14.5224 32.8276 12.6198 34.833L12.625 34.8278Z" fill="#383854"/>
<path d="M31.3317 28.1381C31.3317 32.6219 26.2976 36.3293 22.5388 36.3293C21.0117 36.3293 19.9319 35.7174 19.1863 34.689C18.1013 33.1875 17.7311 30.8017 17.7311 28.1432C17.7311 23.6594 20.7751 20.0292 24.5288 20.0292C25.6498 20.0292 26.709 20.3531 27.6448 20.929C29.8353 22.2762 31.3317 25.0015 31.3317 28.1432V28.1381Z" fill="#E22A5E"/>
<path d="M15.0673 26.7652C14.5377 30.8634 13.3653 34.1542 10.7481 33.82C9.04092 33.5989 7.13838 31.8763 6.17682 29.5727C5.66777 28.3489 5.42095 26.9606 5.60092 25.5414C6.13055 21.4432 8.68098 18.3992 11.2931 18.7385C11.7148 18.7951 12.1158 18.9339 12.4809 19.1499C14.3937 20.2554 15.5095 23.3355 15.0622 26.7703L15.0673 26.7652Z" fill="#E22A5E"/>
<path d="M23.8191 17.9929C24.2716 17.5918 25.8502 6.79881 25.1715 4.91683C24.4927 3.04001 18.5589 5.51845 18.636 6.94792C18.7131 8.3774 23.2175 7.9249 23.8191 8.15115C24.4207 8.37739 23.742 16.7177 23.4438 17.7667C23.3666 17.9929 23.6494 18.142 23.8191 17.9929Z" fill="#0E0E3D"/>
<path d="M17.9264 17.6895C18.2195 17.1599 16.1627 6.44914 14.9081 4.89626C13.6534 3.34337 8.86109 7.63695 9.401 8.95844C9.94091 10.2799 14.0493 8.37739 14.6921 8.39282C15.3348 8.40824 17.4379 16.5069 17.4996 17.6021C17.4996 17.8387 17.8184 17.8901 17.9264 17.6895Z" fill="#0E0E3D"/>
<path d="M21.0373 22.6516C24.0711 20.8673 26.2975 22.3533 25.3977 26.107C24.4978 29.8658 20.4408 31.6655 19.2376 31.2181C18.0344 30.7656 18.4869 24.153 21.0424 22.6516H21.0373Z" fill="white"/>
<path d="M9.46784 20.5485C10.9693 19.7978 11.8743 23.8548 10.6711 25.8088C9.46785 27.7627 7.66301 29.2642 6.76316 28.3643C5.86331 27.4645 6.46492 22.0551 9.46784 20.5485Z" fill="white"/>
<g style="mix-blend-mode:multiply">
<path d="M31.3315 28.1381C31.3315 32.6219 26.2975 36.3293 22.5387 36.3293C21.0116 36.3293 19.9317 35.7174 19.1862 34.689C22.6776 36.2573 27.6499 33.8406 28.9971 29.4185C30.046 25.9887 28.7348 22.8007 27.6396 20.9239C29.8301 22.2711 31.3264 24.9963 31.3264 28.1381H31.3315Z" fill="#E5B3FF"/>
</g>
<g style="mix-blend-mode:multiply">
<path d="M15.0674 26.7652C14.5378 30.8634 13.3654 34.1542 10.7481 33.82C9.04098 33.5989 7.13843 31.8763 6.17688 29.5727C8.15655 31.5318 11.2675 33.5578 12.9232 29.2745C14.5121 25.166 13.4888 21.4072 12.4861 19.1499C14.3989 20.2554 15.5147 23.3355 15.0674 26.7703V26.7652Z" fill="#E5B3FF"/>
</g>
</svg>
