<?xml version="1.0" encoding="UTF-8"?><svg id="Layer_1" xmlns="http://www.w3.org/2000/svg" viewBox="0 0 280 68"><defs><style>.cls-1{fill:none;}.cls-2{fill:#00eae4;}.cls-3{fill:#00d9d8;}.cls-4{fill:#00c6c1;}.cls-5{fill:#00b7b2;}.cls-6{fill:#fff;}</style></defs><rect class="cls-1" y="14.99" width="280" height="53.01"/><path class="cls-5" d="m280,42.87c0,13.88-14.27,25.13-31.88,25.13H31.88C14.27,68,0,56.75,0,42.87s14.27-25.13,31.88-25.13h77.49c-.04.25-.05.51-.05.78,0,.87.13,1.58.41,2.18.17.37.4.7.68.99.72.75,1.71,1.11,3.01,1.11.84,0,1.73-.19,2.62-.56.81-.34,1.69-.85,2.65-1.54.21-.14.42-.3.63-.46l1.86-1.42s-.01-.09-.01-.13l-.98-.95h16.22c-.04.25-.05.51-.05.78,0,.86.13,1.58.39,2.18.16.35.36.66.6.93.62.69,1.41,1.02,2.49,1.02s1.86-.32,2.48-1.02c.24-.27.44-.58.59-.93.26-.6.39-1.32.39-2.18,0-.27-.01-.53-.04-.78h45.15c-.32.81-.73,1.55-1.24,2.23-.19.26-.4.5-.62.73h2.43v-2.96h59.14c17.61,0,31.88,11.25,31.88,25.13Z"/><path class="cls-3" d="m276.24,42.87c0,1.15-.11,2.27-.32,3.37h0c-.46,2.39-1.41,4.65-2.76,6.72-.34.52-.7,1.02-1.09,1.52-.41.52-.85,1.04-1.31,1.54-.41.42-.83.84-1.26,1.25-.48.43-.98.86-1.5,1.27-5.08,4.01-12.11,6.49-19.88,6.49H33.64c-12.93,0-23.82-6.88-27.1-16.26-.66-1.88-1.01-3.86-1.01-5.9,0-2.4.49-4.72,1.38-6.88.11-.28.24-.55.37-.82.15-.35.33-.69.51-1.03.59-1.07,1.28-2.11,2.07-3.09.23-.3.48-.59.74-.88.01,0,.01-.01.01-.01.31-.35.63-.69.97-1.03.26-.25.52-.5.78-.73.22-.21.45-.41.68-.6.11-.1.22-.19.33-.28.13-.12.27-.22.4-.33.63-.5,1.3-.98,1.99-1.42h.01c1.04-.69,2.14-1.31,3.3-1.86,4.25-2.04,9.23-3.21,14.57-3.21h76.09c.17.37.4.7.68.99.72.75,1.71,1.11,3.01,1.11.84,0,1.73-.19,2.62-.56.81-.34,1.69-.85,2.65-1.54h18.06c.16.35.36.66.6.93.62.69,1.41,1.02,2.49,1.02s1.86-.32,2.48-1.02c.24-.27.44-.58.59-.93h105.22c12.26,0,22.67,6.19,26.52,14.81h0c1.03,2.3,1.58,4.78,1.58,7.36Z"/><path class="cls-4" d="m275.91,46.25c-.92,4.77-3.78,9.04-7.91,12.29-5.09,4.01-12.12,6.49-19.88,6.49H33.64c-12.93,0-23.82-6.88-27.1-16.26,11.33,3.3,39.54,6.82,107.89,7.19,110.22.58,147.49-.42,161.48-9.71h0Z"/><path class="cls-2" d="m274.65,35.51c-13.71-4.15-35.37-5.44-60.65-5.54-.61,0-1.22,0-1.84,0h-1.83c-5.73,0-11.64.06-17.67.16-.61.01-1.22.02-1.84.03-.54,0-1.09.02-1.64.03h-.2c-.65.01-1.3.02-1.96.04-.72.01-1.44.02-2.17.04-2.6.05-5.21.11-7.84.17-.68.02-1.37.03-2.05.05-1.16.03-2.32.06-3.49.08-.61.02-1.23.04-1.84.05-2.47.06-4.95.13-7.44.2-.61.01-1.22.03-1.83.04-.61.02-1.23.04-1.84.05-1.57.04-3.14.09-4.72.13-.9.02-1.81.05-2.72.07-1.08.03-2.17.06-3.25.08-5.11.14-10.22.27-15.31.38-1.1.03-2.18.05-3.27.07-.91.02-1.82.04-2.73.05-1.52.04-3.04.07-4.55.09-.61.01-1.22.02-1.83.03-.62.01-1.23.02-1.85.03-4.09.07-8.15.11-12.17.14-1.19.01-2.37.01-3.54.01-.96.01-1.92.01-2.88.01-2.25,0-4.48-.01-6.7-.03-.87,0-1.73-.01-2.6-.02h-.01c-1.07-.01-2.13-.02-3.19-.04-3.22-.04-6.39-.11-9.51-.2-1.8-.05-3.56-.1-5.28-.14-1.38-.03-2.73-.05-4.06-.07-.66-.01-1.32-.01-1.97-.02-30.43-.31-48.74,2.05-59.47,4.52.11-.28.24-.55.37-.82.15-.35.33-.69.51-1.03.59-1.07,1.28-2.11,2.07-3.09.23-.3.48-.59.74-.88.01,0,.01-.01.01-.01.31-.35.63-.69.97-1.03.26-.25.52-.5.78-.73.22-.21.45-.41.68-.6.11-.1.22-.19.33-.28.13-.1.26-.21.4-.32.63-.5,1.3-.98,1.99-1.43h.01c1.04-.69,2.14-1.31,3.3-1.86,4.25-2.04,9.23-3.21,14.57-3.21h76.09c.17.37.4.7.68.99.72.75,1.71,1.11,3.01,1.11.84,0,1.73-.19,2.62-.56.81-.34,1.69-.85,2.65-1.54h18.06c.16.35.36.66.6.93.62.69,1.41,1.02,2.49,1.02s1.86-.32,2.48-1.02c.24-.27.44-.58.59-.93h105.22c12.26,0,22.67,6.19,26.52,14.81Z"/><rect class="cls-1" x="66" width="148" height="37"/><path class="cls-6" d="m68.31,31.6l3.62-8.88c1.62,1.14,3.07,1.98,4.34,2.5,1.27.53,2.46.79,3.56.79.77,0,1.38-.15,1.83-.44.44-.3.67-.7.67-1.2,0-.88-1.11-1.55-3.34-2.02-.72-.16-1.28-.28-1.68-.37-2.36-.58-4.16-1.6-5.4-3.08-1.25-1.47-1.87-3.31-1.87-5.5,0-3.41,1.21-6.18,3.64-8.32,2.43-2.13,5.61-3.2,9.54-3.2,1.81,0,3.59.24,5.34.72,1.75.48,3.52,1.2,5.3,2.17l-3.45,8.29c-1.09-.81-2.18-1.43-3.28-1.85-1.1-.42-2.16-.64-3.2-.64-.79,0-1.4.13-1.83.4-.43.27-.65.64-.65,1.11,0,.9,1.57,1.68,4.72,2.36.5.11.89.2,1.16.26,2.17.49,3.88,1.49,5.12,3.01,1.25,1.52,1.87,3.35,1.87,5.5,0,3.51-1.26,6.37-3.78,8.59-2.52,2.22-5.8,3.34-9.83,3.34-2.07,0-4.14-.3-6.2-.89-2.07-.59-4.14-1.48-6.2-2.66h0Z"/><path class="cls-5" d="m94.7,17.74c-.16-.29-.35-.56-.56-.83-.08-.13-.18-.25-.28-.37-.61-.74-1.31-1.39-2.11-1.93l4.43-10.67-1.46-.79c-1.9-1.03-3.81-1.82-5.69-2.33-1.9-.52-3.85-.78-5.82-.78-4.37,0-7.99,1.24-10.75,3.66-2.83,2.5-4.26,5.76-4.26,9.71,0,1.58.28,3.03.85,4.33.36.86.85,1.65,1.46,2.37.11.13.22.26.34.38l-.09.21-4.38,10.77-.38.93,1.4.8c2.19,1.26,4.41,2.21,6.61,2.84,2.22.64,4.47.96,6.7.96h0c4.48,0,8.18-1.27,11.03-3.79.45-.4.87-.82,1.25-1.25,1.37-1.56,2.3-3.34,2.77-5.35.26-1.07.39-2.2.39-3.39,0-.88-.09-1.72-.27-2.52-.24-1.06-.63-2.05-1.19-2.96Zm-5.37,12.69c-.65.58-1.36,1.07-2.13,1.47-1.81.94-3.95,1.41-6.48,1.41-1.89,0-3.81-.28-5.7-.82-.86-.24-1.74-.55-2.61-.93-.59-.23-1.18-.51-1.77-.8l2.15-5.25c.99.6,1.92,1.08,2.78,1.44,1.49.61,2.93.92,4.27.92,1.14,0,2.09-.25,2.84-.75.96-.64,1.49-1.61,1.49-2.74,0-2.42-2.68-3.33-4.16-3.68-.25-.06-.46-.11-.62-.14-.71-.16-1.26-.28-1.67-.37-1.93-.48-3.41-1.3-4.39-2.45l-.02-.02c-.96-1.14-1.43-2.55-1.43-4.3,0-2.87.98-5.14,3.01-6.92,2.1-1.86,4.82-2.75,8.33-2.75,1.64,0,3.27.21,4.86.65,1.12.3,2.26.72,3.42,1.26l-1.95,4.67c-.59-.33-1.18-.61-1.77-.84-1.3-.51-2.6-.76-3.86-.76-1.14,0-2.06.22-2.79.67-.98.61-1.52,1.56-1.52,2.69,0,2.5,3.12,3.51,6.15,4.16.52.12.91.21,1.17.26,1.12.26,2.07.67,2.87,1.23.47.34.88.72,1.24,1.16.45.55.79,1.14,1.03,1.8.28.76.42,1.6.42,2.52,0,2.98-1.03,5.34-3.16,7.21Z"/><path class="cls-6" d="m120.2,15.19c-1.03-.99-2.09-1.74-3.16-2.23-1.08-.49-2.21-.74-3.4-.74-1.85,0-3.34.57-4.47,1.72-1.13,1.15-1.69,2.67-1.69,4.58s.54,3.35,1.62,4.46c1.08,1.11,2.52,1.67,4.33,1.67,1.09,0,2.2-.23,3.33-.7,1.12-.47,2.36-1.22,3.69-2.24l-.37,11.93c-1.23.5-2.47.88-3.7,1.14-1.24.25-2.47.38-3.7.38-1.54,0-3.01-.17-4.43-.52-1.42-.35-2.71-.84-3.85-1.47-2.79-1.62-4.89-3.66-6.32-6.13-1.43-2.47-2.14-5.31-2.14-8.51,0-2.37.4-4.56,1.22-6.58.81-2.02,1.99-3.8,3.54-5.35,1.56-1.56,3.38-2.74,5.43-3.54,2.06-.8,4.29-1.2,6.69-1.2,1.28,0,2.54.13,3.78.4,1.24.27,2.45.67,3.63,1.2v11.74h0Z"/><path class="cls-5" d="m122.04,18.16V2.26l-1.08-.49c-1.29-.59-2.64-1.03-4-1.32-1.36-.3-2.76-.45-4.16-.45-2.62,0-5.09.45-7.35,1.33-2.29.89-4.33,2.22-6.07,3.95-1.72,1.72-3.05,3.73-3.95,5.97-.71,1.76-1.14,3.66-1.29,5.66-.02.27-.04.55-.04.83-.02.26-.02.52-.02.78,0,.74.04,1.47.12,2.18.2,2.13.73,4.1,1.57,5.91.21.46.45.91.7,1.35.86,1.48,1.94,2.82,3.23,4.03,1.11,1.03,2.37,1.97,3.79,2.79,1.29.71,2.73,1.27,4.31,1.65,1.55.38,3.19.57,4.87.57h0c1.35.01,2.71-.13,4.07-.41,1.34-.27,2.69-.69,4.03-1.23l1.1-.46.1-3.13.21-6.92.13-4.15.09-2.82-.36.28Zm-.86.66l-1.86,1.42c-.21.16-.42.32-.63.46-.96.69-1.84,1.2-2.65,1.54-.89.37-1.78.56-2.62.56-1.3,0-2.29-.36-3.01-1.11-.28-.29-.51-.62-.68-.99-.28-.6-.41-1.31-.41-2.18,0-.27.01-.53.05-.78.11-1.04.47-1.86,1.1-2.5.78-.79,1.8-1.17,3.15-1.17.94,0,1.81.19,2.65.57.88.4,1.78,1.04,2.66,1.88l1.26,1.22.98.95.08.07-.07.06Zm-2.89,13.01v.51c-.78.26-1.54.47-2.29.62-2.5.51-5.05.43-7.34-.12-.92-.23-1.77-.52-2.54-.87-.29-.13-.57-.27-.83-.41-2.49-1.44-4.39-3.28-5.65-5.46-.93-1.6-1.52-3.41-1.77-5.4-.09-.71-.13-1.43-.13-2.18,0-.26.01-.52.02-.78.08-1.83.44-3.54,1.07-5.11.71-1.78,1.77-3.37,3.13-4.73,1.38-1.37,3-2.42,4.81-3.13,1.84-.71,3.87-1.08,6.02-1.08,1.15,0,2.29.12,3.4.36.73.16,1.46.37,2.17.64v6.86c-.19-.1-.38-.19-.57-.28-1.31-.59-2.71-.9-4.16-.9-2.35,0-4.29.77-5.77,2.27-1.31,1.33-2.04,3.08-2.19,5.1-.02.26-.03.52-.03.78,0,.77.08,1.5.24,2.18.3,1.39.94,2.59,1.89,3.57,1.44,1.48,3.33,2.23,5.65,2.23,1.33,0,2.68-.29,4.03-.85.34-.14.69-.3,1.04-.49l-.2,6.67Z"/><path class="cls-6" d="m156.68,17.74c-.07-2.04-.47-3.96-1.19-5.74-.81-2-2-3.78-3.55-5.32-1.59-1.56-3.42-2.75-5.47-3.56-2.05-.82-4.26-1.23-6.63-1.23s-4.58.41-6.63,1.23c-2.05.81-3.87,2-5.45,3.56-1.57,1.53-2.75,3.3-3.55,5.3-.72,1.78-1.12,3.7-1.19,5.76-.01.26-.02.52-.02.78,0,.75.04,1.47.13,2.18.16,1.53.53,2.98,1.08,4.34.8,2,1.99,3.76,3.55,5.29.48.47.97.9,1.49,1.3,1.22.95,2.54,1.71,3.98,2.29,2.06.82,4.29,1.23,6.61,1.23s4.52-.41,6.58-1.23c1.72-.69,3.27-1.63,4.66-2.82.27-.23.54-.48.8-.73,1.58-1.58,2.77-3.36,3.59-5.36.56-1.36.93-2.8,1.1-4.31.09-.71.13-1.44.13-2.18,0-.26-.01-.52-.02-.78Zm-11.54.78c0,.8-.1,1.53-.3,2.18-.23.83-.62,1.55-1.16,2.16-.97,1.1-2.25,1.64-3.84,1.64s-2.88-.54-3.86-1.64c-.54-.61-.93-1.33-1.16-2.16-.2-.66-.3-1.38-.3-2.18,0-.27.01-.53.03-.78.13-1.45.6-2.65,1.43-3.59.98-1.11,2.26-1.67,3.86-1.67s2.87.55,3.84,1.66c.83.94,1.3,2.14,1.43,3.6.02.25.03.51.03.78Z"/><path class="cls-5" d="m146.94,17.74c-.13-1.93-.76-3.55-1.88-4.83-1.31-1.49-3.11-2.28-5.22-2.28s-3.91.8-5.23,2.3c-1.13,1.28-1.77,2.89-1.9,4.81-.02.25-.03.51-.03.78,0,.77.08,1.5.24,2.18.28,1.31.86,2.45,1.7,3.4,1.34,1.49,3.09,2.25,5.22,2.25h0c2.13,0,3.89-.76,5.21-2.26.84-.94,1.41-2.07,1.69-3.39.16-.68.23-1.4.23-2.18,0-.26,0-.52-.03-.78Zm-3.64.78c0,.86-.13,1.58-.39,2.18-.15.35-.35.66-.59.93-.62.7-1.4,1.02-2.48,1.02s-1.87-.33-2.49-1.02c-.24-.27-.44-.58-.6-.93-.26-.6-.39-1.32-.39-2.18,0-.27.01-.53.05-.78.1-.98.42-1.76.95-2.37.63-.71,1.42-1.04,2.48-1.04s1.85.32,2.47,1.03c.53.61.85,1.4.95,2.38.03.25.04.51.04.78Zm3.64-.78c-.13-1.93-.76-3.55-1.88-4.83-1.31-1.49-3.11-2.28-5.22-2.28s-3.91.8-5.23,2.3c-1.13,1.28-1.77,2.89-1.9,4.81-.02.25-.03.51-.03.78,0,.77.08,1.5.24,2.18.28,1.31.86,2.45,1.7,3.4,1.34,1.49,3.09,2.25,5.22,2.25h0c2.13,0,3.89-.76,5.21-2.26.84-.94,1.41-2.07,1.69-3.39.16-.68.23-1.4.23-2.18,0-.26,0-.52-.03-.78Zm-3.64.78c0,.86-.13,1.58-.39,2.18-.15.35-.35.66-.59.93-.62.7-1.4,1.02-2.48,1.02s-1.87-.33-2.49-1.02c-.24-.27-.44-.58-.6-.93-.26-.6-.39-1.32-.39-2.18,0-.27.01-.53.05-.78.1-.98.42-1.76.95-2.37.63-.71,1.42-1.04,2.48-1.04s1.85.32,2.47,1.03c.53.61.85,1.4.95,2.38.03.25.04.51.04.78Zm3.64-.78c-.13-1.93-.76-3.55-1.88-4.83-1.31-1.49-3.11-2.28-5.22-2.28s-3.91.8-5.23,2.3c-1.13,1.28-1.77,2.89-1.9,4.81-.02.25-.03.51-.03.78,0,.77.08,1.5.24,2.18.28,1.31.86,2.45,1.7,3.4,1.34,1.49,3.09,2.25,5.22,2.25h0c2.13,0,3.89-.76,5.21-2.26.84-.94,1.41-2.07,1.69-3.39.16-.68.23-1.4.23-2.18,0-.26,0-.52-.03-.78Zm-3.64.78c0,.86-.13,1.58-.39,2.18-.15.35-.35.66-.59.93-.62.7-1.4,1.02-2.48,1.02s-1.87-.33-2.49-1.02c-.24-.27-.44-.58-.6-.93-.26-.6-.39-1.32-.39-2.18,0-.27.01-.53.05-.78.1-.98.42-1.76.95-2.37.63-.71,1.42-1.04,2.48-1.04s1.85.32,2.47,1.03c.53.61.85,1.4.95,2.38.03.25.04.51.04.78Zm3.64-.78c-.13-1.93-.76-3.55-1.88-4.83-1.31-1.49-3.11-2.28-5.22-2.28s-3.91.8-5.23,2.3c-1.13,1.28-1.77,2.89-1.9,4.81-.02.25-.03.51-.03.78,0,.77.08,1.5.24,2.18.28,1.31.86,2.45,1.7,3.4,1.34,1.49,3.09,2.25,5.22,2.25h0c2.13,0,3.89-.76,5.21-2.26.84-.94,1.41-2.07,1.69-3.39.16-.68.23-1.4.23-2.18,0-.26,0-.52-.03-.78Zm-3.64.78c0,.86-.13,1.58-.39,2.18-.15.35-.35.66-.59.93-.62.7-1.4,1.02-2.48,1.02s-1.87-.33-2.49-1.02c-.24-.27-.44-.58-.6-.93-.26-.6-.39-1.32-.39-2.18,0-.27.01-.53.05-.78.1-.98.42-1.76.95-2.37.63-.71,1.42-1.04,2.48-1.04s1.85.32,2.47,1.03c.53.61.85,1.4.95,2.38.03.25.04.51.04.78Zm15.23-.78c0-.1,0-.2-.01-.3-.11-2.17-.56-4.23-1.32-6.13-.91-2.23-2.24-4.23-3.97-5.95-1.76-1.73-3.8-3.06-6.08-3.96-2.25-.9-4.72-1.35-7.3-1.35s-5.05.45-7.31,1.35c-2.28.9-4.32,2.24-6.06,3.96-1.74,1.7-3.08,3.7-3.97,5.93-.18.44-.34.89-.47,1.35-.51,1.61-.79,3.32-.85,5.1-.02.26-.02.52-.02.78v.17s0,.09.01.13c0,.64.04,1.26.1,1.88.15,1.44.45,2.83.9,4.15.1.3.21.6.33.89.89,2.22,2.23,4.21,3.96,5.9.02.02.03.03.05.04,1.76,1.72,3.78,3.05,6.03,3.95,2.26.91,4.71,1.37,7.29,1.37h0c2.55,0,4.99-.46,7.26-1.36,2.27-.91,4.31-2.24,6.07-3.96.21-.21.42-.43.62-.65,1.45-1.58,2.58-3.37,3.38-5.32.65-1.57,1.07-3.25,1.25-5.01.04-.36.07-.72.09-1.09.02-.36.03-.72.03-1.09,0-.26,0-.52-.02-.78Zm-3.66.79c0,.74-.05,1.47-.14,2.17-.17,1.27-.48,2.48-.95,3.61-.72,1.76-1.79,3.36-3.18,4.74-.84.83-1.77,1.54-2.77,2.13-.66.4-1.36.74-2.08,1.03-1.84.73-3.79,1.1-5.9,1.1s-4.11-.37-5.94-1.1c-.48-.19-.94-.41-1.39-.65-1.27-.66-2.43-1.52-3.48-2.55-1.37-1.35-2.43-2.91-3.13-4.66-.46-1.14-.77-2.36-.93-3.65-.1-.7-.14-1.43-.14-2.17,0-.27,0-.53.02-.79.08-1.82.43-3.51,1.05-5.06.7-1.76,1.76-3.33,3.14-4.68,1.39-1.38,3.02-2.45,4.83-3.17,1.83-.72,3.83-1.09,5.96-1.09h0c2.12,0,4.13.37,5.95,1.1,1.82.72,3.46,1.78,4.86,3.15,1.36,1.36,2.42,2.95,3.13,4.71.63,1.55.98,3.26,1.06,5.04.01.26.02.52.02.79Zm-9.81-5.62c-1.31-1.49-3.11-2.28-5.22-2.28s-3.91.8-5.23,2.3c-1.13,1.28-1.77,2.89-1.9,4.81-.02.25-.03.51-.03.78,0,.77.08,1.5.24,2.18.28,1.31.86,2.45,1.7,3.4,1.34,1.49,3.09,2.25,5.22,2.25h0c2.13,0,3.89-.76,5.21-2.26.84-.94,1.41-2.07,1.69-3.39.16-.68.23-1.4.23-2.18,0-.26,0-.52-.03-.78-.13-1.93-.76-3.55-1.88-4.83Zm-1.76,5.61c0,.86-.13,1.58-.39,2.18-.15.35-.35.66-.59.93-.62.7-1.4,1.02-2.48,1.02s-1.87-.33-2.49-1.02c-.24-.27-.44-.58-.6-.93-.26-.6-.39-1.32-.39-2.18,0-.27.01-.53.05-.78.1-.98.42-1.76.95-2.37.63-.71,1.42-1.04,2.48-1.04s1.85.32,2.47,1.03c.53.61.85,1.4.95,2.38.03.25.04.51.04.78Zm3.64-.78c-.13-1.93-.76-3.55-1.88-4.83-1.31-1.49-3.11-2.28-5.22-2.28s-3.91.8-5.23,2.3c-1.13,1.28-1.77,2.89-1.9,4.81-.02.25-.03.51-.03.78,0,.77.08,1.5.24,2.18.28,1.31.86,2.45,1.7,3.4,1.34,1.49,3.09,2.25,5.22,2.25h0c2.13,0,3.89-.76,5.21-2.26.84-.94,1.41-2.07,1.69-3.39.16-.68.23-1.4.23-2.18,0-.26,0-.52-.03-.78Zm-3.64.78c0,.86-.13,1.58-.39,2.18-.15.35-.35.66-.59.93-.62.7-1.4,1.02-2.48,1.02s-1.87-.33-2.49-1.02c-.24-.27-.44-.58-.6-.93-.26-.6-.39-1.32-.39-2.18,0-.27.01-.53.05-.78.1-.98.42-1.76.95-2.37.63-.71,1.42-1.04,2.48-1.04s1.85.32,2.47,1.03c.53.61.85,1.4.95,2.38.03.25.04.51.04.78Zm3.64-.78c-.13-1.93-.76-3.55-1.88-4.83-1.31-1.49-3.11-2.28-5.22-2.28s-3.91.8-5.23,2.3c-1.13,1.28-1.77,2.89-1.9,4.81-.02.25-.03.51-.03.78,0,.77.08,1.5.24,2.18.28,1.31.86,2.45,1.7,3.4,1.34,1.49,3.09,2.25,5.22,2.25h0c2.13,0,3.89-.76,5.21-2.26.84-.94,1.41-2.07,1.69-3.39.16-.68.23-1.4.23-2.18,0-.26,0-.52-.03-.78Zm-3.64.78c0,.86-.13,1.58-.39,2.18-.15.35-.35.66-.59.93-.62.7-1.4,1.02-2.48,1.02s-1.87-.33-2.49-1.02c-.24-.27-.44-.58-.6-.93-.26-.6-.39-1.32-.39-2.18,0-.27.01-.53.05-.78.1-.98.42-1.76.95-2.37.63-.71,1.42-1.04,2.48-1.04s1.85.32,2.47,1.03c.53.61.85,1.4.95,2.38.03.25.04.51.04.78Z"/><path class="cls-6" d="m188.98,33.22l-1.96-3-5.75-8.82c.83-.11,1.59-.34,2.27-.7.84-.42,1.57-1.04,2.17-1.85.26-.35.49-.72.69-1.11.64-1.25.96-2.74.96-4.46,0-3.45-1.09-6.09-3.27-7.92-2.19-1.83-5.34-2.75-9.48-2.75h-14.25v31.7h11.11v-10.46l3.49,6.63,2.02,3.83h12.71l-.71-1.09Zm-17.51-22.45h1.77c1.08,0,1.91.27,2.49.81.58.55.87,1.35.87,2.33s-.29,1.74-.87,2.26c-.58.53-1.41.79-2.49.79h-1.77v-6.19Z"/><path class="cls-5" d="m176.96,10.23c-.92-.87-2.18-1.31-3.73-1.31h-3.6v11.78h2.26l-1-1.89h2.34c1.42,0,2.59-.36,3.49-1.07.08-.06.16-.12.23-.19.67-.62,1.48-1.72,1.48-3.64s-.8-3.07-1.47-3.68Zm-3.66,2.39c.4,0,.91.07,1.17.32.07.07.29.26.29.97,0,.65-.2.83-.27.89-.27.25-.78.31-1.19.32v-2.5Zm3.66-2.39c-.92-.87-2.18-1.31-3.73-1.31h-3.6v11.78h2.26l-1-1.89h2.34c1.42,0,2.59-.36,3.49-1.07.08-.06.16-.12.23-.19.67-.62,1.48-1.72,1.48-3.64s-.8-3.07-1.47-3.68Zm-3.66,2.39c.4,0,.91.07,1.17.32.07.07.29.26.29.97,0,.65-.2.83-.27.89-.27.25-.78.31-1.19.32v-2.5Zm18.58,21.69l-1.06-1.63-1.64-2.5-.2-.31-4.83-7.4c.9-.43,1.71-1.02,2.4-1.77.22-.23.43-.47.62-.73.51-.68.92-1.42,1.24-2.23.26-.65.45-1.35.57-2.09.14-.75.21-1.53.21-2.36,0-.91-.07-1.78-.21-2.6-.46-2.79-1.7-5.06-3.72-6.75-2.51-2.11-6.09-3.18-10.65-3.18h-16.09v35.4h14.78v-4.88l2.58,4.88h17.21l-1.21-1.85Zm-20.99-15.5h2.34c1.42,0,2.59-.36,3.49-1.07.08-.06.16-.12.23-.19.67-.62,1.48-1.72,1.48-3.64s-.8-3.07-1.47-3.68c-.92-.87-2.18-1.31-3.73-1.31h-3.6v23.54h-7.44V4.45h12.42c3.67,0,6.46.79,8.3,2.32,1.75,1.48,2.61,3.61,2.61,6.51,0,1.86-.42,3.31-1.27,4.45h-.01c-.8,1.06-1.84,1.66-3.22,1.84l-2.9.38.49.75,6.24,9.56,1.43,2.2h-8.2l-1.07-2.03-5.12-9.73-1-1.89Zm2.41-3.69v-2.5c.4,0,.91.07,1.17.32.07.07.29.26.29.97,0,.65-.2.83-.27.89-.27.25-.78.31-1.19.32Zm3.66-4.89c-.92-.87-2.18-1.31-3.73-1.31h-3.6v11.78h2.26l-1-1.89h2.34c1.42,0,2.59-.36,3.49-1.07.08-.06.16-.12.23-.19.67-.62,1.48-1.72,1.48-3.64s-.8-3.07-1.47-3.68Zm-3.66,2.39c.4,0,.91.07,1.17.32.07.07.29.26.29.97,0,.65-.2.83-.27.89-.27.25-.78.31-1.19.32v-2.5Z"/><path class="cls-6" d="m190.82,34.31V2.61h21.08v8.59h-9.97v3.05h9.04v8.12h-9.04v3.34h10.23v8.59h-21.34Z"/><path class="cls-5" d="m212.81,23.87v-10.82h.93V.76h-24.76v35.4h25.02v-12.29h-1.19Zm-2.48,8.59h-17.67V4.46h17.41v4.9h-9.97v6.75h9.04v4.42h-9.04v7.03h10.23v4.9Z"/></svg>