<svg width="591" height="173" viewBox="0 0 591 173" fill="none" xmlns="http://www.w3.org/2000/svg">
<g clip-path="url(#clip0_33_104)">
<path d="M523.25 38H67.22C30.0954 38 0 68.0932 0 105.215C0 142.337 30.0954 172.43 67.22 172.43H523.25C560.375 172.43 590.47 142.337 590.47 105.215C590.47 68.0932 560.375 38 523.25 38Z" fill="#00B7B2"/>
<path d="M582.54 105.22C582.54 108.29 582.31 111.31 581.86 114.25C579.91 127 573.89 138.42 565.18 147.13C554.45 157.86 539.63 164.49 523.26 164.49H70.9499C43.6799 164.49 20.7099 146.08 13.7999 121C12.4099 115.97 11.6699 110.67 11.6699 105.21C11.6699 98.79 12.6899 92.61 14.5799 86.82C17.5099 77.84 22.5199 69.81 29.0399 63.29C39.7699 52.56 54.5899 45.93 70.9599 45.93H523.27C549.12 45.93 571.1 62.47 579.21 85.55C581.38 91.7 582.55 98.32 582.55 105.22H582.54Z" fill="#00D9D8"/>
<path d="M581.85 114.25C579.9 127 573.88 138.42 565.17 147.13C554.44 157.86 539.62 164.49 523.25 164.49H70.9498C43.6798 164.49 20.7098 146.08 13.7998 121C37.6998 129.83 97.1898 139.25 241.33 140.22C473.77 141.78 552.35 139.09 581.86 114.24L581.85 114.25Z" fill="#00C6C1"/>
<path d="M579.19 85.55C502.2 55.98 306.36 80.65 163.83 75.34C85.1598 72.41 39.8698 79.45 14.5698 86.83C17.4998 77.85 22.5098 69.82 29.0298 63.3C39.7598 52.57 54.5798 45.94 70.9498 45.94H523.26C549.11 45.94 571.09 62.48 579.2 85.56L579.19 85.55Z" fill="#00EAE4"/>
</g>
<g clip-path="url(#clip1_33_104)">
<path d="M132.26 71.51L140.49 51.42C144.18 54 147.47 55.89 150.36 57.08C153.25 58.27 155.95 58.87 158.47 58.87C160.23 58.87 161.62 58.54 162.64 57.87C163.65 57.2 164.16 56.29 164.16 55.15C164.16 53.16 161.63 51.64 156.56 50.59C154.93 50.23 153.65 49.95 152.74 49.76C147.38 48.45 143.28 46.13 140.44 42.8C137.6 39.47 136.18 35.32 136.18 30.35C136.18 22.64 138.94 16.37 144.46 11.53C149.98 6.70003 157.22 4.28003 166.17 4.28003C170.29 4.28003 174.34 4.82003 178.32 5.90003C182.3 6.98003 186.32 8.61003 190.37 10.8L182.53 29.57C180.05 27.74 177.56 26.34 175.06 25.38C172.56 24.42 170.14 23.93 167.78 23.93C165.98 23.93 164.59 24.23 163.61 24.84C162.63 25.45 162.14 26.29 162.14 27.36C162.14 29.39 165.72 31.17 172.87 32.7C174.01 32.96 174.9 33.16 175.52 33.29C180.45 34.4 184.34 36.67 187.18 40.1C190.02 43.53 191.44 47.68 191.44 52.55C191.44 60.49 188.57 66.97 182.84 72C177.11 77.03 169.65 79.55 160.47 79.55C155.77 79.55 151.06 78.88 146.36 77.54C141.66 76.2 136.95 74.19 132.25 71.51H132.26Z" fill="white"/>
<path d="M160.49 83.73C155.42 83.73 150.29 83 145.23 81.56C140.23 80.14 135.17 77.98 130.19 75.14L127 73.32L138.04 46.37C137.77 46.09 137.51 45.8 137.26 45.5C133.77 41.4 132 36.3 132 30.34C132 21.41 135.27 14.02 141.71 8.37998C147.99 2.88998 156.22 0.0999756 166.17 0.0999756C170.64 0.0999756 175.09 0.689976 179.41 1.85998C183.69 3.01998 188.04 4.78998 192.36 7.11998L195.69 8.91998L185.6 33.07C187.41 34.29 189.01 35.75 190.41 37.43C193.88 41.62 195.63 46.7 195.63 52.55C195.63 61.71 192.26 69.31 185.61 75.15C179.12 80.85 170.66 83.73 160.48 83.73H160.49ZM137.56 69.61C140.89 71.27 144.23 72.59 147.52 73.52C151.83 74.75 156.19 75.37 160.49 75.37C168.7 75.37 175.11 73.24 180.1 68.86C184.93 64.62 187.28 59.29 187.28 52.55C187.28 48.65 186.2 45.45 183.98 42.77C181.72 40.05 178.66 38.28 174.62 37.37C174.04 37.25 173.14 37.05 171.96 36.78C165.07 35.3 157.98 33.02 157.98 27.36C157.98 24.81 159.21 22.65 161.43 21.28C163.1 20.25 165.18 19.75 167.79 19.75C170.65 19.75 173.6 20.33 176.57 21.48C177.91 22 179.26 22.63 180.6 23.37L185.02 12.8C182.4 11.59 179.79 10.64 177.24 9.94998C173.63 8.96997 169.91 8.47997 166.18 8.47997C158.2 8.47997 152 10.51 147.23 14.7C142.62 18.74 140.37 23.87 140.37 30.37C140.37 34.34 141.44 37.53 143.63 40.1C145.87 42.72 149.25 44.61 153.68 45.7C154.6 45.9 155.86 46.17 157.47 46.53C160.12 47.08 168.35 48.78 168.35 55.17C168.35 57.73 167.14 59.93 164.96 61.38C163.25 62.51 161.08 63.08 158.49 63.08C155.44 63.08 152.17 62.37 148.78 60.98C146.83 60.17 144.71 59.08 142.45 57.72L137.57 69.64L137.56 69.61Z" fill="#00B7B2"/>
<path d="M250.35 34.37C248 32.12 245.6 30.43 243.15 29.32C240.7 28.21 238.12 27.65 235.41 27.65C231.2 27.65 227.81 28.95 225.24 31.55C222.67 34.15 221.39 37.6 221.39 41.91C221.39 46.22 222.62 49.49 225.07 52C227.52 54.52 230.8 55.77 234.92 55.77C237.4 55.77 239.93 55.24 242.49 54.18C245.05 53.12 247.86 51.43 250.89 49.11L250.06 76.11C247.25 77.25 244.44 78.11 241.63 78.68C238.82 79.25 236.01 79.54 233.2 79.54C229.7 79.54 226.34 79.15 223.11 78.36C219.88 77.57 216.95 76.47 214.34 75.03C208 71.37 203.21 66.75 199.96 61.16C196.71 55.57 195.08 49.15 195.08 41.9C195.08 36.54 196 31.58 197.85 27C199.69 22.43 202.38 18.39 205.91 14.9C209.47 11.37 213.6 8.69998 218.28 6.88998C222.97 5.07998 228.04 4.16998 233.5 4.16998C236.41 4.16998 239.27 4.46998 242.1 5.07998C244.92 5.68998 247.68 6.58998 250.36 7.79998V34.36L250.35 34.37Z" fill="white"/>
<path d="M233.2 83.73C229.39 83.73 225.66 83.29 222.12 82.44C218.54 81.57 215.24 80.32 212.32 78.71C205.3 74.66 199.95 69.48 196.34 63.28C192.73 57.08 190.9 49.89 190.9 41.92C190.9 36.05 191.93 30.51 193.97 25.46C196.02 20.38 199.04 15.84 202.97 11.95C206.92 8.03001 211.57 5.02001 216.78 3.01001C221.93 1.02001 227.55 0.0100098 233.5 0.0100098C236.69 0.0100098 239.87 0.35001 242.97 1.01001C246.07 1.68001 249.14 2.68001 252.07 4.01001L254.53 5.12001V41.09L255.34 40.47L254.15 78.98L251.63 80.01C248.6 81.25 245.51 82.19 242.46 82.81C239.38 83.43 236.27 83.75 233.2 83.75V83.73ZM233.49 8.36001C228.58 8.36001 223.96 9.18001 219.78 10.8C215.65 12.4 211.97 14.78 208.84 17.88C205.73 20.96 203.33 24.56 201.71 28.58C200.07 32.63 199.24 37.12 199.24 41.91C199.24 48.38 200.69 54.15 203.55 59.07C206.42 63.99 210.74 68.15 216.41 71.42C218.61 72.63 221.22 73.62 224.08 74.31C229.29 75.57 235.09 75.75 240.79 74.59C242.5 74.24 244.23 73.77 245.96 73.18L246.46 56.94C245.65 57.36 244.86 57.73 244.08 58.05C241.01 59.32 237.93 59.96 234.91 59.96C229.64 59.96 225.32 58.27 222.06 54.92C218.83 51.61 217.2 47.23 217.2 41.91C217.2 36.59 218.9 32 222.25 28.61C225.62 25.2 230.04 23.47 235.39 23.47C238.69 23.47 241.87 24.16 244.86 25.51C245.29 25.71 245.73 25.92 246.16 26.14V10.61C244.54 10.01 242.88 9.53001 241.21 9.17001C238.69 8.63001 236.09 8.36001 233.49 8.36001ZM235.4 31.83C232.32 31.83 229.97 32.7 228.21 34.48C226.43 36.28 225.57 38.71 225.57 41.91C225.57 45.11 226.38 47.37 228.06 49.09C229.7 50.78 231.95 51.6 234.91 51.6C236.83 51.6 238.84 51.17 240.88 50.33C243.1 49.41 245.61 47.89 248.34 45.8L252.72 42.45L247.44 37.39C245.44 35.48 243.41 34.04 241.4 33.13C239.48 32.26 237.51 31.84 235.38 31.84L235.4 31.83Z" fill="#00B7B2"/>
<path d="M333.4 41.91C333.4 47.17 332.47 52.06 330.61 56.59C328.75 61.12 326.02 65.16 322.43 68.72C318.84 72.22 314.7 74.89 310.01 76.76C305.32 78.62 300.33 79.55 295.04 79.55C289.75 79.55 284.67 78.62 280 76.76C275.33 74.9 271.18 72.19 267.55 68.63C263.99 65.17 261.29 61.18 259.46 56.67C257.63 52.16 256.72 47.24 256.72 41.92C256.72 36.6 257.63 31.66 259.46 27.12C261.29 22.58 263.98 18.58 267.55 15.11C271.14 11.58 275.28 8.89003 279.95 7.05003C284.62 5.20003 289.65 4.28003 295.04 4.28003C300.43 4.28003 305.46 5.20003 310.13 7.05003C314.8 8.90003 318.95 11.58 322.58 15.11C326.11 18.61 328.8 22.62 330.64 27.16C332.49 31.7 333.41 36.62 333.41 41.91H333.4ZM295.03 55.44C298.66 55.44 301.57 54.21 303.78 51.74C305.99 49.27 307.09 46 307.09 41.91C307.09 37.82 305.99 34.49 303.78 31.99C301.57 29.49 298.66 28.24 295.03 28.24C291.4 28.24 288.48 29.5 286.26 32.01C284.04 34.53 282.93 37.83 282.93 41.91C282.93 45.99 284.04 49.27 286.26 51.74C288.48 54.21 291.41 55.44 295.03 55.44Z" fill="white"/>
<path d="M295.04 83.73C289.17 83.73 283.59 82.69 278.45 80.64C273.28 78.58 268.63 75.54 264.62 71.61C260.67 67.77 257.63 63.27 255.59 58.24C253.57 53.25 252.54 47.76 252.54 41.92C252.54 36.08 253.57 30.58 255.59 25.56C257.63 20.5 260.67 15.97 264.64 12.12C268.6 8.22999 273.24 5.20999 278.42 3.16999C283.56 1.13999 289.16 0.109985 295.05 0.109985C300.94 0.109985 306.54 1.13999 311.68 3.16999C316.85 5.20999 321.5 8.21999 325.51 12.12C329.45 16.03 332.48 20.55 334.53 25.6C336.57 30.62 337.61 36.12 337.61 41.92C337.61 47.72 336.56 53.18 334.5 58.19C332.43 63.21 329.37 67.76 325.39 71.7C321.39 75.59 316.75 78.59 311.57 80.65C306.41 82.7 300.85 83.74 295.06 83.74L295.04 83.73ZM295.04 8.45999C290.2 8.45999 285.64 9.28999 281.48 10.94C277.35 12.57 273.65 14.98 270.48 18.1C267.34 21.15 264.94 24.71 263.34 28.69C261.72 32.71 260.9 37.16 260.9 41.93C260.9 46.7 261.72 51.12 263.34 55.11C264.94 59.06 267.34 62.6 270.47 65.64C273.7 68.81 277.42 71.24 281.55 72.89C285.71 74.55 290.25 75.39 295.05 75.39C299.85 75.39 304.3 74.55 308.48 72.89C312.63 71.24 316.35 68.84 319.53 65.74C322.68 62.62 325.12 59 326.76 55.02C328.41 51.02 329.24 46.62 329.24 41.93C329.24 37.24 328.41 32.77 326.78 28.75C325.16 24.76 322.76 21.17 319.65 18.09C316.47 14.99 312.74 12.58 308.61 10.95C304.45 9.30999 299.89 8.46999 295.05 8.46999L295.04 8.45999ZM295.04 59.62C290.2 59.62 286.2 57.91 283.16 54.54C280.24 51.29 278.75 47.05 278.75 41.92C278.75 36.79 280.22 32.54 283.13 29.25C286.13 25.86 290.24 24.06 295.04 24.06C299.84 24.06 303.94 25.85 306.92 29.22C309.81 32.49 311.27 36.76 311.27 41.91C311.27 47.06 309.8 51.28 306.9 54.52C303.88 57.9 299.89 59.61 295.04 59.61V59.62ZM295.04 32.42C292.62 32.42 290.82 33.17 289.4 34.78C287.86 36.52 287.11 38.85 287.11 41.91C287.11 44.97 287.85 47.25 289.37 48.94C290.79 50.52 292.59 51.26 295.04 51.26C297.49 51.26 299.26 50.53 300.67 48.95C302.18 47.26 302.91 44.96 302.91 41.91C302.91 38.86 302.17 36.48 300.65 34.75C299.25 33.16 297.46 32.42 295.04 32.42Z" fill="#00B7B2"/>
<path d="M341.73 77.64V5.90002H374.17C383.58 5.90002 390.76 7.98002 395.73 12.12C400.7 16.27 403.18 22.25 403.18 30.06C403.18 35.16 401.93 39.35 399.43 42.65C396.93 45.95 393.56 47.88 389.31 48.43L408.47 77.64H379.56L367.01 53.97V77.64H341.72H341.73ZM367.02 24.37V38.39H371.04C373.49 38.39 375.38 37.79 376.7 36.6C378.02 35.41 378.68 33.7 378.68 31.48C378.68 29.26 378.02 27.44 376.7 26.21C375.38 24.98 373.49 24.37 371.04 24.37H367.02Z" fill="white"/>
<path d="M416.21 81.82H377.04L371.19 70.79V81.82H337.54V1.71997H374.16C384.53 1.71997 392.69 4.13997 398.4 8.91997C404.34 13.88 407.35 21 407.35 30.07C407.35 36.08 405.8 41.16 402.75 45.19C400.86 47.69 398.56 49.58 395.88 50.85L416.21 81.83V81.82ZM382.07 73.46H400.72L382.15 45.15L388.76 44.29C391.88 43.88 394.28 42.52 396.09 40.13C398.04 37.55 398.99 34.26 398.99 30.06C398.99 23.49 397.04 18.68 393.04 15.33C388.87 11.85 382.52 10.08 374.16 10.08H345.9V73.46H362.82V20.19H371.02C374.55 20.19 377.41 21.18 379.52 23.14C381.04 24.54 382.85 27.13 382.85 31.48C382.85 35.83 381.02 38.32 379.48 39.71C377.37 41.61 374.53 42.57 371.02 42.57H365.69L382.06 73.46H382.07ZM371.19 28.56V34.21C372.11 34.2 373.27 34.05 373.89 33.5C374.04 33.36 374.49 32.96 374.49 31.48C374.49 29.88 374.01 29.43 373.85 29.28C373.24 28.72 372.1 28.57 371.19 28.56Z" fill="#00B7B2"/>
<path d="M411.06 77.64V5.90002H459.03V25.35H436.34V32.26H456.92V50.64H436.34V58.19H459.62V77.64H411.06Z" fill="white"/>
<path d="M463.8 81.82H406.87V1.71997H463.21V29.54H461.1V54.01H463.8V81.83V81.82ZM415.24 73.46H455.44V62.37H432.16V46.46H452.74V36.45H432.16V21.18H454.85V10.09H415.24V73.47V73.46Z" fill="#00B7B2"/>
</g>
<defs>
<clipPath id="clip0_33_104">
<rect width="590.47" height="134.43" fill="white" transform="translate(0 38)"/>
</clipPath>
<clipPath id="clip1_33_104">
<rect width="336.8" height="83.73" fill="white" transform="translate(127)"/>
</clipPath>
</defs>
</svg>
